<svg width="430" height="366" viewBox="0 0 430 366" fill="none" xmlns="http://www.w3.org/2000/svg">
<path d="M402.5 0H430V269.593H370.025L430 366H378.978H328.5H246H0L42.5 252H0V103H56.5H92.5H154.5H268H384.5V44H343L299 0H370.025H402.5Z" fill="#95D4F8"/>
<path d="M30.702 28.324C30.4527 30.568 29.682 32.54 28.39 34.24C27.098 35.9173 25.398 37.2207 23.29 38.15C21.2047 39.0793 18.802 39.544 16.082 39.544C13.1127 39.544 10.5173 38.9887 8.296 37.878C6.07467 36.7673 4.34067 35.2147 3.094 33.22C1.87 31.2253 1.258 28.902 1.258 26.25C1.258 23.598 1.87 21.2747 3.094 19.28C4.34067 17.2853 6.07467 15.7327 8.296 14.622C10.5173 13.5113 13.1127 12.956 16.082 12.956C18.802 12.956 21.2047 13.4207 23.29 14.35C25.398 15.2793 27.098 16.594 28.39 18.294C29.682 19.9713 30.4527 21.932 30.702 24.176H23.63C23.4033 23.088 22.9613 22.17 22.304 21.422C21.6467 20.6513 20.7853 20.062 19.72 19.654C18.6773 19.246 17.4647 19.042 16.082 19.042C14.4953 19.042 13.124 19.3367 11.968 19.926C10.812 20.4927 9.928 21.32 9.316 22.408C8.704 23.4733 8.398 24.754 8.398 26.25C8.398 27.746 8.704 29.038 9.316 30.126C9.928 31.1913 10.812 32.0187 11.968 32.608C13.124 33.1747 14.4953 33.458 16.082 33.458C17.4647 33.458 18.6773 33.2653 19.72 32.88C20.7853 32.4947 21.6467 31.9167 22.304 31.146C22.9613 30.3753 23.4033 29.4347 23.63 28.324H30.702ZM41.1493 16.594H48.2213V39H41.1493V16.594ZM31.4253 13.5L57.9453 13.5V19.756H31.4253V13.5ZM67.0015 39L71.5915 31.01H71.6935L81.6555 13.5H89.3055L74.6515 39H67.0015ZM71.4895 35.566L58.7395 13.5H66.5255L76.4875 30.84L71.4895 35.566ZM86.8081 44.134V32.778H92.3161L94.5601 32.846H112.24L114.008 32.778H121.42V44.134H114.824V39H93.4041V44.134H86.8081ZM92.1121 13.5H117.034V37.028H109.962V16.458L113.158 19.654L95.8521 19.654L98.7761 17.308C98.9574 18.3507 99.0594 19.3593 99.0821 20.334C99.1274 21.3087 99.1501 22.238 99.1501 23.122C99.1501 25.774 98.9121 28.0067 98.4361 29.82C97.9828 31.6333 97.2914 33.0047 96.3621 33.934C95.4554 34.8633 94.3108 35.328 92.9281 35.328L89.9701 32.88C90.8768 31.8147 91.5454 30.364 91.9761 28.528C92.4068 26.6693 92.6221 24.38 92.6221 21.66C92.6221 20.4133 92.5768 19.11 92.4861 17.75C92.3954 16.39 92.2708 14.9733 92.1121 13.5ZM146.594 23.7V28.8H127.928V23.7H146.594ZM132.722 26.25L131.056 36.484L128.2 33.288H147.716V39L124.018 39L125.956 26.25L124.018 13.5H147.546V19.212H128.2L131.056 16.016L132.722 26.25ZM151.794 13.5H158.832V39H151.794V13.5ZM171.854 13.5H178.926V39H171.854V13.5ZM155.738 22.918H174.778V29.174H155.738V22.918ZM191.692 16.594H198.764V39H191.692V16.594ZM181.968 13.5L208.488 13.5V19.756H181.968V13.5ZM212.407 34.104V28.426L229.985 28.426V34.104L212.407 34.104ZM225.973 13.5L237.567 39H230.053L220.329 16.492H222.369L212.611 39H205.097L216.691 13.5H225.973ZM277.246 13.5V39H270.548V16.016L272.044 16.186L262.184 39H255.044L245.15 16.254L246.68 16.084V39H239.982V13.5H250.862L260.008 35.396H257.288L266.366 13.5H277.246ZM25.534 61.742H18.632C18.5187 60.9033 18.1447 60.212 17.51 59.668C16.898 59.1013 16.014 58.818 14.858 58.818C14.178 58.818 13.5887 58.9087 13.09 59.09C12.614 59.2713 12.2513 59.532 12.002 59.872C11.7527 60.212 11.628 60.5973 11.628 61.028C11.628 61.3907 11.73 61.7533 11.934 62.116C12.1607 62.4787 12.5233 62.864 13.022 63.272L32.436 80H23.766L7.718 66.264C6.74333 65.4253 5.916 64.5413 5.236 63.612C4.57867 62.66 4.25 61.64 4.25 60.552C4.25 59.2373 4.64667 58.0927 5.44 57.118C6.23333 56.1207 7.40067 55.35 8.942 54.806C10.4833 54.2393 12.3647 53.956 14.586 53.956C16.8527 53.956 18.7793 54.296 20.366 54.976C21.9753 55.656 23.2107 56.5853 24.072 57.764C24.956 58.9427 25.4433 60.2687 25.534 61.742ZM23.732 65.924H30.94L22.814 75.104C21.6807 76.396 20.5473 77.45 19.414 78.266C18.2807 79.0593 17.0567 79.6373 15.742 80C14.4273 80.3627 12.9313 80.544 11.254 80.544C9.12333 80.544 7.28733 80.2153 5.746 79.558C4.22733 78.878 3.06 77.9713 2.244 76.838C1.428 75.7047 1.02 74.4127 1.02 72.962C1.02 71.6927 1.36 70.5367 2.04 69.494C2.72 68.4513 3.78533 67.5787 5.236 66.876C6.68667 66.1733 8.57933 65.7087 10.914 65.482L12.342 68.202C10.9367 68.4967 9.84867 68.984 9.078 69.664C8.30733 70.3213 7.922 71.1147 7.922 72.044C7.922 72.656 8.10333 73.2227 8.466 73.744C8.85133 74.2427 9.36133 74.6393 9.996 74.934C10.6533 75.2287 11.424 75.376 12.308 75.376C13.8947 75.376 15.2093 75.07 16.252 74.458C17.3173 73.846 18.224 73.064 18.972 72.112L23.732 65.924ZM45.1956 75.104V69.426H62.7736V75.104H45.1956ZM58.7616 54.5L70.3556 80H62.8416L53.1176 57.492H55.1576L45.3996 80H37.8856L49.4796 54.5H58.7616ZM77.3266 64.19H88.5806C90.734 64.19 92.502 64.5187 93.8846 65.176C95.2673 65.8333 96.2986 66.7627 96.9786 67.964C97.6586 69.1427 97.9986 70.5253 97.9986 72.112C97.9986 73.6987 97.6246 75.0927 96.8766 76.294C96.1286 77.4727 95.052 78.3907 93.6466 79.048C92.2413 79.6827 90.5526 80 88.5806 80H71.9886L73.9606 66.774L71.9886 54.5H96.0266V59.838H76.3746L79.0606 56.608L80.6586 66.638L78.9246 78.096L76.2386 74.866H87.6626C88.6826 74.866 89.4873 74.6053 90.0766 74.084C90.6886 73.5627 90.9946 72.8487 90.9946 71.942C90.9946 71.0127 90.6886 70.2987 90.0766 69.8C89.4873 69.2787 88.6826 69.018 87.6626 69.018H77.3266V64.19ZM101.392 54.5H108.43V80H101.392V54.5ZM121.169 57.594H128.241V80H121.169V57.594ZM111.445 54.5H137.965V60.756H111.445V54.5ZM147.021 80L151.611 72.01H151.713L161.675 54.5H169.325L154.671 80H147.021ZM151.509 76.566L138.759 54.5L146.545 54.5L156.507 71.84L151.509 76.566ZM186.03 54.5C188.161 54.5 189.997 54.8627 191.538 55.588C193.102 56.3133 194.292 57.3447 195.108 58.682C195.924 59.9967 196.332 61.538 196.332 63.306C196.332 65.0513 195.924 66.5927 195.108 67.93C194.292 69.2447 193.102 70.2647 191.538 70.99C189.997 71.7153 188.161 72.078 186.03 72.078H174.98V66.434H185.588C186.721 66.434 187.605 66.162 188.24 65.618C188.875 65.0513 189.192 64.2807 189.192 63.306C189.192 62.3087 188.875 61.538 188.24 60.994C187.605 60.4273 186.721 60.144 185.588 60.144H175.592L178.754 56.88V80H171.716V54.5H186.03ZM199.407 54.5H206.445V80H199.407V54.5ZM225.066 80.544C222.074 80.544 219.456 79.9887 217.212 78.878C214.968 77.7673 213.212 76.2147 211.942 74.22C210.696 72.2253 210.072 69.902 210.072 67.25C210.072 64.598 210.696 62.2747 211.942 60.28C213.212 58.2853 214.968 56.7327 217.212 55.622C219.456 54.5113 222.074 53.956 225.066 53.956C227.741 53.956 230.132 54.4093 232.24 55.316C234.371 56.2227 236.094 57.492 237.408 59.124C238.746 60.7333 239.55 62.626 239.822 64.802H232.852C232.626 63.7367 232.172 62.8413 231.492 62.116C230.812 61.368 229.928 60.8013 228.84 60.416C227.775 60.008 226.528 59.804 225.1 59.804C223.446 59.804 222.006 60.0987 220.782 60.688C219.581 61.2773 218.652 62.1273 217.994 63.238C217.36 64.3487 217.042 65.686 217.042 67.25C217.042 68.814 217.36 70.1513 217.994 71.262C218.652 72.3727 219.581 73.2227 220.782 73.812C222.006 74.4013 223.446 74.696 225.1 74.696C226.551 74.696 227.809 74.5033 228.874 74.118C229.962 73.71 230.835 73.132 231.492 72.384C232.172 71.636 232.626 70.7407 232.852 69.698H239.822C239.55 71.8513 238.746 73.744 237.408 75.376C236.094 77.008 234.371 78.2773 232.24 79.184C230.132 80.0907 227.741 80.544 225.066 80.544ZM213.846 69.596V64.904H229.35V69.596H213.846ZM243.202 54.5H250.24V80H243.202V54.5ZM263.262 54.5H270.334V80H263.262V54.5ZM247.146 63.918H266.186V70.174H247.146V63.918ZM283.1 57.594H290.172V80L283.1 80V57.594ZM273.376 54.5H299.896V60.756H273.376V54.5ZM303.815 75.104V69.426H321.393V75.104H303.815ZM317.381 54.5L328.975 80H321.461L311.737 57.492H313.777L304.019 80H296.505L308.099 54.5H317.381ZM368.654 54.5V80H361.956V57.016L363.452 57.186L353.592 80H346.452L336.558 57.254L338.088 57.084V80H331.39V54.5H342.27L351.416 76.396H348.696L357.774 54.5H368.654Z" fill="#95D4F8"/>
</svg>
