<svg width="430" height="368" viewBox="0 0 430 368" fill="none" xmlns="http://www.w3.org/2000/svg">
<path d="M0.5 368H67H178.5L178.487 315.017H326.915L292.5 368H361H430L352.15 102.062H371.443H391.074H429.999V0H372.976L352.15 47.9747H111.616H67.2024H34.2662H0.831064L0.332031 160.115L0.831064 272.366H44.0647L22.6507 315.017L0.5 368Z" fill="#B5B0FF"/>
<path d="M30.7004 22.3245C30.4511 24.5684 29.6805 26.5403 28.3885 28.2402C27.0966 29.9175 25.3967 31.2208 23.2888 32.15C21.2036 33.0793 18.801 33.544 16.0812 33.544C13.112 33.544 10.5168 32.9887 8.29557 31.8781C6.07435 30.7674 4.34044 29.2149 3.09384 27.2203C1.8699 25.2257 1.25794 22.9025 1.25794 20.2507C1.25794 17.5988 1.8699 15.2756 3.09384 13.281C4.34044 11.2864 6.07435 9.73386 8.29557 8.62325C10.5168 7.51264 13.112 6.95734 16.0812 6.95734C18.801 6.95734 21.2036 7.42198 23.2888 8.35127C25.3967 9.28055 27.0966 10.5952 28.3885 12.2951C29.6805 13.9723 30.4511 15.9329 30.7004 18.1768H23.6288C23.4021 17.0888 22.9602 16.1709 22.3029 15.4229C21.6456 14.6523 20.7843 14.063 19.719 13.655C18.6764 13.247 17.4638 13.043 16.0812 13.043C14.4946 13.043 13.1233 13.3377 11.9674 13.927C10.8114 14.4936 9.92749 15.3209 9.31552 16.4089C8.70355 17.4741 8.39757 18.7547 8.39757 20.2507C8.39757 21.7466 8.70355 23.0385 9.31552 24.1265C9.92749 25.1917 10.8114 26.019 11.9674 26.6083C13.1233 27.175 14.4946 27.4583 16.0812 27.4583C17.4638 27.4583 18.6764 27.2656 19.719 26.8803C20.7843 26.495 21.6456 25.917 22.3029 25.1464C22.9602 24.3758 23.4021 23.4352 23.6288 22.3245H30.7004ZM61.115 7.50131V33H54.0774V10.5612L57.2392 13.757L37.9962 13.757L41.1581 10.5612V33H34.1204V7.50131L61.115 7.50131ZM87.6539 17.7008V22.8005H68.9888V17.7008H87.6539ZM73.7826 20.2507L72.1167 30.4841L69.2608 27.2883H88.7758V33L65.079 33L67.0169 20.2507L65.079 7.50131L88.6058 7.50131V13.213L69.2608 13.213L72.1167 10.0172L73.7826 20.2507ZM119.576 7.50131V29.0562L117.06 26.7443H123.996V38.1337H117.366V31.6741L119.304 33H92.8537V7.50131L99.8914 7.50131V29.0562L97.6135 26.7443L115.021 26.7443L112.539 29.0562V7.50131H119.576ZM127.35 7.50131L134.388 7.50131V33H127.35V7.50131ZM144.1 28.1042V22.4265H161.677V28.1042H144.1ZM157.666 7.50131L169.259 33H161.745L152.022 10.4932H154.062L144.304 33H136.791L148.384 7.50131H157.666ZM175.924 7.50131L200.946 7.50131V33H193.875V10.5612L197.071 13.757L179.867 13.757L182.825 11.4111C183.007 12.907 183.131 14.3463 183.199 15.7289C183.267 17.0888 183.301 18.3807 183.301 19.6047C183.301 22.8685 183.007 25.5317 182.417 27.5943C181.828 29.6342 180.899 31.1301 179.629 32.082C178.36 33.034 176.717 33.51 174.7 33.51C173.816 33.51 172.943 33.4193 172.082 33.238C171.243 33.0567 170.473 32.7847 169.77 32.422V26.5743C170.767 26.9596 171.685 27.1523 172.524 27.1523C173.997 27.1523 175.051 26.4837 175.686 25.1464C176.343 23.8091 176.672 21.6219 176.672 18.5847C176.672 17.1115 176.604 15.4569 176.468 13.621C176.354 11.7851 176.173 9.74519 175.924 7.50131ZM205.672 7.50131H212.71V33L205.672 33V7.50131ZM245.779 22.3245C245.53 24.5684 244.759 26.5403 243.467 28.2402C242.175 29.9175 240.475 31.2208 238.368 32.15C236.282 33.0793 233.88 33.544 231.16 33.544C228.191 33.544 225.596 32.9887 223.374 31.8781C221.153 30.7674 219.419 29.2149 218.173 27.2203C216.949 25.2257 216.337 22.9025 216.337 20.2507C216.337 17.5988 216.949 15.2756 218.173 13.281C219.419 11.2864 221.153 9.73386 223.374 8.62325C225.596 7.51264 228.191 6.95734 231.16 6.95734C233.88 6.95734 236.282 7.42198 238.368 8.35127C240.475 9.28055 242.175 10.5952 243.467 12.2951C244.759 13.9723 245.53 15.9329 245.779 18.1768L238.708 18.1768C238.481 17.0888 238.039 16.1709 237.382 15.4229C236.724 14.6523 235.863 14.063 234.798 13.655C233.755 13.247 232.543 13.043 231.16 13.043C229.573 13.043 228.202 13.3377 227.046 13.927C225.89 14.4936 225.006 15.3209 224.394 16.4089C223.782 17.4741 223.476 18.7547 223.476 20.2507C223.476 21.7466 223.782 23.0385 224.394 24.1265C225.006 25.1917 225.89 26.019 227.046 26.6083C228.202 27.175 229.573 27.4583 231.16 27.4583C232.543 27.4583 233.755 27.2656 234.798 26.8803C235.863 26.495 236.724 25.917 237.382 25.1464C238.039 24.3758 238.481 23.4352 238.708 22.3245L245.779 22.3245ZM256.226 10.5951L263.298 10.5951V33H256.226V10.5951ZM246.502 7.50131L273.021 7.50131V13.757L246.502 13.757V7.50131ZM276.939 28.1042V22.4265H294.516V28.1042H276.939ZM290.504 7.50131L302.098 33H294.584L284.861 10.4932H286.901L277.143 33H269.63L281.223 7.50131L290.504 7.50131ZM341.775 7.50131V33H335.077V10.0172L336.573 10.1872L326.714 33H319.574L309.68 10.2552L311.21 10.0852V33H304.513V7.50131H315.392L324.538 29.3962H321.818L330.895 7.50131L341.775 7.50131Z" fill="#B5B0FF"/>
</svg>
