<svg width="430" height="368" viewBox="0 0 430 368" fill="none" xmlns="http://www.w3.org/2000/svg">
<path d="M249.314 368H0L0.666835 287.772H98.7357L0.666835 216.634V179.089V0H170.378L156.234 53.3406H225.117L225.117 94.717H429.937L429.937 192.526L353.56 173.161V320.575L429.937 302V368H249.314Z" fill="#3FAD78"/>
<path d="M209.429 22.5161L210.007 21.1901C211.979 21.2355 213.599 21.5415 214.869 22.1081C216.161 22.6521 217.124 23.4228 217.759 24.4201C218.393 25.3948 218.711 26.5281 218.711 27.8201C218.711 29.2028 218.393 30.4381 217.759 31.5261C217.124 32.5915 216.172 33.4415 214.903 34.0761C213.656 34.6881 212.092 34.9941 210.211 34.9941H191.375L193.347 21.9041L191.375 9.49414H209.531C211.888 9.49414 213.724 10.0495 215.039 11.1601C216.353 12.2481 217.011 13.7668 217.011 15.7161C217.011 16.7815 216.761 17.8015 216.263 18.7761C215.764 19.7508 214.959 20.5781 213.849 21.2581C212.761 21.9155 211.287 22.3348 209.429 22.5161ZM198.345 33.3621L195.625 30.0641H208.307C209.327 30.0641 210.12 29.8148 210.687 29.3161C211.253 28.8175 211.537 28.1261 211.537 27.2421C211.537 26.3581 211.231 25.6555 210.619 25.1341C210.007 24.5901 209.1 24.3181 207.899 24.3181H197.427V19.4901H206.947C207.763 19.4901 208.443 19.2521 208.987 18.7761C209.553 18.2775 209.837 17.6088 209.837 16.7701C209.837 16.0901 209.599 15.5348 209.123 15.1041C208.647 14.6508 207.967 14.4241 207.083 14.4241H195.659L198.345 11.1261L200.079 21.9041L198.345 33.3621ZM257.602 9.49414V34.9941H250.564V12.5541L253.726 15.7501H234.482L237.644 12.5541V34.9941H230.606V9.49414H257.602ZM276.356 35.5381C273.341 35.5381 270.689 34.9828 268.4 33.8721C266.133 32.7615 264.365 31.2088 263.096 29.2141C261.849 27.2195 261.226 24.8961 261.226 22.2441C261.226 19.5921 261.849 17.2688 263.096 15.2741C264.365 13.2795 266.133 11.7268 268.4 10.6161C270.689 9.50547 273.341 8.95014 276.356 8.95014C279.393 8.95014 282.045 9.50547 284.312 10.6161C286.579 11.7268 288.347 13.2795 289.616 15.2741C290.885 17.2688 291.52 19.5921 291.52 22.2441C291.52 24.8961 290.885 27.2195 289.616 29.2141C288.347 31.2088 286.579 32.7615 284.312 33.8721C282.045 34.9828 279.393 35.5381 276.356 35.5381ZM276.356 29.2481C278.011 29.2481 279.439 28.9648 280.64 28.3981C281.841 27.8315 282.759 27.0268 283.394 25.9841C284.051 24.9415 284.38 23.6948 284.38 22.2441C284.38 20.7935 284.051 19.5468 283.394 18.5041C282.759 17.4615 281.841 16.6568 280.64 16.0901C279.439 15.5235 278.011 15.2401 276.356 15.2401C274.724 15.2401 273.307 15.5235 272.106 16.0901C270.905 16.6568 269.975 17.4615 269.318 18.5041C268.661 19.5468 268.332 20.7935 268.332 22.2441C268.332 23.6948 268.661 24.9415 269.318 25.9841C269.975 27.0268 270.905 27.8315 272.106 28.3981C273.307 28.9648 274.724 29.2481 276.356 29.2481ZM332.723 28.7381L329.561 31.9341V9.49414H336.599V34.9941H295.153V9.49414H302.191V31.9341L299.029 28.7381H315.213L312.357 31.9341V9.49414H319.395V31.9341L316.437 28.7381H332.723ZM347.39 34.9941L351.98 27.0041H352.082L362.044 9.49414H369.694L355.04 34.9941H347.39ZM351.878 31.5601L339.128 9.49414H346.914L356.876 26.8341L351.878 31.5601ZM372.084 34.9941V9.49414H379.088V29.3841L377.218 27.9221L391.668 9.49414H399.114L378.442 34.9941H372.084ZM384.256 22.8221L389.424 18.5381L399.454 34.9941H391.464L384.256 22.8221ZM407.686 34.9941L412.276 27.0041H412.378L422.34 9.49414H429.99L415.336 34.9941H407.686ZM412.174 31.5601L399.424 9.49414H407.21L417.172 26.8341L412.174 31.5601ZM264.842 50.4941C266.972 50.4941 268.808 50.8568 270.35 51.5821C271.914 52.3075 273.104 53.3388 273.92 54.6761C274.736 55.9908 275.144 57.5321 275.144 59.3001C275.144 61.0455 274.736 62.5868 273.92 63.9241C273.104 65.2388 271.914 66.2588 270.35 66.9841C268.808 67.7095 266.972 68.0721 264.842 68.0721H253.792V62.4281H264.4C265.533 62.4281 266.417 62.1561 267.052 61.6121C267.686 61.0455 268.004 60.2748 268.004 59.3001C268.004 58.3028 267.686 57.5321 267.052 56.9881C266.417 56.4215 265.533 56.1381 264.4 56.1381H254.404L257.566 52.8741V75.9941H250.528V50.4941H264.842ZM292.227 76.5381C289.213 76.5381 286.561 75.9828 284.271 74.8721C282.005 73.7615 280.237 72.2088 278.967 70.2141C277.721 68.2195 277.097 65.8961 277.097 63.2441C277.097 60.5921 277.721 58.2688 278.967 56.2741C280.237 54.2795 282.005 52.7268 284.271 51.6161C286.561 50.5055 289.213 49.9501 292.227 49.9501C295.265 49.9501 297.917 50.5055 300.183 51.6161C302.45 52.7268 304.218 54.2795 305.487 56.2741C306.757 58.2688 307.391 60.5921 307.391 63.2441C307.391 65.8961 306.757 68.2195 305.487 70.2141C304.218 72.2088 302.45 73.7615 300.183 74.8721C297.917 75.9828 295.265 76.5381 292.227 76.5381ZM292.227 70.2481C293.882 70.2481 295.31 69.9648 296.511 69.3981C297.713 68.8315 298.631 68.0268 299.265 66.9841C299.923 65.9415 300.251 64.6948 300.251 63.2441C300.251 61.7935 299.923 60.5468 299.265 59.5041C298.631 58.4615 297.713 57.6568 296.511 57.0901C295.31 56.5235 293.882 56.2401 292.227 56.2401C290.595 56.2401 289.179 56.5235 287.977 57.0901C286.776 57.6568 285.847 58.4615 285.189 59.5041C284.532 60.5468 284.203 61.7935 284.203 63.2441C284.203 64.6948 284.532 65.9415 285.189 66.9841C285.847 68.0268 286.776 68.8315 287.977 69.3981C289.179 69.9648 290.595 70.2481 292.227 70.2481ZM315.281 60.1841H326.535C328.688 60.1841 330.456 60.5128 331.839 61.1701C333.222 61.8275 334.253 62.7568 334.933 63.9581C335.613 65.1368 335.953 66.5195 335.953 68.1061C335.953 69.6928 335.579 71.0868 334.831 72.2881C334.083 73.4668 333.006 74.3848 331.601 75.0421C330.196 75.6768 328.507 75.9941 326.535 75.9941H309.943L311.915 62.7681L309.943 50.4941H333.981V55.8321H314.329L317.015 52.6021L318.613 62.6321L316.879 74.0901L314.193 70.8601H325.617C326.637 70.8601 327.442 70.5995 328.031 70.0781C328.643 69.5568 328.949 68.8428 328.949 67.9361C328.949 67.0068 328.643 66.2928 328.031 65.7941C327.442 65.2728 326.637 65.0121 325.617 65.0121H315.281V60.1841ZM353.354 76.5381C350.339 76.5381 347.687 75.9828 345.398 74.8721C343.131 73.7615 341.363 72.2088 340.094 70.2141C338.847 68.2195 338.224 65.8961 338.224 63.2441C338.224 60.5921 338.847 58.2688 340.094 56.2741C341.363 54.2795 343.131 52.7268 345.398 51.6161C347.687 50.5055 350.339 49.9501 353.354 49.9501C356.391 49.9501 359.043 50.5055 361.31 51.6161C363.577 52.7268 365.345 54.2795 366.614 56.2741C367.883 58.2688 368.518 60.5921 368.518 63.2441C368.518 65.8961 367.883 68.2195 366.614 70.2141C365.345 72.2088 363.577 73.7615 361.31 74.8721C359.043 75.9828 356.391 76.5381 353.354 76.5381ZM353.354 70.2481C355.009 70.2481 356.437 69.9648 357.638 69.3981C358.839 68.8315 359.757 68.0268 360.392 66.9841C361.049 65.9415 361.378 64.6948 361.378 63.2441C361.378 61.7935 361.049 60.5468 360.392 59.5041C359.757 58.4615 358.839 57.6568 357.638 57.0901C356.437 56.5235 355.009 56.2401 353.354 56.2401C351.722 56.2401 350.305 56.5235 349.104 57.0901C347.903 57.6568 346.973 58.4615 346.316 59.5041C345.659 60.5468 345.33 61.7935 345.33 63.2441C345.33 64.6948 345.659 65.9415 346.316 66.9841C346.973 68.0268 347.903 68.8315 349.104 69.3981C350.305 69.9648 351.722 70.2481 353.354 70.2481ZM379.112 53.5881H386.184V75.9941H379.112V53.5881ZM369.388 50.4941H395.908V56.7501H369.388V50.4941ZM398.946 75.9941V50.4941H405.882V72.2881L403.944 71.8461L418.394 50.4941H427.608V75.9941H420.638V53.7921L422.61 54.2341L407.888 75.9941H398.946Z" fill="#3FAD78"/>
</svg>
