<svg width="430" height="368" viewBox="0 0 430 368" fill="none" xmlns="http://www.w3.org/2000/svg">
<path d="M232.079 338.634L430 368V46.8428H151.706L161.752 0H0V45.4997L69.3225 165.902L0 211.768V302.214V368H59.2757L74.3458 323.02L93.4346 368H228.061L232.079 338.634Z" fill="#F4D06F"/>
<path d="M200.253 25.4944C200.003 27.7384 199.233 29.7104 197.941 31.4104C196.649 33.0877 194.949 34.3911 192.841 35.3204C190.755 36.2497 188.353 36.7144 185.633 36.7144C182.663 36.7144 180.068 36.1591 177.847 35.0484C175.625 33.9377 173.891 32.3851 172.645 30.3904C171.421 28.3957 170.809 26.0724 170.809 23.4204C170.809 20.7684 171.421 18.4451 172.645 16.4504C173.891 14.4557 175.625 12.9031 177.847 11.7924C180.068 10.6817 182.663 10.1264 185.633 10.1264C188.353 10.1264 190.755 10.5911 192.841 11.5204C194.949 12.4497 196.649 13.7644 197.941 15.4644C199.233 17.1417 200.003 19.1024 200.253 21.3464H193.181C192.954 20.2584 192.512 19.3404 191.855 18.5924C191.197 17.8217 190.336 17.2324 189.271 16.8244C188.228 16.4164 187.015 16.2124 185.633 16.2124C184.046 16.2124 182.675 16.5071 181.519 17.0964C180.363 17.6631 179.479 18.4904 178.867 19.5784C178.255 20.6437 177.949 21.9244 177.949 23.4204C177.949 24.9164 178.255 26.2084 178.867 27.2964C179.479 28.3617 180.363 29.1891 181.519 29.7784C182.675 30.3451 184.046 30.6284 185.633 30.6284C187.015 30.6284 188.228 30.4357 189.271 30.0504C190.336 29.6651 191.197 29.0871 191.855 28.3164C192.512 27.5457 192.954 26.6051 193.181 25.4944H200.253ZM220.812 23.6924L221.39 22.3664C223.362 22.4117 224.983 22.7177 226.252 23.2844C227.544 23.8284 228.507 24.5991 229.142 25.5964C229.777 26.5711 230.094 27.7044 230.094 28.9964C230.094 30.3791 229.777 31.6144 229.142 32.7024C228.507 33.7677 227.555 34.6177 226.286 35.2524C225.039 35.8644 223.475 36.1704 221.594 36.1704H202.758L204.73 23.0804L202.758 10.6704H220.914C223.271 10.6704 225.107 11.2257 226.422 12.3364C227.737 13.4244 228.394 14.9431 228.394 16.8924C228.394 17.9577 228.145 18.9777 227.646 19.9524C227.147 20.9271 226.343 21.7544 225.232 22.4344C224.144 23.0917 222.671 23.5111 220.812 23.6924ZM209.728 34.5384L207.008 31.2404H219.69C220.71 31.2404 221.503 30.9911 222.07 30.4924C222.637 29.9937 222.92 29.3024 222.92 28.4184C222.92 27.5344 222.614 26.8317 222.002 26.3104C221.39 25.7664 220.483 25.4944 219.282 25.4944H208.81V20.6664H218.33C219.146 20.6664 219.826 20.4284 220.37 19.9524C220.937 19.4537 221.22 18.7851 221.22 17.9464C221.22 17.2664 220.982 16.7111 220.506 16.2804C220.03 15.8271 219.35 15.6004 218.466 15.6004H207.042L209.728 12.3024L211.462 23.0804L209.728 34.5384ZM233.556 10.6704H240.594V36.1704H233.556V10.6704ZM253.333 13.7644H260.405V36.1704H253.333V13.7644ZM243.609 10.6704H270.129V16.9264H243.609V10.6704ZM283.401 28.4864C279.774 28.4864 276.998 27.5457 275.071 25.6644C273.167 23.7604 272.215 21.0177 272.215 17.4364V10.6704H279.253V16.8584C279.253 18.6491 279.74 19.9977 280.715 20.9044C281.69 21.8111 283.152 22.2644 285.101 22.2644C286.234 22.2644 287.424 22.1397 288.671 21.8904C289.918 21.6184 291.164 21.2331 292.411 20.7344L292.819 26.3784C291.459 27.0584 289.974 27.5797 288.365 27.9424C286.756 28.3051 285.101 28.4864 283.401 28.4864ZM291.493 36.1704V10.6704H298.565V36.1704H291.493ZM325.076 20.8704V25.9704H306.41V20.8704H325.076ZM311.204 23.4204L309.538 33.6544L306.682 30.4584H326.198V36.1704H302.5L304.438 23.4204L302.5 10.6704H326.028V16.3824H306.682L309.538 13.1864L311.204 23.4204ZM344.59 10.6704C346.721 10.6704 348.557 11.0331 350.098 11.7584C351.662 12.4837 352.852 13.5151 353.668 14.8524C354.484 16.1671 354.892 17.7084 354.892 19.4764C354.892 21.2217 354.484 22.7631 353.668 24.1004C352.852 25.4151 351.662 26.4351 350.098 27.1604C348.557 27.8857 346.721 28.2484 344.59 28.2484H333.54V22.6044H344.148C345.282 22.6044 346.166 22.3324 346.8 21.7884C347.435 21.2217 347.752 20.4511 347.752 19.4764C347.752 18.4791 347.435 17.7084 346.8 17.1644C346.166 16.5977 345.282 16.3144 344.148 16.3144H334.152L337.314 13.0504V36.1704H330.276V10.6704H344.59ZM360.01 31.2744V25.5964H377.588V31.2744H360.01ZM373.576 10.6704L385.17 36.1704H377.656L367.932 13.6624H369.972L360.214 36.1704H352.7L364.294 10.6704H373.576ZM424.849 10.6704V36.1704H418.151V13.1864L419.647 13.3564L409.787 36.1704H402.647L392.753 13.4244L394.283 13.2544V36.1704H387.585V10.6704H398.465L407.611 32.5664H404.891L413.969 10.6704H424.849Z" fill="#F4D06F"/>
</svg>
