<svg width="480" height="402" viewBox="0 0 480 402" fill="none" xmlns="http://www.w3.org/2000/svg">
<path d="M361 348L480 402V87H388V127H196.5V0H0V48L69 170H0V309.68V402H53L74 331L100.804 402H361V348Z" fill="#95D4F8"/>
<path d="M241.702 22.324C241.453 24.568 240.682 26.54 239.39 28.24C238.098 29.9173 236.398 31.2207 234.29 32.15C232.205 33.0793 229.802 33.544 227.082 33.544C224.113 33.544 221.517 32.9887 219.296 31.878C217.075 30.7673 215.341 29.2147 214.094 27.22C212.87 25.2253 212.258 22.902 212.258 20.25C212.258 17.598 212.87 15.2747 214.094 13.28C215.341 11.2853 217.075 9.73267 219.296 8.622C221.517 7.51133 224.113 6.956 227.082 6.956C229.802 6.956 232.205 7.42067 234.29 8.35C236.398 9.27933 238.098 10.594 239.39 12.294C240.682 13.9713 241.453 15.932 241.702 18.176H234.63C234.403 17.088 233.961 16.17 233.304 15.422C232.647 14.6513 231.785 14.062 230.72 13.654C229.677 13.246 228.465 13.042 227.082 13.042C225.495 13.042 224.124 13.3367 222.968 13.926C221.812 14.4927 220.928 15.32 220.316 16.408C219.704 17.4733 219.398 18.754 219.398 20.25C219.398 21.746 219.704 23.038 220.316 24.126C220.928 25.1913 221.812 26.0187 222.968 26.608C224.124 27.1747 225.495 27.458 227.082 27.458C228.465 27.458 229.677 27.2653 230.72 26.88C231.785 26.4947 232.647 25.9167 233.304 25.146C233.961 24.3753 234.403 23.4347 234.63 22.324H241.702ZM262.261 20.522L262.839 19.196C264.811 19.2413 266.432 19.5473 267.701 20.114C268.993 20.658 269.957 21.4287 270.591 22.426C271.226 23.4007 271.543 24.534 271.543 25.826C271.543 27.2087 271.226 28.444 270.591 29.532C269.957 30.5973 269.005 31.4473 267.735 32.082C266.489 32.694 264.925 33 263.043 33H244.207L246.179 19.91L244.207 7.5H262.363C264.721 7.5 266.557 8.05533 267.871 9.166C269.186 10.254 269.843 11.7727 269.843 13.722C269.843 14.7873 269.594 15.8073 269.095 16.782C268.597 17.7567 267.792 18.584 266.681 19.264C265.593 19.9213 264.12 20.3407 262.261 20.522ZM251.177 31.368L248.457 28.07H261.139C262.159 28.07 262.953 27.8207 263.519 27.322C264.086 26.8233 264.369 26.132 264.369 25.248C264.369 24.364 264.063 23.6613 263.451 23.14C262.839 22.596 261.933 22.324 260.731 22.324H250.259V17.496H259.779C260.595 17.496 261.275 17.258 261.819 16.782C262.386 16.2833 262.669 15.6147 262.669 14.776C262.669 14.096 262.431 13.5407 261.955 13.11C261.479 12.6567 260.799 12.43 259.915 12.43H248.491L251.177 9.132L252.911 19.91L251.177 31.368ZM275.005 7.5H282.043V33H275.005V7.5ZM294.782 10.594H301.854V33H294.782V10.594ZM285.058 7.5H311.578V13.756H285.058V7.5ZM324.85 25.316C321.224 25.316 318.447 24.3753 316.52 22.494C314.616 20.59 313.664 17.8473 313.664 14.266V7.5H320.702V13.688C320.702 15.4787 321.19 16.8273 322.164 17.734C323.139 18.6407 324.601 19.094 326.55 19.094C327.684 19.094 328.874 18.9693 330.12 18.72C331.367 18.448 332.614 18.0627 333.86 17.564L334.268 23.208C332.908 23.888 331.424 24.4093 329.814 24.772C328.205 25.1347 326.55 25.316 324.85 25.316ZM332.942 33V7.5H340.014V33H332.942ZM366.526 17.7V22.8H347.86V17.7H366.526ZM352.654 20.25L350.988 30.484L348.132 27.288H367.648V33H343.95L345.888 20.25L343.95 7.5H367.478V13.212H348.132L350.988 10.016L352.654 20.25ZM386.04 7.5C388.17 7.5 390.006 7.86266 391.548 8.588C393.112 9.31333 394.302 10.3447 395.118 11.682C395.934 12.9967 396.342 14.538 396.342 16.306C396.342 18.0513 395.934 19.5927 395.118 20.93C394.302 22.2447 393.112 23.2647 391.548 23.99C390.006 24.7153 388.17 25.078 386.04 25.078H374.99V19.434H385.598C386.731 19.434 387.615 19.162 388.25 18.618C388.884 18.0513 389.202 17.2807 389.202 16.306C389.202 15.3087 388.884 14.538 388.25 13.994C387.615 13.4273 386.731 13.144 385.598 13.144H375.602L378.764 9.88V33H371.726V7.5H386.04ZM401.459 28.104V22.426H419.037V28.104H401.459ZM415.025 7.5L426.619 33H419.105L409.381 10.492H411.421L401.663 33H394.149L405.743 7.5H415.025ZM466.298 7.5V33H459.6V10.016L461.096 10.186L451.236 33H444.096L434.202 10.254L435.732 10.084V33H429.034V7.5H439.914L449.06 29.396H446.34L455.418 7.5H466.298ZM211.646 79.134V67.778H217.154L219.398 67.846H237.078L238.846 67.778H246.258V79.134H239.662V74H218.242V79.134H211.646ZM216.95 48.5H241.872V72.028H234.8V51.458L237.996 54.654H220.69L223.614 52.308C223.795 53.3507 223.897 54.3593 223.92 55.334C223.965 56.3087 223.988 57.238 223.988 58.122C223.988 60.774 223.75 63.0067 223.274 64.82C222.821 66.6333 222.129 68.0047 221.2 68.934C220.293 69.8633 219.149 70.328 217.766 70.328L214.808 67.88C215.715 66.8147 216.383 65.364 216.814 63.528C217.245 61.6693 217.46 59.38 217.46 56.66C217.46 55.4133 217.415 54.11 217.324 52.75C217.233 51.39 217.109 49.9733 216.95 48.5ZM253.888 48.5H278.912V74H271.84V51.56L275.036 54.756H257.832L260.79 52.41C260.971 53.906 261.096 55.3453 261.164 56.728C261.232 58.088 261.266 59.38 261.266 60.604C261.266 63.868 260.971 66.5313 260.382 68.594C259.792 70.634 258.863 72.13 257.594 73.082C256.324 74.034 254.681 74.51 252.664 74.51C251.78 74.51 250.907 74.4193 250.046 74.238C249.207 74.0567 248.436 73.7847 247.734 73.422V67.574C248.731 67.9593 249.649 68.152 250.488 68.152C251.961 68.152 253.015 67.4833 253.65 66.146C254.307 64.8087 254.636 62.6213 254.636 59.584C254.636 58.1107 254.568 56.456 254.432 54.62C254.318 52.784 254.137 50.744 253.888 48.5ZM303.222 59.822V64.82H292.58L292.546 64.684C290.596 64.684 288.885 64.3553 287.412 63.698C285.961 63.0407 284.828 62.1113 284.012 60.91C283.218 59.7087 282.822 58.3033 282.822 56.694C282.822 55.0393 283.218 53.6113 284.012 52.41C284.828 51.186 285.961 50.234 287.412 49.554C288.885 48.8513 290.596 48.5 292.546 48.5H308.118V74H301.046V50.37L304.208 53.532H293.566C292.41 53.532 291.503 53.8153 290.846 54.382C290.211 54.926 289.894 55.6967 289.894 56.694C289.894 57.6687 290.211 58.4393 290.846 59.006C291.503 59.55 292.41 59.822 293.566 59.822H303.222ZM299.006 62.066L290.302 74H282.142L291.118 62.066H299.006ZM333.292 74.544C330.595 74.544 328.226 74.17 326.186 73.422C324.169 72.674 322.593 71.6087 321.46 70.226C320.349 68.8433 319.749 67.2227 319.658 65.364H326.73C326.889 66.588 327.523 67.5287 328.634 68.186C329.745 68.8207 331.297 69.138 333.292 69.138C335.173 69.138 336.624 68.8887 337.644 68.39C338.664 67.8687 339.174 67.098 339.174 66.078C339.174 65.194 338.732 64.548 337.848 64.14C336.987 63.732 335.559 63.528 333.564 63.528H328.906V58.87H333.462C334.641 58.87 335.604 58.768 336.352 58.564C337.1 58.3373 337.655 58.02 338.018 57.612C338.403 57.204 338.596 56.728 338.596 56.184C338.596 55.572 338.381 55.062 337.95 54.654C337.542 54.2233 336.941 53.906 336.148 53.702C335.377 53.4753 334.437 53.362 333.326 53.362C331.49 53.362 330.051 53.6793 329.008 54.314C327.965 54.926 327.353 55.81 327.172 56.966H320.168C320.304 55.2887 320.893 53.77 321.936 52.41C323.001 51.05 324.52 49.9733 326.492 49.18C328.464 48.364 330.855 47.956 333.666 47.956C336.091 47.956 338.211 48.262 340.024 48.874C341.837 49.4633 343.243 50.302 344.24 51.39C345.26 52.4553 345.77 53.702 345.77 55.13C345.77 56.286 345.419 57.34 344.716 58.292C344.036 59.244 342.948 60.0033 341.452 60.57C339.979 61.1367 338.063 61.42 335.706 61.42V60.706C337.927 60.5927 339.831 60.74 341.418 61.148C343.027 61.556 344.263 62.2133 345.124 63.12C345.985 64.0267 346.416 65.194 346.416 66.622C346.416 68.1633 345.906 69.5347 344.886 70.736C343.866 71.9147 342.381 72.844 340.432 73.524C338.483 74.204 336.103 74.544 333.292 74.544ZM387.374 48.5V74H380.676V51.016L382.172 51.186L372.312 74H365.172L355.278 51.254L356.808 51.084V74H350.11V48.5H360.99L370.136 70.396H367.416L376.494 48.5H387.374ZM392.146 48.5H399.184V74H392.146V48.5ZM403.933 48.5H410.971V74H403.933V48.5ZM423.993 48.5H431.065V74H423.993V48.5ZM407.877 57.918H426.917V64.174H407.877V57.918ZM435.841 74V48.5H442.777V70.294L440.839 69.852L455.289 48.5H464.503V74H457.533V51.798L459.505 52.24L444.783 74H435.841ZM241.702 104.324C241.453 106.568 240.682 108.54 239.39 110.24C238.098 111.917 236.398 113.221 234.29 114.15C232.205 115.079 229.802 115.544 227.082 115.544C224.113 115.544 221.517 114.989 219.296 113.878C217.075 112.767 215.341 111.215 214.094 109.22C212.87 107.225 212.258 104.902 212.258 102.25C212.258 99.598 212.87 97.2747 214.094 95.28C215.341 93.2853 217.075 91.7327 219.296 90.622C221.517 89.5113 224.113 88.956 227.082 88.956C229.802 88.956 232.205 89.4207 234.29 90.35C236.398 91.2793 238.098 92.594 239.39 94.294C240.682 95.9713 241.453 97.932 241.702 100.176H234.63C234.403 99.088 233.961 98.17 233.304 97.422C232.647 96.6513 231.785 96.062 230.72 95.654C229.677 95.246 228.465 95.042 227.082 95.042C225.495 95.042 224.124 95.3367 222.968 95.926C221.812 96.4927 220.928 97.32 220.316 98.408C219.704 99.4733 219.398 100.754 219.398 102.25C219.398 103.746 219.704 105.038 220.316 106.126C220.928 107.191 221.812 108.019 222.968 108.608C224.124 109.175 225.495 109.458 227.082 109.458C228.465 109.458 229.677 109.265 230.72 108.88C231.785 108.495 232.647 107.917 233.304 107.146C233.961 106.375 234.403 105.435 234.63 104.324H241.702ZM265.012 111.124V105.548H273.376C274.306 105.548 275.099 105.401 275.756 105.106C276.414 104.789 276.924 104.335 277.286 103.746C277.649 103.157 277.83 102.454 277.83 101.638C277.83 100.822 277.649 100.119 277.286 99.53C276.924 98.9407 276.414 98.4987 275.756 98.204C275.099 97.8867 274.306 97.728 273.376 97.728H265.046V92.152H273.784C276.096 92.152 278.08 92.5487 279.734 93.342C281.412 94.1353 282.692 95.2347 283.576 96.64C284.483 98.0453 284.936 99.7113 284.936 101.638C284.936 103.542 284.483 105.208 283.576 106.636C282.692 108.041 281.412 109.141 279.734 109.934C278.08 110.727 276.096 111.124 273.784 111.124H265.012ZM254.778 111.124C252.466 111.124 250.472 110.727 248.794 109.934C247.14 109.141 245.859 108.041 244.952 106.636C244.068 105.208 243.626 103.542 243.626 101.638C243.626 99.7113 244.068 98.0453 244.952 96.64C245.859 95.2347 247.14 94.1353 248.794 93.342C250.472 92.5487 252.466 92.152 254.778 92.152H263.482V97.728H255.152C254.246 97.728 253.464 97.8867 252.806 98.204C252.149 98.4987 251.639 98.9407 251.276 99.53C250.914 100.119 250.732 100.822 250.732 101.638C250.732 102.454 250.914 103.157 251.276 103.746C251.639 104.335 252.149 104.789 252.806 105.106C253.464 105.401 254.246 105.548 255.152 105.548H263.516V111.124H254.778ZM260.762 115.85V88.65H267.8V115.85H260.762ZM309.748 99.7V104.8H291.082V99.7H309.748ZM295.876 102.25L294.21 112.484L291.354 109.288H310.87V115H287.172L289.11 102.25L287.172 89.5H310.7V95.212H291.354L294.21 92.016L295.876 102.25ZM329.262 89.5C331.393 89.5 333.229 89.8627 334.77 90.588C336.334 91.3133 337.524 92.3447 338.34 93.682C339.156 94.9967 339.564 96.538 339.564 98.306C339.564 100.051 339.156 101.593 338.34 102.93C337.524 104.245 336.334 105.265 334.77 105.99C333.229 106.715 331.393 107.078 329.262 107.078H318.212V101.434H328.82C329.954 101.434 330.838 101.162 331.472 100.618C332.107 100.051 332.424 99.2807 332.424 98.306C332.424 97.3087 332.107 96.538 331.472 95.994C330.838 95.4273 329.954 95.144 328.82 95.144H318.824L321.986 91.88V115H314.948V89.5H329.262ZM342.64 115V89.5H349.576V111.294L347.638 110.852L362.088 89.5H371.302V115H364.332V92.798L366.304 93.24L351.582 115H342.64Z" fill="#95D4F8"/>
</svg>
