<svg width="480" height="402" viewBox="0 0 480 402" fill="none" xmlns="http://www.w3.org/2000/svg">
<path d="M1.67248 401.999H74.1968H199.024V363.998V325.997H361.812L328.362 401.999H480L446.325 157H480V0.0898438H388L367 87H0.557495V272.024H48.8557L28.4321 325.997L1.67248 401.999Z" fill="#3FAD78"/>
<path d="M30.702 22.324C30.4527 24.568 29.682 26.54 28.39 28.24C27.098 29.9173 25.398 31.2207 23.29 32.15C21.2047 33.0793 18.802 33.544 16.082 33.544C13.1127 33.544 10.5173 32.9887 8.296 31.878C6.07467 30.7673 4.34067 29.2147 3.094 27.22C1.87 25.2253 1.258 22.902 1.258 20.25C1.258 17.598 1.87 15.2747 3.094 13.28C4.34067 11.2853 6.07467 9.73267 8.296 8.622C10.5173 7.51133 13.1127 6.956 16.082 6.956C18.802 6.956 21.2047 7.42067 23.29 8.35C25.398 9.27933 27.098 10.594 28.39 12.294C29.682 13.9713 30.4527 15.932 30.702 18.176H23.63C23.4033 17.088 22.9613 16.17 22.304 15.422C21.6467 14.6513 20.7853 14.062 19.72 13.654C18.6773 13.246 17.4647 13.042 16.082 13.042C14.4953 13.042 13.124 13.3367 11.968 13.926C10.812 14.4927 9.928 15.32 9.316 16.408C8.704 17.4733 8.398 18.754 8.398 20.25C8.398 21.746 8.704 23.038 9.316 24.126C9.928 25.1913 10.812 26.0187 11.968 26.608C13.124 27.1747 14.4953 27.458 16.082 27.458C17.4647 27.458 18.6773 27.2653 19.72 26.88C20.7853 26.4947 21.6467 25.9167 22.304 25.146C22.9613 24.3753 23.4033 23.4347 23.63 22.324H30.702ZM61.1182 7.5V33H54.0802V10.56L57.2422 13.756L37.9982 13.756L41.1602 10.56V33H34.1222V7.5L61.1182 7.5ZM87.6584 17.7V22.8H68.9924V17.7H87.6584ZM73.7864 20.25L72.1204 30.484L69.2644 27.288H88.7804V33L65.0824 33L67.0204 20.25L65.0824 7.5L88.6104 7.5V13.212L69.2644 13.212L72.1204 10.016L73.7864 20.25ZM119.583 7.5V29.056L117.067 26.744H124.003V38.134H117.373V31.674L119.311 33H92.8585V7.5L99.8965 7.5V29.056L97.6185 26.744L115.027 26.744L112.545 29.056V7.5H119.583ZM127.357 7.5L134.395 7.5V33H127.357V7.5ZM144.108 28.104V22.426H161.686V28.104H144.108ZM157.674 7.5L169.268 33H161.754L152.03 10.492H154.07L144.312 33H136.798L148.392 7.5H157.674ZM175.933 7.5L200.957 7.5V33H193.885V10.56L197.081 13.756L179.877 13.756L182.835 11.41C183.016 12.906 183.141 14.3453 183.209 15.728C183.277 17.088 183.311 18.38 183.311 19.604C183.311 22.868 183.016 25.5313 182.427 27.594C181.837 29.634 180.908 31.13 179.639 32.082C178.369 33.034 176.726 33.51 174.709 33.51C173.825 33.51 172.952 33.4193 172.091 33.238C171.252 33.0567 170.481 32.7847 169.779 32.422V26.574C170.776 26.9593 171.694 27.152 172.533 27.152C174.006 27.152 175.06 26.4833 175.695 25.146C176.352 23.8087 176.681 21.6213 176.681 18.584C176.681 17.1107 176.613 15.456 176.477 13.62C176.363 11.784 176.182 9.744 175.933 7.5ZM205.683 7.5H212.721V33L205.683 33V7.5ZM245.792 22.324C245.542 24.568 244.772 26.54 243.48 28.24C242.188 29.9173 240.488 31.2207 238.38 32.15C236.294 33.0793 233.892 33.544 231.172 33.544C228.202 33.544 225.607 32.9887 223.386 31.878C221.164 30.7673 219.43 29.2147 218.184 27.22C216.96 25.2253 216.348 22.902 216.348 20.25C216.348 17.598 216.96 15.2747 218.184 13.28C219.43 11.2853 221.164 9.73267 223.386 8.622C225.607 7.51133 228.202 6.956 231.172 6.956C233.892 6.956 236.294 7.42067 238.38 8.35C240.488 9.27933 242.188 10.594 243.48 12.294C244.772 13.9713 245.542 15.932 245.792 18.176L238.72 18.176C238.493 17.088 238.051 16.17 237.394 15.422C236.736 14.6513 235.875 14.062 234.81 13.654C233.767 13.246 232.554 13.042 231.172 13.042C229.585 13.042 228.214 13.3367 227.058 13.926C225.902 14.4927 225.018 15.32 224.406 16.408C223.794 17.4733 223.488 18.754 223.488 20.25C223.488 21.746 223.794 23.038 224.406 24.126C225.018 25.1913 225.902 26.0187 227.058 26.608C228.214 27.1747 229.585 27.458 231.172 27.458C232.554 27.458 233.767 27.2653 234.81 26.88C235.875 26.4947 236.736 25.9167 237.394 25.146C238.051 24.3753 238.493 23.4347 238.72 22.324L245.792 22.324ZM256.239 10.594L263.311 10.594V33H256.239V10.594ZM246.515 7.5L273.035 7.5V13.756L246.515 13.756V7.5ZM276.953 28.104V22.426H294.531V28.104H276.953ZM290.519 7.5L302.113 33H294.599L284.875 10.492H286.915L277.157 33H269.643L281.237 7.5L290.519 7.5ZM341.792 7.5V33H335.094V10.016L336.59 10.186L326.73 33H319.59L309.696 10.254L311.226 10.084V33H304.528V7.5H315.408L324.554 29.396H321.834L330.912 7.5L341.792 7.5ZM0.646 79.134L0.646 67.778H6.154L8.398 67.846H26.078L27.846 67.778H35.258V79.134H28.662V74H7.242V79.134H0.646ZM5.95 48.5H30.872V72.028H23.8V51.458L26.996 54.654H9.69L12.614 52.308C12.7953 53.3507 12.8973 54.3593 12.92 55.334C12.9653 56.3087 12.988 57.238 12.988 58.122C12.988 60.774 12.75 63.0067 12.274 64.82C11.8207 66.6333 11.1293 68.0047 10.2 68.934C9.29333 69.8633 8.14867 70.328 6.766 70.328L3.808 67.88C4.71467 66.8147 5.38333 65.364 5.814 63.528C6.24467 61.6693 6.46 59.38 6.46 56.66C6.46 55.4133 6.41467 54.11 6.324 52.75C6.23333 51.39 6.10867 49.9733 5.95 48.5ZM42.8878 48.5H67.9118V74H60.8398L60.8398 51.56L64.0358 54.756H46.8318L49.7898 52.41C49.9711 53.906 50.0958 55.3453 50.1638 56.728C50.2318 58.088 50.2658 59.38 50.2658 60.604C50.2658 63.868 49.9711 66.5313 49.3818 68.594C48.7925 70.634 47.8631 72.13 46.5938 73.082C45.3245 74.034 43.6811 74.51 41.6638 74.51C40.7798 74.51 39.9071 74.4193 39.0458 74.238C38.2071 74.0567 37.4365 73.7847 36.7338 73.422V67.574C37.7311 67.9593 38.6491 68.152 39.4878 68.152C40.9611 68.152 42.0151 67.4833 42.6498 66.146C43.3071 64.8087 43.6358 62.6213 43.6358 59.584C43.6358 58.1107 43.5678 56.456 43.4318 54.62C43.3185 52.784 43.1371 50.744 42.8878 48.5ZM92.2218 59.822V64.82H81.5798L81.5458 64.684C79.5965 64.684 77.8851 64.3553 76.4118 63.698C74.9611 63.0407 73.8278 62.1113 73.0118 60.91C72.2185 59.7087 71.8218 58.3033 71.8218 56.694C71.8218 55.0393 72.2185 53.6113 73.0118 52.41C73.8278 51.186 74.9611 50.234 76.4118 49.554C77.8851 48.8513 79.5965 48.5 81.5458 48.5H97.1178V74H90.0458V50.37L93.2078 53.532H82.5658C81.4098 53.532 80.5031 53.8153 79.8458 54.382C79.2111 54.926 78.8938 55.6967 78.8938 56.694C78.8938 57.6687 79.2111 58.4393 79.8458 59.006C80.5031 59.55 81.4098 59.822 82.5658 59.822H92.2218ZM88.0058 62.066L79.3018 74H71.1418L80.1178 62.066H88.0058ZM124.604 48.5C126.735 48.5 128.571 48.8627 130.112 49.588C131.676 50.3133 132.866 51.3447 133.682 52.682C134.498 53.9967 134.906 55.538 134.906 57.306C134.906 59.0513 134.498 60.5927 133.682 61.93C132.866 63.2447 131.676 64.2647 130.112 64.99C128.571 65.7153 126.735 66.078 124.604 66.078H113.554V60.434H124.162C125.295 60.434 126.179 60.162 126.814 59.618C127.449 59.0513 127.766 58.2807 127.766 57.306C127.766 56.3087 127.449 55.538 126.814 54.994C126.179 54.4273 125.295 54.144 124.162 54.144H114.166L117.328 50.88V74H110.29V48.5H124.604ZM151.99 74.544C148.975 74.544 146.323 73.9887 144.034 72.878C141.767 71.7673 139.999 70.2147 138.73 68.22C137.483 66.2253 136.86 63.902 136.86 61.25C136.86 58.598 137.483 56.2747 138.73 54.28C139.999 52.2853 141.767 50.7327 144.034 49.622C146.323 48.5113 148.975 47.956 151.99 47.956C155.027 47.956 157.679 48.5113 159.946 49.622C162.212 50.7327 163.98 52.2853 165.25 54.28C166.519 56.2747 167.154 58.598 167.154 61.25C167.154 63.902 166.519 66.2253 165.25 68.22C163.98 70.2147 162.212 71.7673 159.946 72.878C157.679 73.9887 155.027 74.544 151.99 74.544ZM151.99 68.254C153.644 68.254 155.072 67.9707 156.274 67.404C157.475 66.8373 158.393 66.0327 159.028 64.99C159.685 63.9473 160.014 62.7007 160.014 61.25C160.014 59.7993 159.685 58.5527 159.028 57.51C158.393 56.4673 157.475 55.6627 156.274 55.096C155.072 54.5293 153.644 54.246 151.99 54.246C150.358 54.246 148.941 54.5293 147.74 55.096C146.538 55.6627 145.609 56.4673 144.952 57.51C144.294 58.5527 143.966 59.7993 143.966 61.25C143.966 62.7007 144.294 63.9473 144.952 64.99C145.609 66.0327 146.538 66.8373 147.74 67.404C148.941 67.9707 150.358 68.254 151.99 68.254ZM182.788 74.544C180.091 74.544 177.722 74.17 175.682 73.422C173.665 72.674 172.09 71.6087 170.956 70.226C169.846 68.8433 169.245 67.2227 169.154 65.364H176.226C176.385 66.588 177.02 67.5287 178.13 68.186C179.241 68.8207 180.794 69.138 182.788 69.138C184.67 69.138 186.12 68.8887 187.14 68.39C188.16 67.8687 188.67 67.098 188.67 66.078C188.67 65.194 188.228 64.548 187.344 64.14C186.483 63.732 185.055 63.528 183.06 63.528H178.402V58.87H182.958C184.137 58.87 185.1 58.768 185.848 58.564C186.596 58.3373 187.152 58.02 187.514 57.612C187.9 57.204 188.092 56.728 188.092 56.184C188.092 55.572 187.877 55.062 187.446 54.654C187.038 54.2233 186.438 53.906 185.644 53.702C184.874 53.4753 183.933 53.362 182.822 53.362C180.986 53.362 179.547 53.6793 178.504 54.314C177.462 54.926 176.85 55.81 176.668 56.966H169.664C169.8 55.2887 170.39 53.77 171.432 52.41C172.498 51.05 174.016 49.9733 175.988 49.18C177.96 48.364 180.352 47.956 183.162 47.956C185.588 47.956 187.707 48.262 189.52 48.874C191.334 49.4633 192.739 50.302 193.736 51.39C194.756 52.4553 195.266 53.702 195.266 55.13C195.266 56.286 194.915 57.34 194.212 58.292C193.532 59.244 192.444 60.0033 190.948 60.57C189.475 61.1367 187.56 61.42 185.202 61.42V60.706C187.424 60.5927 189.328 60.74 190.914 61.148C192.524 61.556 193.759 62.2133 194.62 63.12C195.482 64.0267 195.912 65.194 195.912 66.622C195.912 68.1633 195.402 69.5347 194.382 70.736C193.362 71.9147 191.878 72.844 189.928 73.524C187.979 74.204 185.599 74.544 182.788 74.544ZM216.879 61.522L217.457 60.196C219.429 60.2413 221.049 60.5473 222.319 61.114C223.611 61.658 224.574 62.4287 225.209 63.426C225.843 64.4007 226.161 65.534 226.161 66.826C226.161 68.2087 225.843 69.444 225.209 70.532C224.574 71.5973 223.622 72.4473 222.353 73.082C221.106 73.694 219.542 74 217.661 74H198.825L200.797 60.91L198.825 48.5L216.981 48.5C219.338 48.5 221.174 49.0553 222.489 50.166C223.803 51.254 224.461 52.7727 224.461 54.722C224.461 55.7873 224.211 56.8073 223.713 57.782C223.214 58.7567 222.409 59.584 221.299 60.264C220.211 60.9213 218.737 61.3407 216.879 61.522ZM205.795 72.368L203.075 69.07H215.757C216.777 69.07 217.57 68.8207 218.137 68.322C218.703 67.8233 218.987 67.132 218.987 66.248C218.987 65.364 218.681 64.6613 218.069 64.14C217.457 63.596 216.55 63.324 215.349 63.324L204.877 63.324V58.496L214.397 58.496C215.213 58.496 215.893 58.258 216.437 57.782C217.003 57.2833 217.287 56.6147 217.287 55.776C217.287 55.096 217.049 54.5407 216.573 54.11C216.097 53.6567 215.417 53.43 214.533 53.43L203.109 53.43L205.795 50.132L207.529 60.91L205.795 72.368ZM229.622 74V48.5H236.558V70.294L234.62 69.852L249.07 48.5H258.284V74H251.314V51.798L253.286 52.24L238.564 74H229.622ZM271.048 51.594H278.12V74H271.048V51.594ZM261.324 48.5H287.844V54.756H261.324V48.5ZM290.882 74V48.5H297.886V68.39L296.016 66.928L310.466 48.5H317.912L297.24 74H290.882ZM303.054 61.828L308.222 57.544L318.252 74H310.262L303.054 61.828ZM326.484 74L331.074 66.01H331.176L341.138 48.5L348.788 48.5L334.134 74H326.484ZM330.972 70.566L318.222 48.5H326.008L335.97 65.84L330.972 70.566Z" fill="#3FAD78"/>
</svg>
