<svg width="1820" height="543" viewBox="0 0 1820 543" fill="none" xmlns="http://www.w3.org/2000/svg">
<path d="M304.637 237.204L279.135 0.00264702L0 342.437V404.991V454H333.5H353L333.5 543H538.442H688.508H1266.17H1820L1678.87 306.328L1564.49 341.794L1347.11 121.889L1458.81 459.809L1022.05 341.794L1222.03 0.00264702L425.402 210.884L688.508 0.00264702L406.674 0L304.637 237.204Z" fill="#6D61FF"/>
<rect width="323" height="78" transform="translate(0 465)" fill="#E3B7F5"/>
<path d="M30.848 501.624H32.64L39.552 492.28H44.544L36.384 503.256L45.28 515H40.352L33.056 505.592H30.848V515H26.464V492.28H30.848V501.624ZM56.3848 515.16C54.7208 515.16 53.2061 514.84 51.8408 514.2C50.4968 513.539 49.3341 512.675 48.3527 511.608C47.3927 510.52 46.6461 509.283 46.1127 507.896C45.5794 506.509 45.3127 505.091 45.3127 503.64C45.3127 502.125 45.5901 500.675 46.1447 499.288C46.7207 497.901 47.4994 496.675 48.4808 495.608C49.4834 494.541 50.6674 493.699 52.0328 493.08C53.3981 492.44 54.8808 492.12 56.4808 492.12C58.1234 492.12 59.6168 492.461 60.9608 493.144C62.3261 493.805 63.4888 494.68 64.4488 495.768C65.4088 496.856 66.1554 498.093 66.6888 499.48C67.2221 500.867 67.4888 502.275 67.4888 503.704C67.4888 505.219 67.2114 506.669 66.6568 508.056C66.1021 509.421 65.3341 510.637 64.3528 511.704C63.3714 512.749 62.1981 513.592 60.8328 514.232C59.4674 514.851 57.9848 515.16 56.3848 515.16ZM49.7927 503.64C49.7927 504.621 49.9421 505.571 50.2407 506.488C50.5394 507.405 50.9661 508.216 51.5208 508.92C52.0968 509.624 52.7901 510.189 53.6007 510.616C54.4328 511.043 55.3714 511.256 56.4167 511.256C57.4834 511.256 58.4221 511.043 59.2327 510.616C60.0648 510.168 60.7581 509.581 61.3127 508.856C61.8888 508.131 62.3154 507.32 62.5928 506.424C62.8914 505.507 63.0408 504.579 63.0408 503.64C63.0408 502.659 62.8808 501.709 62.5608 500.792C62.2621 499.875 61.8248 499.064 61.2488 498.36C60.6941 497.656 60.0008 497.101 59.1688 496.696C58.3581 496.269 57.4408 496.056 56.4167 496.056C55.3501 496.056 54.4008 496.28 53.5688 496.728C52.7368 497.155 52.0434 497.731 51.4887 498.456C50.9341 499.16 50.5074 499.971 50.2087 500.888C49.9314 501.784 49.7927 502.701 49.7927 503.64ZM90.3643 492.28V515H85.9802V505.304H75.6762V515H71.2602V492.28H75.6762V501.464H85.9802V492.28H90.3643ZM94.1395 503.48C94.1395 502.093 94.3848 500.728 94.8755 499.384C95.3875 498.019 96.1235 496.803 97.0835 495.736C98.0435 494.669 99.2168 493.805 100.603 493.144C101.99 492.483 103.569 492.152 105.339 492.152C107.43 492.152 109.233 492.611 110.747 493.528C112.284 494.445 113.425 495.64 114.171 497.112L110.779 499.448C110.481 498.808 110.118 498.275 109.691 497.848C109.265 497.4 108.806 497.048 108.316 496.792C107.825 496.536 107.313 496.355 106.78 496.248C106.246 496.12 105.723 496.056 105.211 496.056C104.102 496.056 103.131 496.28 102.299 496.728C101.489 497.176 100.806 497.763 100.251 498.488C99.7182 499.192 99.3128 500.003 99.0355 500.92C98.7582 501.816 98.6195 502.712 98.6195 503.608C98.6195 504.611 98.7795 505.581 99.0995 506.52C99.4195 507.437 99.8675 508.248 100.443 508.952C101.041 509.656 101.745 510.221 102.555 510.648C103.387 511.075 104.294 511.288 105.275 511.288C105.787 511.288 106.321 511.224 106.875 511.096C107.43 510.968 107.953 510.765 108.443 510.488C108.955 510.211 109.425 509.859 109.851 509.432C110.278 508.984 110.62 508.451 110.875 507.832L114.492 509.912C114.129 510.765 113.606 511.523 112.924 512.184C112.262 512.824 111.505 513.368 110.652 513.816C109.819 514.264 108.923 514.605 107.964 514.84C107.003 515.075 106.065 515.192 105.148 515.192C103.526 515.192 102.043 514.851 100.699 514.168C99.3555 513.485 98.1928 512.6 97.2115 511.512C96.2515 510.403 95.4942 509.155 94.9395 507.768C94.4062 506.36 94.1395 504.931 94.1395 503.48ZM121.549 515.224C121.314 515.224 121.058 515.203 120.781 515.16C120.504 515.139 120.216 515.096 119.917 515.032C119.618 514.968 119.32 514.883 119.021 514.776C118.744 514.669 118.498 514.541 118.285 514.392L118.861 510.744C119.096 510.872 119.416 511.021 119.821 511.192C120.248 511.341 120.685 511.416 121.133 511.416C121.752 511.416 122.285 511.245 122.733 510.904C123.202 510.541 123.608 509.901 123.949 508.984L115.597 492.28H120.365L125.933 504.536L131.117 492.28H135.757L127.757 509.56C127.288 510.584 126.829 511.459 126.381 512.184C125.933 512.888 125.464 513.475 124.973 513.944C124.504 514.392 123.992 514.723 123.437 514.936C122.882 515.128 122.253 515.224 121.549 515.224ZM143.045 499.608C142.811 502.531 142.491 504.984 142.085 506.968C141.68 508.952 141.125 510.563 140.421 511.8C139.717 513.016 138.843 513.891 137.797 514.424C136.752 514.957 135.472 515.224 133.957 515.224L133.701 511.256C134.427 511.192 135.056 511.011 135.589 510.712C136.144 510.413 136.613 509.827 136.997 508.952C137.403 508.077 137.744 506.829 138.021 505.208C138.299 503.565 138.555 501.389 138.789 498.68L139.333 492.28H153.093V515H148.709V496.152H143.333L143.045 499.608ZM158.384 492.28H162.768V500.28H167.12C168.272 500.28 169.328 500.44 170.288 500.76C171.269 501.08 172.112 501.549 172.816 502.168C173.52 502.787 174.064 503.555 174.448 504.472C174.832 505.368 175.024 506.403 175.024 507.576C175.024 508.771 174.832 509.827 174.448 510.744C174.064 511.661 173.52 512.44 172.816 513.08C172.133 513.699 171.312 514.179 170.352 514.52C169.413 514.84 168.389 515 167.28 515H158.384V492.28ZM162.768 511.256H166.864C168.101 511.256 169.029 510.925 169.648 510.264C170.267 509.603 170.576 508.696 170.576 507.544C170.576 506.456 170.256 505.571 169.616 504.888C168.976 504.184 168.059 503.832 166.864 503.832H162.768V511.256ZM192.819 496.152H185.555V515H181.171V496.152H173.907V492.28H192.819V496.152ZM200.173 492.28H204.077L212.717 515H208.173L206.061 509.336H198.125L196.045 515H191.501L200.173 492.28ZM205.261 506.232L202.125 497.304L198.861 506.232H205.261ZM232.521 515H215.657V492.28H220.041V511.128H228.905V492.28H233.289V511.128H236.681V520.664H232.521V515ZM240.039 515V492.28H244.455V515H240.039ZM261.511 515V506.584H257.895L252.775 515H247.911L253.479 506.04C252.177 505.507 251.132 504.653 250.343 503.48C249.553 502.307 249.159 500.952 249.159 499.416C249.159 498.456 249.34 497.549 249.703 496.696C250.065 495.843 250.567 495.085 251.207 494.424C251.847 493.763 252.604 493.24 253.479 492.856C254.375 492.472 255.345 492.28 256.391 492.28H265.895V515H261.511ZM261.511 496.056H256.871C256.444 496.056 256.039 496.141 255.655 496.312C255.271 496.461 254.919 496.685 254.599 496.984C254.3 497.261 254.055 497.613 253.863 498.04C253.692 498.445 253.607 498.904 253.607 499.416C253.607 500.44 253.905 501.261 254.503 501.88C255.121 502.499 255.879 502.808 256.775 502.808H261.511V496.056Z" fill="#040000"/>
<path d="M286 513.5L304 495.5M304 495.5V509.5M304 495.5H290.5" stroke="#040000" stroke-width="3"/>
<path d="M319.526 465.5H339.379L323.308 539.24L319.526 465.5Z" fill="#E3B7F5" stroke="#E3B7F5"/>
</svg>
