<svg width="376" height="434" viewBox="0 0 376 434" fill="none" xmlns="http://www.w3.org/2000/svg">
<path d="M134 188L153 0H43.1455V78.4076L0.5 0V247.153V373H250.5L236.5 434H375.5L357.5 378.148L333 308.792H288.5L375.5 0H212.5L134 188Z" fill="#6D61FF"/>
<rect width="227.756" height="54" transform="translate(1 380)" fill="#E3B7F5"/>
<path d="M18.672 415V399.38H21.686V405.672H23.226L27.868 399.38H31.256L25.58 406.948L31.696 415H28.022L23.182 408.422H21.686V415H18.672ZM39.7581 415.11C38.6141 415.11 37.5728 414.89 36.6341 414.45C35.7101 414.01 34.9108 413.416 34.2361 412.668C33.5761 411.905 33.0628 411.055 32.6961 410.116C32.3295 409.163 32.1461 408.187 32.1461 407.19C32.1461 406.149 32.3368 405.159 32.7181 404.22C33.1141 403.267 33.6495 402.423 34.3241 401.69C35.0135 400.942 35.8201 400.355 36.7441 399.93C37.6828 399.49 38.7095 399.27 39.8241 399.27C40.9535 399.27 41.9801 399.497 42.9041 399.952C43.8428 400.407 44.6421 401.015 45.3021 401.778C45.9621 402.541 46.4755 403.391 46.8421 404.33C47.2088 405.269 47.3921 406.237 47.3921 407.234C47.3921 408.261 47.2015 409.251 46.8201 410.204C46.4388 411.143 45.9035 411.986 45.2141 412.734C44.5395 413.467 43.7328 414.047 42.7941 414.472C41.8701 414.897 40.8581 415.11 39.7581 415.11ZM35.2261 407.19C35.2261 407.865 35.3288 408.517 35.5341 409.148C35.7395 409.779 36.0328 410.343 36.4141 410.842C36.8101 411.326 37.2868 411.715 37.8441 412.008C38.4161 412.287 39.0615 412.426 39.7801 412.426C40.5135 412.426 41.1661 412.279 41.7381 411.986C42.3101 411.678 42.7868 411.275 43.1681 410.776C43.5495 410.263 43.8355 409.698 44.0261 409.082C44.2315 408.451 44.3341 407.821 44.3341 407.19C44.3341 406.515 44.2241 405.87 44.0041 405.254C43.7988 404.623 43.4981 404.066 43.1021 403.582C42.7208 403.083 42.2441 402.695 41.6721 402.416C41.1148 402.123 40.4841 401.976 39.7801 401.976C39.0321 401.976 38.3721 402.13 37.8001 402.438C37.2428 402.731 36.7735 403.127 36.3921 403.626C36.0108 404.125 35.7175 404.682 35.5121 405.298C35.3215 405.914 35.2261 406.545 35.2261 407.19ZM63.075 399.38V415H60.061V408.334H52.977V415H49.941V399.38H52.977V405.694H60.061V399.38H63.075ZM65.6076 407.08C65.6076 406.127 65.7763 405.195 66.1136 404.286C66.4656 403.362 66.9716 402.526 67.6316 401.778C68.2916 401.015 69.0983 400.414 70.0516 399.974C71.005 399.519 72.0903 399.292 73.3076 399.292C74.745 399.292 75.9843 399.607 77.0256 400.238C78.0816 400.869 78.8663 401.69 79.3796 402.702L77.0476 404.308C76.7836 403.721 76.439 403.259 76.0136 402.922C75.5883 402.57 75.1336 402.328 74.6496 402.196C74.1656 402.049 73.689 401.976 73.2196 401.976C72.457 401.976 71.7896 402.13 71.2176 402.438C70.6603 402.746 70.191 403.149 69.8096 403.648C69.4283 404.147 69.1423 404.704 68.9516 405.32C68.7756 405.936 68.6876 406.552 68.6876 407.168C68.6876 407.857 68.7976 408.525 69.0176 409.17C69.2376 409.801 69.5456 410.365 69.9416 410.864C70.3523 411.348 70.8363 411.737 71.3936 412.03C71.9656 412.309 72.589 412.448 73.2636 412.448C73.7476 412.448 74.239 412.367 74.7376 412.206C75.2363 412.045 75.6983 411.788 76.1236 411.436C76.549 411.084 76.879 410.629 77.1136 410.072L79.5996 411.502C79.2916 412.279 78.7856 412.939 78.0816 413.482C77.3923 414.025 76.615 414.435 75.7496 414.714C74.8843 414.993 74.0263 415.132 73.1756 415.132C72.061 415.132 71.0416 414.905 70.1176 414.45C69.1936 413.981 68.3943 413.365 67.7196 412.602C67.0596 411.825 66.539 410.959 66.1576 410.006C65.791 409.038 65.6076 408.063 65.6076 407.08ZM83.3737 415.11V412.602H84.6057C84.987 412.602 85.273 412.521 85.4637 412.36C85.6543 412.199 85.823 411.942 85.9697 411.59L86.3217 410.82L80.1177 399.38H83.4617L87.6637 407.74L91.3157 399.38H94.5057L88.2797 413.02C87.8983 413.797 87.4657 414.34 86.9817 414.648C86.4977 414.956 85.8523 415.11 85.0457 415.11H83.3737ZM106.07 415V402.042H101.494L101.406 404.682C101.333 406.75 101.164 408.459 100.9 409.808C100.636 411.157 100.255 412.221 99.7564 412.998C99.2578 413.761 98.6271 414.303 97.8644 414.626C97.1164 414.934 96.2144 415.088 95.1584 415.088V412.47C95.7011 412.47 96.1704 412.353 96.5664 412.118C96.9624 411.883 97.2924 411.458 97.5564 410.842C97.8351 410.226 98.0551 409.353 98.2164 408.224C98.3778 407.095 98.4878 405.635 98.5464 403.846L98.7004 399.38H109.084V415H106.07ZM112.633 415V399.38H115.647V404.968H118.859C120.017 404.968 120.993 405.173 121.785 405.584C122.591 405.995 123.2 406.574 123.611 407.322C124.036 408.055 124.249 408.928 124.249 409.94C124.249 410.937 124.043 411.817 123.633 412.58C123.237 413.343 122.65 413.937 121.873 414.362C121.095 414.787 120.149 415 119.035 415H112.633ZM115.647 412.536H118.617C119.203 412.536 119.687 412.419 120.069 412.184C120.45 411.949 120.729 411.641 120.905 411.26C121.081 410.864 121.169 410.424 121.169 409.94C121.169 409.515 121.081 409.111 120.905 408.73C120.743 408.349 120.472 408.041 120.091 407.806C119.724 407.557 119.225 407.432 118.595 407.432H115.647V412.536ZM138.391 402.042H133.397V415H130.383V402.042H125.389V399.38H138.391V402.042ZM143.357 399.38H146.437L152.179 415H149.055L147.603 411.106H142.147L140.717 415H137.593L143.357 399.38ZM147.053 408.972L144.897 402.526L142.653 408.972H147.053ZM165.75 417.97V415H154.112V399.38H157.148V412.338H163.33V399.38H166.344V412.338H168.412V417.97H165.75ZM170.961 415V399.38H173.997V415H170.961ZM177.058 415L180.886 408.73C179.918 408.407 179.155 407.85 178.598 407.058C178.055 406.251 177.784 405.298 177.784 404.198C177.784 403.274 178.004 402.453 178.444 401.734C178.884 401.001 179.492 400.429 180.27 400.018C181.047 399.593 181.956 399.38 182.998 399.38H189.092V415H186.078V409.104H184.494C184.406 409.104 184.31 409.104 184.208 409.104C184.12 409.104 184.032 409.104 183.944 409.104L180.468 415H177.058ZM183.35 406.508H186.078V401.954H183.394C182.939 401.954 182.514 402.042 182.118 402.218C181.736 402.379 181.428 402.629 181.194 402.966C180.974 403.289 180.864 403.699 180.864 404.198C180.864 404.697 180.966 405.122 181.172 405.474C181.377 405.811 181.67 406.068 182.052 406.244C182.433 406.42 182.866 406.508 183.35 406.508Z" fill="#040000"/>
<path d="M203.243 413.591L215.935 400.898M215.935 400.898V410.77M215.935 400.898H206.416" stroke="#040000" stroke-width="2"/>
<path d="M226.307 380.353H240.304L228.973 431.396L226.307 380.353Z" fill="#E3B7F5" stroke="#E3B7F5" stroke-width="0.705128"/>
</svg>
