<svg width="1820" height="543" viewBox="0 0 1820 543" fill="none" xmlns="http://www.w3.org/2000/svg">
<path d="M304.637 237.204L279.135 0.00264702L0 342.437V404.991V454H333.5H353L333.5 543H538.442H688.508H1266.17H1820L1678.87 306.328L1564.49 341.794L1347.11 121.889L1458.81 459.809L1022.05 341.794L1222.03 0.00264702L425.402 210.884L688.508 0.00264702L406.674 0L304.637 237.204Z" fill="#6D61FF"/>
<rect width="323" height="78" transform="translate(0 465)" fill="#E3B7F5"/>
<path d="M36.064 515.16C34.4 515.16 32.8853 514.84 31.52 514.2C30.176 513.56 29.0133 512.696 28.032 511.608C27.072 510.499 26.3253 509.261 25.792 507.896C25.2587 506.509 24.992 505.091 24.992 503.64C24.992 502.125 25.2693 500.685 25.824 499.32C26.4 497.933 27.1787 496.707 28.16 495.64C29.1627 494.552 30.336 493.699 31.68 493.08C33.0453 492.44 34.5387 492.12 36.16 492.12C37.8027 492.12 39.296 492.451 40.64 493.112C42.0053 493.773 43.168 494.659 44.128 495.768C45.088 496.877 45.8347 498.115 46.368 499.48C46.9013 500.845 47.168 502.253 47.168 503.704C47.168 505.197 46.8907 506.637 46.336 508.024C45.7813 509.389 45.0027 510.616 44 511.704C43.0187 512.771 41.8453 513.613 40.48 514.232C39.136 514.851 37.664 515.16 36.064 515.16ZM29.472 503.64C29.472 504.621 29.6213 505.571 29.92 506.488C30.2187 507.405 30.6453 508.227 31.2 508.952C31.776 509.656 32.4693 510.221 33.28 510.648C34.112 511.053 35.0507 511.256 36.096 511.256C37.1627 511.256 38.112 511.043 38.944 510.616C39.776 510.168 40.4693 509.581 41.024 508.856C41.5787 508.109 41.9947 507.288 42.272 506.392C42.5707 505.475 42.72 504.557 42.72 503.64C42.72 502.659 42.56 501.72 42.24 500.824C41.9413 499.907 41.504 499.096 40.928 498.392C40.3733 497.667 39.68 497.101 38.848 496.696C38.0373 496.269 37.12 496.056 36.096 496.056C35.008 496.056 34.048 496.28 33.216 496.728C32.4053 497.155 31.7227 497.731 31.168 498.456C30.6133 499.181 30.1867 499.992 29.888 500.888C29.6107 501.784 29.472 502.701 29.472 503.64ZM50.9395 515V492.28H67.3235V496.088H55.3235V501.56H61.4995C64.0382 501.56 65.9475 502.157 67.2275 503.352C68.5075 504.547 69.1475 506.147 69.1475 508.152C69.1475 509.496 68.8702 510.68 68.3155 511.704C67.7608 512.728 66.9395 513.539 65.8515 514.136C64.7635 514.712 63.3875 515 61.7235 515H50.9395ZM55.3235 511.192H61.1155C61.9688 511.192 62.6515 511.043 63.1635 510.744C63.6755 510.424 64.0488 510.029 64.2835 509.56C64.5182 509.069 64.6355 508.557 64.6355 508.024C64.6355 507.491 64.5288 507 64.3155 506.552C64.1235 506.083 63.7715 505.709 63.2595 505.432C62.7475 505.133 62.0115 504.984 61.0515 504.984H55.3235V511.192ZM72.5705 515V492.28H82.2025C83.2478 492.28 84.2078 492.493 85.0825 492.92C85.9572 493.347 86.7145 493.923 87.3545 494.648C88.0158 495.373 88.5278 496.184 88.8905 497.08C89.2532 497.976 89.4345 498.893 89.4345 499.832C89.4345 501.112 89.1358 502.328 88.5385 503.48C87.9412 504.632 87.1198 505.571 86.0745 506.296C85.0292 507.021 83.7918 507.384 82.3625 507.384H76.9865V515H72.5705ZM76.9865 503.512H82.1065C82.6398 503.512 83.1198 503.363 83.5465 503.064C83.9732 502.765 84.3145 502.339 84.5705 501.784C84.8265 501.208 84.9545 500.557 84.9545 499.832C84.9545 499.043 84.8052 498.371 84.5065 497.816C84.2292 497.261 83.8558 496.845 83.3865 496.568C82.9385 496.291 82.4478 496.152 81.9145 496.152H76.9865V503.512ZM97.3477 492.28H101.828L110.18 515H105.636L103.524 509.336H95.5877L93.5077 515H88.9637L97.3477 492.28ZM102.724 506.232L99.5877 496.856L96.3237 506.232H102.724ZM127.89 496.152H120.626V515H116.242V496.152H108.978V492.28H127.89V496.152ZM131.19 515V492.28H135.574V508.792L146.582 492.28H150.678V515H146.294V498.68L135.414 515H131.19ZM162.513 503.48C162.513 502.093 162.759 500.739 163.249 499.416C163.761 498.072 164.497 496.856 165.457 495.768C166.417 494.659 167.591 493.784 168.977 493.144C170.364 492.483 171.943 492.152 173.713 492.152C175.804 492.152 177.607 492.611 179.121 493.528C180.657 494.445 181.799 495.64 182.545 497.112L179.153 499.448C178.769 498.595 178.268 497.923 177.649 497.432C177.031 496.92 176.369 496.568 175.665 496.376C174.961 496.163 174.268 496.056 173.585 496.056C172.476 496.056 171.505 496.28 170.673 496.728C169.863 497.176 169.18 497.763 168.625 498.488C168.071 499.213 167.655 500.024 167.377 500.92C167.121 501.816 166.993 502.712 166.993 503.608C166.993 504.611 167.153 505.581 167.473 506.52C167.793 507.437 168.241 508.259 168.817 508.984C169.415 509.688 170.119 510.253 170.929 510.68C171.761 511.085 172.668 511.288 173.649 511.288C174.353 511.288 175.068 511.171 175.793 510.936C176.519 510.701 177.191 510.328 177.809 509.816C178.428 509.304 178.908 508.643 179.249 507.832L182.865 509.912C182.417 511.043 181.681 512.003 180.657 512.792C179.655 513.581 178.524 514.179 177.265 514.584C176.007 514.989 174.759 515.192 173.521 515.192C171.9 515.192 170.417 514.861 169.073 514.2C167.729 513.517 166.567 512.621 165.585 511.512C164.625 510.381 163.868 509.123 163.313 507.736C162.78 506.328 162.513 504.909 162.513 503.48ZM201.923 511.128V515H186.147V492.28H201.635V496.152H190.563V501.624H200.131V505.208H190.563V511.128H201.923ZM205.686 515V492.28H215.318C216.363 492.28 217.323 492.493 218.198 492.92C219.072 493.347 219.83 493.923 220.47 494.648C221.131 495.373 221.643 496.184 222.006 497.08C222.368 497.976 222.55 498.893 222.55 499.832C222.55 501.112 222.251 502.328 221.654 503.48C221.056 504.632 220.235 505.571 219.19 506.296C218.144 507.021 216.907 507.384 215.478 507.384H210.102V515H205.686ZM210.102 503.512H215.222C215.755 503.512 216.235 503.363 216.662 503.064C217.088 502.765 217.43 502.339 217.686 501.784C217.942 501.208 218.07 500.557 218.07 499.832C218.07 499.043 217.92 498.371 217.622 497.816C217.344 497.261 216.971 496.845 216.502 496.568C216.054 496.291 215.563 496.152 215.03 496.152H210.102V503.512ZM244.247 509.144C244.247 510.424 243.916 511.501 243.255 512.376C242.594 513.229 241.698 513.88 240.567 514.328C239.458 514.776 238.242 515 236.919 515H225.943V492.28H238.103C239.17 492.28 240.087 492.568 240.855 493.144C241.644 493.699 242.242 494.424 242.647 495.32C243.074 496.195 243.287 497.112 243.287 498.072C243.287 499.16 243.01 500.195 242.455 501.176C241.9 502.157 241.09 502.883 240.023 503.352C241.324 503.736 242.348 504.429 243.095 505.432C243.863 506.435 244.247 507.672 244.247 509.144ZM239.799 508.312C239.799 507.736 239.682 507.224 239.447 506.776C239.212 506.307 238.892 505.944 238.487 505.688C238.103 505.411 237.655 505.272 237.143 505.272H230.359V511.256H236.919C237.452 511.256 237.932 511.128 238.359 510.872C238.807 510.595 239.159 510.232 239.415 509.784C239.671 509.336 239.799 508.845 239.799 508.312ZM230.359 496.056V501.784H236.247C236.738 501.784 237.186 501.667 237.591 501.432C237.996 501.197 238.316 500.867 238.551 500.44C238.807 500.013 238.935 499.501 238.935 498.904C238.935 498.328 238.818 497.827 238.583 497.4C238.37 496.973 238.071 496.643 237.687 496.408C237.324 496.173 236.908 496.056 236.439 496.056H230.359ZM248.013 515V492.28H252.429V515H248.013ZM256.113 503.48C256.113 502.093 256.359 500.739 256.849 499.416C257.361 498.072 258.097 496.856 259.057 495.768C260.017 494.659 261.191 493.784 262.577 493.144C263.964 492.483 265.543 492.152 267.313 492.152C269.404 492.152 271.207 492.611 272.721 493.528C274.257 494.445 275.399 495.64 276.145 497.112L272.753 499.448C272.369 498.595 271.868 497.923 271.249 497.432C270.631 496.92 269.969 496.568 269.265 496.376C268.561 496.163 267.868 496.056 267.185 496.056C266.076 496.056 265.105 496.28 264.273 496.728C263.463 497.176 262.78 497.763 262.225 498.488C261.671 499.213 261.255 500.024 260.977 500.92C260.721 501.816 260.593 502.712 260.593 503.608C260.593 504.611 260.753 505.581 261.073 506.52C261.393 507.437 261.841 508.259 262.417 508.984C263.015 509.688 263.719 510.253 264.529 510.68C265.361 511.085 266.268 511.288 267.249 511.288C267.953 511.288 268.668 511.171 269.393 510.936C270.119 510.701 270.791 510.328 271.409 509.816C272.028 509.304 272.508 508.643 272.849 507.832L276.465 509.912C276.017 511.043 275.281 512.003 274.257 512.792C273.255 513.581 272.124 514.179 270.865 514.584C269.607 514.989 268.359 515.192 267.121 515.192C265.5 515.192 264.017 514.861 262.673 514.2C261.329 513.517 260.167 512.621 259.185 511.512C258.225 510.381 257.468 509.123 256.913 507.736C256.38 506.328 256.113 504.909 256.113 503.48Z" fill="#040000"/>
<path d="M286 513.5L304 495.5M304 495.5V509.5M304 495.5H290.5" stroke="#040000" stroke-width="3"/>
<path d="M319.526 465.5H339.379L323.308 539.24L319.526 465.5Z" fill="#E3B7F5" stroke="#E3B7F5"/>
</svg>
