<svg width="1180" height="1366" viewBox="0 0 1180 1366" fill="none" xmlns="http://www.w3.org/2000/svg">
<path d="M1179.86 0L420.583 591.072L774.283 0H134.937V246.514L0.859375 0V777.05V1172.71H781L737 1364.5H1179.86L1123.27 1188.9L1046.24 970.841H906.331L1179.86 0Z" fill="#6D61FF"/>
<rect width="716" height="171.032" transform="translate(1 1193.98)" fill="#E3B7F5"/>
<path d="M66.1066 1275.09H69.98L84.9203 1254.89H95.7105L78.0727 1278.62L97.3014 1304H86.6495L70.8792 1283.66H66.1066V1304H56.6306V1254.89H66.1066V1275.09ZM121.304 1304.35C117.708 1304.35 114.434 1303.65 111.482 1302.27C108.577 1300.84 106.064 1298.97 103.943 1296.67C101.868 1294.32 100.254 1291.64 99.1014 1288.64C97.9486 1285.65 97.3722 1282.58 97.3722 1279.45C97.3722 1276.17 97.9717 1273.04 99.1706 1270.04C100.416 1267.04 102.099 1264.39 104.22 1262.08C106.387 1259.78 108.946 1257.96 111.897 1256.62C114.849 1255.24 118.053 1254.54 121.512 1254.54C125.062 1254.54 128.29 1255.28 131.195 1256.76C134.147 1258.19 136.66 1260.08 138.735 1262.43C140.81 1264.78 142.424 1267.46 143.576 1270.45C144.729 1273.45 145.306 1276.49 145.306 1279.58C145.306 1282.86 144.706 1285.99 143.507 1288.99C142.308 1291.94 140.648 1294.57 138.527 1296.88C136.406 1299.14 133.87 1300.96 130.919 1302.34C127.968 1303.68 124.763 1304.35 121.304 1304.35ZM107.056 1279.45C107.056 1281.57 107.379 1283.62 108.024 1285.6C108.67 1287.58 109.592 1289.34 110.791 1290.86C112.036 1292.38 113.534 1293.6 115.287 1294.52C117.085 1295.45 119.114 1295.91 121.373 1295.91C123.679 1295.91 125.708 1295.45 127.46 1294.52C129.259 1293.56 130.757 1292.29 131.956 1290.72C133.201 1289.15 134.123 1287.4 134.723 1285.46C135.368 1283.48 135.691 1281.47 135.691 1279.45C135.691 1277.32 135.345 1275.27 134.654 1273.29C134.008 1271.31 133.063 1269.55 131.818 1268.03C130.619 1266.51 129.12 1265.31 127.322 1264.44C125.57 1263.51 123.587 1263.05 121.373 1263.05C119.068 1263.05 117.016 1263.54 115.218 1264.51C113.419 1265.43 111.921 1266.67 110.722 1268.24C109.523 1269.76 108.6 1271.51 107.955 1273.5C107.355 1275.43 107.056 1277.42 107.056 1279.45ZM194.751 1254.89V1304H185.275V1283.04H163.003V1304H153.458V1254.89H163.003V1274.74H185.275V1254.89H194.751ZM202.911 1279.1C202.911 1276.1 203.442 1273.15 204.502 1270.25C205.609 1267.29 207.2 1264.67 209.275 1262.36C211.35 1260.06 213.886 1258.19 216.883 1256.76C219.88 1255.33 223.293 1254.61 227.12 1254.61C231.639 1254.61 235.535 1255.61 238.809 1257.59C242.129 1259.57 244.596 1262.15 246.21 1265.34L238.879 1270.38C238.233 1269 237.449 1267.85 236.527 1266.93C235.605 1265.96 234.613 1265.2 233.553 1264.64C232.492 1264.09 231.385 1263.7 230.233 1263.47C229.08 1263.19 227.95 1263.05 226.843 1263.05C224.446 1263.05 222.347 1263.54 220.549 1264.51C218.797 1265.47 217.321 1266.74 216.122 1268.31C214.97 1269.83 214.093 1271.58 213.494 1273.57C212.894 1275.5 212.595 1277.44 212.595 1279.38C212.595 1281.54 212.941 1283.64 213.632 1285.67C214.324 1287.65 215.292 1289.41 216.537 1290.93C217.828 1292.45 219.35 1293.67 221.102 1294.59C222.901 1295.52 224.861 1295.98 226.982 1295.98C228.088 1295.98 229.241 1295.84 230.44 1295.56C231.639 1295.28 232.769 1294.85 233.829 1294.25C234.936 1293.65 235.95 1292.89 236.873 1291.96C237.795 1291 238.533 1289.84 239.086 1288.51L246.902 1293C246.118 1294.85 244.988 1296.48 243.513 1297.91C242.083 1299.3 240.446 1300.47 238.602 1301.44C236.804 1302.41 234.867 1303.15 232.792 1303.65C230.717 1304.16 228.688 1304.42 226.705 1304.42C223.201 1304.42 219.996 1303.68 217.091 1302.2C214.186 1300.73 211.673 1298.81 209.551 1296.46C207.476 1294.06 205.839 1291.37 204.64 1288.37C203.488 1285.32 202.911 1282.24 202.911 1279.1ZM262.157 1304.48C261.65 1304.48 261.096 1304.44 260.497 1304.35C259.897 1304.3 259.275 1304.21 258.629 1304.07C257.984 1303.93 257.338 1303.75 256.693 1303.52C256.093 1303.29 255.563 1303.01 255.102 1302.69L256.347 1294.8C256.854 1295.08 257.546 1295.4 258.422 1295.77C259.344 1296.09 260.289 1296.25 261.258 1296.25C262.595 1296.25 263.748 1295.88 264.716 1295.15C265.731 1294.36 266.607 1292.98 267.344 1291L249.292 1254.89H259.598L271.633 1281.38L282.838 1254.89H292.867L275.575 1292.24C274.561 1294.45 273.57 1296.35 272.601 1297.91C271.633 1299.43 270.618 1300.7 269.558 1301.72C268.543 1302.69 267.437 1303.4 266.238 1303.86C265.039 1304.28 263.679 1304.48 262.157 1304.48ZM308.621 1270.73C308.114 1277.05 307.422 1282.35 306.546 1286.64C305.67 1290.93 304.471 1294.41 302.949 1297.08C301.428 1299.71 299.537 1301.6 297.277 1302.75C295.018 1303.91 292.251 1304.48 288.977 1304.48L288.424 1295.91C289.992 1295.77 291.352 1295.38 292.505 1294.73C293.704 1294.09 294.718 1292.82 295.548 1290.93C296.424 1289.04 297.162 1286.34 297.762 1282.83C298.361 1279.28 298.914 1274.58 299.422 1268.72L300.598 1254.89H330.34V1304H320.864V1263.26H309.244L308.621 1270.73ZM341.776 1254.89H351.252V1272.18H360.659C363.149 1272.18 365.431 1272.53 367.506 1273.22C369.627 1273.91 371.449 1274.93 372.97 1276.26C374.492 1277.6 375.668 1279.26 376.498 1281.24C377.328 1283.18 377.743 1285.42 377.743 1287.95C377.743 1290.54 377.328 1292.82 376.498 1294.8C375.668 1296.78 374.492 1298.47 372.97 1299.85C371.495 1301.19 369.72 1302.22 367.645 1302.96C365.616 1303.65 363.402 1304 361.004 1304H341.776V1254.89ZM351.252 1295.91H360.105C362.78 1295.91 364.786 1295.19 366.123 1293.76C367.46 1292.33 368.129 1290.37 368.129 1287.88C368.129 1285.53 367.437 1283.62 366.054 1282.14C364.67 1280.62 362.687 1279.86 360.105 1279.86H351.252V1295.91ZM416.206 1263.26H400.505V1304H391.029V1263.26H375.328V1254.89H416.206V1263.26ZM432.103 1254.89H440.542L459.217 1304H449.395L444.83 1291.76H427.676L423.18 1304H413.359L432.103 1254.89ZM443.101 1285.05L436.322 1265.75L429.267 1285.05H443.101ZM502.023 1304H465.572V1254.89H475.048V1295.63H494.207V1254.89H503.683V1295.63H511.015V1316.24H502.023V1304ZM518.273 1304V1254.89H527.818V1304H518.273ZM564.684 1304V1285.81H556.868L545.801 1304H535.288L547.323 1284.63C544.51 1283.48 542.251 1281.64 540.545 1279.1C538.838 1276.56 537.985 1273.64 537.985 1270.32C537.985 1268.24 538.377 1266.28 539.161 1264.44C539.945 1262.59 541.029 1260.95 542.412 1259.52C543.795 1258.1 545.432 1256.97 547.323 1256.14C549.26 1255.31 551.358 1254.89 553.617 1254.89H574.16V1304H564.684ZM564.684 1263.05H554.655C553.733 1263.05 552.856 1263.24 552.026 1263.61C551.196 1263.93 550.436 1264.41 549.744 1265.06C549.098 1265.66 548.568 1266.42 548.153 1267.34C547.784 1268.22 547.6 1269.21 547.6 1270.32C547.6 1272.53 548.245 1274.3 549.536 1275.64C550.874 1276.98 552.511 1277.65 554.447 1277.65H564.684V1263.05Z" fill="#040000"/>
<path d="M618.795 1300.22L658.7 1260.32M658.7 1260.32V1291.36M658.7 1260.32H628.771" stroke="#040000" stroke-width="6.288"/>
<path d="M709.3 1195.11H753.75L717.686 1356.83L709.3 1195.11Z" fill="#E3B7F5" stroke="#E3B7F5" stroke-width="2.21692"/>
</svg>
