<svg width="1820" height="287" viewBox="0 0 1820 287" fill="none" xmlns="http://www.w3.org/2000/svg">
<path d="M1765.58 128.527V179.861H1632.46L1632.04 178.34C1608.59 178.34 1588.08 174.664 1570.5 167.313C1552.92 159.961 1539.1 149.694 1529.06 136.512C1519.29 123.33 1514.4 107.866 1514.4 90.1207C1514.4 72.1219 1519.29 56.4047 1529.06 42.969C1539.1 29.5332 1552.92 19.0128 1570.5 11.4077C1588.08 3.80257 1608.59 0 1632.04 0H1820V285.192H1740.88V19.3931L1776.46 51.7148H1642.92C1627.57 51.7148 1615.57 55.1372 1606.92 61.9818C1598.27 68.8264 1593.94 78.206 1593.94 90.1207C1593.94 102.035 1598.27 111.415 1606.92 118.26C1615.57 125.104 1627.57 128.527 1642.92 128.527H1765.58ZM1709.07 151.722L1598.13 285.192H1506.45L1620.32 151.722H1709.07Z" fill="white"/>
<path d="M1037.34 115.978V169.214H809.41V115.978H1037.34ZM842.151 142.596V260.475L808.99 226.252H1050.77V285.192H762.816V142.596V0H1048.67V58.9397H808.99L842.151 24.7166V142.596Z" fill="white"/>
<path d="M404.476 285.192V0H485.083V227.393L463.216 212.943L653.586 0H739.337L477.366 285.192H404.476ZM558.401 147.159L616.712 102.669L743.625 285.192H651.87L558.401 147.159Z" fill="white"/>
<path d="M358.346 166.301C355.279 189.885 345.941 210.673 330.33 228.664C314.72 246.413 294.091 260.271 268.446 270.24C242.8 280.208 213.669 285.192 181.054 285.192C144.816 285.192 113.037 279.235 85.7186 267.322C58.6789 255.409 37.6325 238.754 22.5795 217.359C7.52651 195.963 0 171.042 0 142.596C0 114.15 7.52651 89.2289 22.5795 67.8334C37.6325 46.4379 58.6789 29.7835 85.7186 17.8701C113.037 5.95671 144.816 0 181.054 0C213.669 0 242.8 4.98418 268.446 14.9525C294.091 24.9209 314.72 38.7793 330.33 56.5279C345.941 74.2764 355.279 95.064 358.346 118.891H278.899C276.111 106.491 270.397 95.915 261.755 87.1623C253.393 78.4096 242.242 71.7235 228.304 67.104C214.645 62.2414 198.756 59.8101 180.636 59.8101C159.729 59.8101 141.749 63.2139 126.696 70.0216C111.643 76.5861 100.075 86.0682 91.9907 98.4679C83.9067 110.868 79.8646 125.577 79.8646 142.596C79.8646 159.615 83.9067 174.325 91.9907 186.724C100.075 199.124 111.643 208.728 126.696 215.535C141.749 222.1 159.729 225.382 180.636 225.382C198.756 225.382 214.645 223.072 228.304 218.453C242.242 213.833 253.393 207.147 261.755 198.395C270.397 189.642 276.111 178.944 278.899 166.301H358.346Z" fill="white"/>
<path d="M1461.65 0V285.192H1381.67V60.3291H1240.89V148.081C1243.45 295.064 1139.43 289.576 1081.84 284.092V226.505C1168.22 234.731 1167.3 178.245 1167.3 139.854V0H1461.65Z" fill="white"/>
</svg>
