<svg width="1180" height="1366" viewBox="0 0 1180 1366" fill="none" xmlns="http://www.w3.org/2000/svg">
<path d="M1179.86 0L420.583 591.072L774.283 0H134.937V246.514L0.859375 0V777.05V1172.71H781L737 1364.5H1179.86L1123.27 1188.9L1046.24 970.841H906.331L1179.86 0Z" fill="#6D61FF"/>
<rect width="716" height="171.032" transform="translate(1 1193.98)" fill="#E3B7F5"/>
<path d="M77.381 1304.35C73.7843 1304.35 70.5103 1303.65 67.5592 1302.27C64.6541 1300.89 62.141 1299.02 60.0199 1296.67C57.9448 1294.27 56.3309 1291.6 55.1781 1288.64C54.0253 1285.65 53.4489 1282.58 53.4489 1279.45C53.4489 1276.17 54.0484 1273.06 55.2473 1270.11C56.4923 1267.11 58.1754 1264.46 60.2965 1262.15C62.4638 1259.8 65 1257.96 67.905 1256.62C70.8562 1255.24 74.084 1254.54 77.5885 1254.54C81.1392 1254.54 84.367 1255.26 87.272 1256.69C90.2232 1258.12 92.7363 1260.03 94.8114 1262.43C96.8864 1264.83 98.5003 1267.5 99.6531 1270.45C100.806 1273.4 101.382 1276.45 101.382 1279.58C101.382 1282.81 100.783 1285.92 99.584 1288.92C98.385 1291.87 96.702 1294.52 94.5347 1296.88C92.4135 1299.18 89.8774 1301 86.9262 1302.34C84.0212 1303.68 80.8394 1304.35 77.381 1304.35ZM63.1324 1279.45C63.1324 1281.57 63.4552 1283.62 64.1008 1285.6C64.7463 1287.58 65.6686 1289.36 66.8675 1290.93C68.1125 1292.45 69.6112 1293.67 71.3634 1294.59C73.1618 1295.47 75.1907 1295.91 77.4502 1295.91C79.7558 1295.91 81.8078 1295.45 83.6061 1294.52C85.4045 1293.56 86.9032 1292.29 88.1021 1290.72C89.301 1289.11 90.2002 1287.33 90.7996 1285.39C91.4452 1283.41 91.768 1281.43 91.768 1279.45C91.768 1277.32 91.4221 1275.3 90.7305 1273.36C90.0849 1271.38 89.1396 1269.62 87.8946 1268.1C86.6956 1266.53 85.197 1265.31 83.3986 1264.44C81.6464 1263.51 79.6636 1263.05 77.4502 1263.05C75.0985 1263.05 73.0234 1263.54 71.2251 1264.51C69.4728 1265.43 67.9972 1266.67 66.7983 1268.24C65.5994 1269.81 64.6772 1271.56 64.0316 1273.5C63.4321 1275.43 63.1324 1277.42 63.1324 1279.45ZM109.534 1304V1254.89H144.948V1263.12H119.01V1274.95H132.36C137.847 1274.95 141.974 1276.24 144.741 1278.82C147.508 1281.41 148.891 1284.86 148.891 1289.2C148.891 1292.1 148.292 1294.66 147.093 1296.88C145.894 1299.09 144.118 1300.84 141.767 1302.13C139.415 1303.38 136.441 1304 132.844 1304H109.534ZM119.01 1295.77H131.53C133.374 1295.77 134.85 1295.45 135.957 1294.8C137.063 1294.11 137.87 1293.26 138.377 1292.24C138.885 1291.18 139.138 1290.07 139.138 1288.92C139.138 1287.77 138.908 1286.71 138.447 1285.74C138.032 1284.73 137.271 1283.92 136.164 1283.32C135.057 1282.67 133.467 1282.35 131.392 1282.35H119.01V1295.77ZM156.29 1304V1254.89H177.109C179.369 1254.89 181.444 1255.35 183.335 1256.27C185.225 1257.2 186.862 1258.44 188.245 1260.01C189.675 1261.58 190.782 1263.33 191.566 1265.27C192.349 1267.2 192.741 1269.19 192.741 1271.21C192.741 1273.98 192.096 1276.61 190.805 1279.1C189.514 1281.59 187.738 1283.62 185.479 1285.19C183.219 1286.75 180.545 1287.54 177.455 1287.54H165.835V1304H156.29ZM165.835 1279.17H176.902C178.055 1279.17 179.092 1278.85 180.014 1278.2C180.937 1277.55 181.674 1276.63 182.228 1275.43C182.781 1274.19 183.058 1272.78 183.058 1271.21C183.058 1269.51 182.735 1268.06 182.089 1266.86C181.49 1265.66 180.683 1264.76 179.669 1264.16C178.7 1263.56 177.64 1263.26 176.487 1263.26H165.835V1279.17ZM209.846 1254.89H219.529L237.582 1304H227.76L223.195 1291.76H206.042L201.546 1304H191.724L209.846 1254.89ZM221.466 1285.05L214.688 1264.78L207.632 1285.05H221.466ZM275.863 1263.26H260.162V1304H250.686V1263.26H234.985V1254.89H275.863V1263.26ZM282.997 1304V1254.89H292.473V1290.58L316.267 1254.89H325.12V1304H315.644V1268.72L292.127 1304H282.997ZM350.701 1279.1C350.701 1276.1 351.231 1273.17 352.292 1270.32C353.399 1267.41 354.989 1264.78 357.065 1262.43C359.14 1260.03 361.676 1258.14 364.673 1256.76C367.67 1255.33 371.083 1254.61 374.91 1254.61C379.429 1254.61 383.325 1255.61 386.599 1257.59C389.919 1259.57 392.386 1262.15 394 1265.34L386.668 1270.38C385.838 1268.54 384.755 1267.09 383.418 1266.03C382.08 1264.92 380.651 1264.16 379.129 1263.74C377.607 1263.28 376.109 1263.05 374.633 1263.05C372.235 1263.05 370.137 1263.54 368.339 1264.51C366.587 1265.47 365.111 1266.74 363.912 1268.31C362.713 1269.88 361.814 1271.63 361.215 1273.57C360.661 1275.5 360.385 1277.44 360.385 1279.38C360.385 1281.54 360.73 1283.64 361.422 1285.67C362.114 1287.65 363.082 1289.43 364.327 1291C365.618 1292.52 367.14 1293.74 368.892 1294.66C370.691 1295.54 372.65 1295.98 374.772 1295.98C376.293 1295.98 377.838 1295.72 379.406 1295.22C380.974 1294.71 382.426 1293.9 383.763 1292.79C385.101 1291.69 386.138 1290.26 386.876 1288.51L394.692 1293C393.724 1295.45 392.133 1297.52 389.919 1299.23C387.752 1300.93 385.308 1302.22 382.588 1303.1C379.867 1303.98 377.169 1304.42 374.495 1304.42C370.99 1304.42 367.786 1303.7 364.881 1302.27C361.975 1300.8 359.462 1298.86 357.341 1296.46C355.266 1294.02 353.629 1291.3 352.43 1288.3C351.277 1285.26 350.701 1282.19 350.701 1279.1ZM435.885 1295.63V1304H401.785V1254.89H435.262V1263.26H411.33V1275.09H432.011V1282.83H411.33V1295.63H435.885ZM444.018 1304V1254.89H464.837C467.097 1254.89 469.172 1255.35 471.063 1256.27C472.953 1257.2 474.59 1258.44 475.973 1260.01C477.403 1261.58 478.51 1263.33 479.294 1265.27C480.077 1267.2 480.469 1269.19 480.469 1271.21C480.469 1273.98 479.824 1276.61 478.533 1279.1C477.242 1281.59 475.466 1283.62 473.207 1285.19C470.947 1286.75 468.273 1287.54 465.183 1287.54H453.563V1304H444.018ZM453.563 1279.17H464.63C465.783 1279.17 466.82 1278.85 467.743 1278.2C468.665 1277.55 469.403 1276.63 469.956 1275.43C470.509 1274.19 470.786 1272.78 470.786 1271.21C470.786 1269.51 470.463 1268.06 469.818 1266.86C469.218 1265.66 468.411 1264.76 467.397 1264.16C466.428 1263.56 465.368 1263.26 464.215 1263.26H453.563V1279.17ZM527.369 1291.34C527.369 1294.11 526.654 1296.44 525.224 1298.33C523.795 1300.17 521.858 1301.58 519.414 1302.55C517.016 1303.52 514.388 1304 511.529 1304H487.804V1254.89H514.088C516.394 1254.89 518.377 1255.51 520.037 1256.76C521.743 1257.96 523.034 1259.52 523.91 1261.46C524.832 1263.35 525.294 1265.34 525.294 1267.41C525.294 1269.76 524.694 1272 523.495 1274.12C522.296 1276.24 520.544 1277.81 518.238 1278.82C521.051 1279.65 523.265 1281.15 524.879 1283.32C526.539 1285.49 527.369 1288.16 527.369 1291.34ZM517.754 1289.54C517.754 1288.3 517.501 1287.19 516.993 1286.22C516.486 1285.21 515.794 1284.43 514.918 1283.87C514.088 1283.27 513.12 1282.97 512.013 1282.97H497.35V1295.91H511.529C512.682 1295.91 513.719 1295.63 514.642 1295.08C515.61 1294.48 516.371 1293.69 516.924 1292.73C517.478 1291.76 517.754 1290.7 517.754 1289.54ZM497.35 1263.05V1275.43H510.077C511.137 1275.43 512.105 1275.18 512.982 1274.67C513.858 1274.17 514.549 1273.45 515.057 1272.53C515.61 1271.61 515.887 1270.5 515.887 1269.21C515.887 1267.96 515.633 1266.88 515.126 1265.96C514.665 1265.04 514.019 1264.32 513.189 1263.81C512.405 1263.31 511.506 1263.05 510.492 1263.05H497.35ZM535.509 1304V1254.89H545.054V1304H535.509ZM553.017 1279.1C553.017 1276.1 553.548 1273.17 554.608 1270.32C555.715 1267.41 557.306 1264.78 559.381 1262.43C561.456 1260.03 563.992 1258.14 566.989 1256.76C569.987 1255.33 573.399 1254.61 577.226 1254.61C581.745 1254.61 585.642 1255.61 588.916 1257.59C592.236 1259.57 594.703 1262.15 596.317 1265.34L588.985 1270.38C588.155 1268.54 587.071 1267.09 585.734 1266.03C584.397 1264.92 582.967 1264.16 581.446 1263.74C579.924 1263.28 578.425 1263.05 576.95 1263.05C574.552 1263.05 572.454 1263.54 570.655 1264.51C568.903 1265.47 567.427 1266.74 566.229 1268.31C565.03 1269.88 564.13 1271.63 563.531 1273.57C562.978 1275.5 562.701 1277.44 562.701 1279.38C562.701 1281.54 563.047 1283.64 563.739 1285.67C564.43 1287.65 565.399 1289.43 566.644 1291C567.935 1292.52 569.456 1293.74 571.209 1294.66C573.007 1295.54 574.967 1295.98 577.088 1295.98C578.61 1295.98 580.154 1295.72 581.722 1295.22C583.29 1294.71 584.743 1293.9 586.08 1292.79C587.417 1291.69 588.455 1290.26 589.192 1288.51L597.008 1293C596.04 1295.45 594.449 1297.52 592.236 1299.23C590.068 1300.93 587.625 1302.22 584.904 1303.1C582.183 1303.98 579.486 1304.42 576.811 1304.42C573.307 1304.42 570.102 1303.7 567.197 1302.27C564.292 1300.8 561.779 1298.86 559.658 1296.46C557.583 1294.02 555.946 1291.3 554.747 1288.3C553.594 1285.26 553.017 1282.19 553.017 1279.1Z" fill="#040000"/>
<path d="M636.795 1300.22L676.7 1260.32M676.7 1260.32V1291.36M676.7 1260.32H646.771" stroke="#040000" stroke-width="6.288"/>
<path d="M709.3 1195.11H753.75L717.686 1356.83L709.3 1195.11Z" fill="#E3B7F5" stroke="#E3B7F5" stroke-width="2.21692"/>
</svg>
