<svg width="943" height="830" viewBox="0 0 943 830" fill="none" xmlns="http://www.w3.org/2000/svg">
<path d="M0 0H943V830H514.364V740.5H81.5L51.5 830H0V0Z" fill="#6D61FF"/>
<path d="M58.58 75.596C56.0493 75.3533 54.1167 74.5387 52.782 73.152C51.4473 71.748 50.78 69.8933 50.78 67.588C50.78 66.444 50.9447 65.404 51.274 64.468C51.6207 63.532 52.1233 62.7173 52.782 62.024C53.4407 61.3307 54.2553 60.7673 55.226 60.334C56.1967 59.9007 57.3147 59.6233 58.58 59.502V57.136H61.44V59.502C62.6707 59.6233 63.754 59.9007 64.69 60.334C65.6433 60.7673 66.4407 61.3307 67.082 62.024C67.7233 62.7173 68.2087 63.532 68.538 64.468C68.8673 65.404 69.032 66.444 69.032 67.588C69.032 69.8933 68.382 71.748 67.082 73.152C65.782 74.5387 63.9013 75.3447 61.44 75.57V77.988H58.58V75.596ZM61.44 72.918C64.56 72.502 66.12 70.6993 66.12 67.51C66.12 64.338 64.56 62.57 61.44 62.206V72.918ZM58.58 62.206C55.3213 62.57 53.692 64.338 53.692 67.51C53.692 70.7167 55.3213 72.5193 58.58 72.918V62.206ZM79.6315 77.13C78.3141 77.13 77.1095 76.87 76.0175 76.35C74.9428 75.8127 74.0155 75.1107 73.2355 74.244C72.4555 73.36 71.8488 72.3547 71.4155 71.228C70.9995 70.1013 70.7915 68.9487 70.7915 67.77C70.7915 66.5393 71.0168 65.3607 71.4675 64.234C71.9181 63.1073 72.5335 62.1107 73.3135 61.244C74.1108 60.3773 75.0468 59.6927 76.1215 59.19C77.2135 58.67 78.4008 58.41 79.6835 58.41C81.0008 58.41 82.1968 58.6873 83.2715 59.242C84.3635 59.7793 85.2908 60.49 86.0535 61.374C86.8335 62.258 87.4315 63.2633 87.8475 64.39C88.2808 65.4993 88.4975 66.6347 88.4975 67.796C88.4975 69.0267 88.2721 70.2053 87.8215 71.332C87.3881 72.4587 86.7728 73.4553 85.9755 74.322C85.1781 75.1713 84.2335 75.856 83.1415 76.376C82.0668 76.8787 80.8968 77.13 79.6315 77.13ZM73.7555 67.77C73.7555 68.6367 73.8941 69.4773 74.1715 70.292C74.4488 71.1067 74.8388 71.826 75.3415 72.45C75.8615 73.074 76.4855 73.5767 77.2135 73.958C77.9415 74.322 78.7561 74.504 79.6575 74.504C80.5935 74.504 81.4168 74.3133 82.1275 73.932C82.8555 73.5333 83.4708 73.0133 83.9735 72.372C84.4761 71.7307 84.8575 71.0113 85.1175 70.214C85.3775 69.4167 85.5075 68.602 85.5075 67.77C85.5075 66.886 85.3688 66.0453 85.0915 65.248C84.8141 64.4333 84.4155 63.7227 83.8955 63.116C83.3928 62.492 82.7775 61.998 82.0495 61.634C81.3388 61.2527 80.5415 61.062 79.6575 61.062C78.7215 61.062 77.8895 61.2613 77.1615 61.66C76.4335 62.0413 75.8181 62.544 75.3155 63.168C74.8128 63.792 74.4228 64.5113 74.1455 65.326C73.8855 66.1233 73.7555 66.938 73.7555 67.77ZM91.5383 77V58.54H99.2863C100.118 58.54 100.881 58.7133 101.574 59.06C102.285 59.4067 102.892 59.866 103.394 60.438C103.897 60.9927 104.287 61.634 104.564 62.362C104.859 63.0727 105.006 63.8007 105.006 64.546C105.006 65.326 104.868 66.08 104.59 66.808C104.33 67.5187 103.958 68.16 103.472 68.732C102.987 69.2867 102.398 69.7373 101.704 70.084C101.028 70.4133 100.274 70.578 99.4423 70.578H94.4503V77H91.5383ZM94.4503 68.004H99.2603C99.6763 68.004 100.049 67.9173 100.378 67.744C100.725 67.5707 101.02 67.328 101.262 67.016C101.505 66.704 101.696 66.34 101.834 65.924C101.973 65.508 102.042 65.0487 102.042 64.546C102.042 64.026 101.964 63.558 101.808 63.142C101.652 62.726 101.436 62.3707 101.158 62.076C100.881 61.764 100.56 61.53 100.196 61.374C99.8496 61.2007 99.4856 61.114 99.1043 61.114H94.4503V68.004ZM123.31 77V63.714L117.824 73.776H116.212L110.7 63.714V77H107.788V58.54H110.908L117.018 69.824L123.128 58.54H126.248V77H123.31ZM135.92 58.54H138.468L145.748 77H142.68L140.73 71.982H133.606L131.682 77H128.588L135.92 58.54ZM140.158 69.824L137.194 61.894L134.126 69.824H140.158ZM159.749 61.114H153.613V77H150.675V61.114H144.513V58.54H159.749V61.114Z" fill="#040000"/>
<path d="M861.5 58.5H885V76.5M885 76.5L893 68M885 76.5L877.5 68" stroke="#040000" stroke-width="2"/>
<path d="M249.321 337.672C248.94 341.104 247.761 344.12 245.785 346.72C243.809 349.285 241.209 351.279 237.985 352.7C234.796 354.121 231.121 354.832 226.961 354.832C222.42 354.832 218.451 353.983 215.053 352.284C211.656 350.585 209.004 348.211 207.097 345.16C205.225 342.109 204.289 338.556 204.289 334.5C204.289 330.444 205.225 326.891 207.097 323.84C209.004 320.789 211.656 318.415 215.053 316.716C218.451 315.017 222.42 314.168 226.961 314.168C231.121 314.168 234.796 314.879 237.985 316.3C241.209 317.721 243.809 319.732 245.785 322.332C247.761 324.897 248.94 327.896 249.321 331.328H238.505C238.159 329.664 237.483 328.26 236.477 327.116C235.472 325.937 234.155 325.036 232.525 324.412C230.931 323.788 229.076 323.476 226.961 323.476C224.535 323.476 222.437 323.927 220.669 324.828C218.901 325.695 217.549 326.96 216.613 328.624C215.677 330.253 215.209 332.212 215.209 334.5C215.209 336.788 215.677 338.764 216.613 340.428C217.549 342.057 218.901 343.323 220.669 344.224C222.437 345.091 224.535 345.524 226.961 345.524C229.076 345.524 230.931 345.229 232.525 344.64C234.155 344.051 235.472 343.167 236.477 341.988C237.483 340.809 238.159 339.371 238.505 337.672H249.321ZM294.8 315V354H284.036V319.68L288.872 324.568H259.44L264.276 319.68V354H253.512V315H294.8ZM301.019 315H311.783V354H301.019V315ZM324.507 315H362.779V354H351.963V319.68L356.851 324.568H330.539L335.063 320.98C335.34 323.268 335.531 325.469 335.635 327.584C335.739 329.664 335.791 331.64 335.791 333.512C335.791 338.504 335.34 342.577 334.439 345.732C333.537 348.852 332.116 351.14 330.175 352.596C328.233 354.052 325.72 354.78 322.635 354.78C321.283 354.78 319.948 354.641 318.631 354.364C317.348 354.087 316.169 353.671 315.095 353.116V344.172C316.62 344.761 318.024 345.056 319.307 345.056C321.56 345.056 323.172 344.033 324.143 341.988C325.148 339.943 325.651 336.597 325.651 331.952C325.651 329.699 325.547 327.168 325.339 324.36C325.165 321.552 324.888 318.432 324.507 315ZM368.967 354V315H379.679V345.42L376.819 343.184L398.919 315H410.307L378.691 354H368.967ZM387.583 335.384L395.487 328.832L410.827 354H398.607L387.583 335.384ZM422.377 354L429.397 341.78H429.553L444.789 315H456.489L434.077 354H422.377ZM429.241 348.748L409.741 315H421.649L436.885 341.52L429.241 348.748ZM485.521 334.916L486.405 332.888C489.421 332.957 491.9 333.425 493.841 334.292C495.817 335.124 497.291 336.303 498.261 337.828C499.232 339.319 499.717 341.052 499.717 343.028C499.717 345.143 499.232 347.032 498.261 348.696C497.291 350.325 495.835 351.625 493.893 352.596C491.987 353.532 489.595 354 486.717 354H457.909L460.925 333.98L457.909 315H485.677C489.283 315 492.091 315.849 494.101 317.548C496.112 319.212 497.117 321.535 497.117 324.516C497.117 326.145 496.736 327.705 495.973 329.196C495.211 330.687 493.98 331.952 492.281 332.992C490.617 333.997 488.364 334.639 485.521 334.916ZM468.569 351.504L464.409 346.46H483.805C485.365 346.46 486.579 346.079 487.445 345.316C488.312 344.553 488.745 343.496 488.745 342.144C488.745 340.792 488.277 339.717 487.341 338.92C486.405 338.088 485.019 337.672 483.181 337.672H467.165V330.288H481.725C482.973 330.288 484.013 329.924 484.845 329.196C485.712 328.433 486.145 327.411 486.145 326.128C486.145 325.088 485.781 324.239 485.053 323.58C484.325 322.887 483.285 322.54 481.933 322.54H464.461L468.569 317.496L471.221 333.98L468.569 351.504ZM509.634 346.512V337.828H536.518V346.512H509.634ZM530.382 315L548.114 354H536.622L521.75 319.576H524.87L509.946 354H498.454L516.186 315H530.382ZM550.768 315H561.532V354H550.768V315ZM581.448 315H592.264V354H581.448V315ZM556.8 329.404H585.92V338.972H556.8V329.404ZM598.528 315H609.292V354H598.528V315ZM629.208 315H640.024V354H629.208V315ZM604.56 329.404H633.68V338.972H604.56V329.404ZM676.241 332.316V339.96H659.965L659.913 339.752C656.932 339.752 654.314 339.249 652.061 338.244C649.842 337.239 648.109 335.817 646.861 333.98C645.648 332.143 645.041 329.993 645.041 327.532C645.041 325.001 645.648 322.817 646.861 320.98C648.109 319.108 649.842 317.652 652.061 316.612C654.314 315.537 656.932 315 659.913 315H683.729V354H672.913V317.86L677.749 322.696H661.473C659.705 322.696 658.318 323.129 657.313 323.996C656.342 324.828 655.857 326.007 655.857 327.532C655.857 329.023 656.342 330.201 657.313 331.068C658.318 331.9 659.705 332.316 661.473 332.316H676.241ZM669.793 335.748L656.481 354H644.001L657.729 335.748H669.793ZM709.171 354L716.191 341.78H716.347L731.583 315H743.283L720.871 354H709.171ZM716.035 348.748L696.535 315H708.443L723.679 341.52L716.035 348.748ZM297.739 381.732H308.555V416H297.739V381.732ZM282.867 377H323.427V386.568H282.867V377ZM360.365 392.6V400.4H331.817V392.6H360.365ZM339.149 396.5L336.601 412.152L332.233 407.264H362.081V416H325.837L328.801 396.5L325.837 377H361.821V385.736H332.233L336.601 380.848L339.149 396.5ZM378.043 377V411.216L373.207 406.432H402.379V416H367.279V377H378.043ZM439.282 392.6V400.4H410.734V392.6H439.282ZM418.066 396.5L415.518 412.152L411.15 407.264H440.998V416H404.754L407.718 396.5L404.754 377H440.738V385.736H411.15L415.518 380.848L418.066 396.5ZM485.521 399.1C485.417 401.457 484.932 403.711 484.065 405.86C483.233 407.975 482.003 409.864 480.373 411.528C478.779 413.192 476.768 414.492 474.341 415.428C471.949 416.364 469.159 416.832 465.969 416.832C462.919 416.832 460.059 416.399 457.389 415.532C454.72 414.631 452.363 413.313 450.317 411.58C448.307 409.847 446.729 407.715 445.585 405.184C444.476 402.653 443.921 399.759 443.921 396.5C443.921 393.241 444.493 390.347 445.637 387.816C446.781 385.285 448.376 383.153 450.421 381.42C452.501 379.687 454.893 378.387 457.597 377.52C460.336 376.619 463.317 376.168 466.541 376.168C470.84 376.168 474.549 376.827 477.669 378.144C480.789 379.461 483.303 381.264 485.209 383.552C487.116 385.84 488.347 388.492 488.901 391.508H478.033C477.687 390.191 476.976 389.064 475.901 388.128C474.861 387.157 473.544 386.429 471.949 385.944C470.389 385.424 468.604 385.164 466.593 385.164C464.167 385.164 462.069 385.597 460.301 386.464C458.533 387.296 457.164 388.561 456.193 390.26C455.223 391.924 454.737 394.004 454.737 396.5C454.737 399.031 455.257 401.163 456.297 402.896C457.337 404.629 458.811 405.929 460.717 406.796C462.659 407.663 464.929 408.096 467.529 408.096C470.06 408.096 472.296 407.749 474.237 407.056C476.179 406.328 477.721 405.271 478.865 403.884C480.044 402.497 480.72 400.833 480.893 398.892L485.521 399.1ZM468.569 403.416V395.824H489.265V416H481.621L480.113 400.556L482.141 403.416H468.569ZM502.102 394.056H516.298C518.032 394.056 519.384 393.657 520.354 392.86C521.325 392.063 521.81 390.953 521.81 389.532C521.81 388.076 521.325 386.967 520.354 386.204C519.384 385.407 518.032 385.008 516.298 385.008H500.594L505.43 379.86V416H494.666V377H517.806C520.788 377 523.388 377.537 525.606 378.612C527.825 379.652 529.558 381.108 530.806 382.98C532.054 384.817 532.678 387.001 532.678 389.532C532.678 391.993 532.054 394.16 530.806 396.032C529.558 397.904 527.825 399.36 525.606 400.4C523.388 401.44 520.788 401.96 517.806 401.96H502.102V394.056ZM507.926 397.748H520.042L534.03 416H521.55L507.926 397.748ZM544.687 408.512V399.828H571.571V408.512H544.687ZM565.435 377L583.167 416H571.675L556.803 381.576H559.923L544.999 416H533.507L551.239 377H565.435ZM642.813 377V416H632.569V380.848L634.857 381.108L619.777 416H608.857L593.725 381.212L596.065 380.952V416H585.821V377H602.461L616.449 410.488H612.289L626.173 377H642.813ZM647.302 423.696L652.658 412.464L653.23 416.364C652.121 416.364 651.115 416.104 650.214 415.584C649.313 415.064 648.585 414.353 648.03 413.452C647.51 412.551 647.25 411.563 647.25 410.488C647.25 409.379 647.51 408.391 648.03 407.524C648.585 406.623 649.313 405.912 650.214 405.392C651.115 404.872 652.121 404.612 653.23 404.612C654.374 404.612 655.397 404.872 656.298 405.392C657.199 405.912 657.91 406.64 658.43 407.576C658.95 408.477 659.21 409.5 659.21 410.644C659.21 411.684 658.95 412.793 658.43 413.972C657.945 415.151 657.095 416.659 655.882 418.496L652.45 423.696H647.302ZM276.532 439V478H265.768V443.68L270.604 448.568H241.172L246.008 443.68V478H235.244V439H276.532ZM316.083 454.6V462.4H287.535V454.6H316.083ZM294.867 458.5L292.319 474.152L287.951 469.264H317.799V478H281.555L284.519 458.5L281.555 439H317.539V447.736H287.951L292.319 442.848L294.867 458.5ZM344.888 439C348.147 439 350.955 439.555 353.312 440.664C355.704 441.773 357.524 443.351 358.772 445.396C360.02 447.407 360.644 449.764 360.644 452.468C360.644 455.137 360.02 457.495 358.772 459.54C357.524 461.551 355.704 463.111 353.312 464.22C350.955 465.329 348.147 465.884 344.888 465.884H327.988V457.252H344.212C345.946 457.252 347.298 456.836 348.268 456.004C349.239 455.137 349.724 453.959 349.724 452.468C349.724 450.943 349.239 449.764 348.268 448.932C347.298 448.065 345.946 447.632 344.212 447.632H328.924L333.76 442.64V478H322.996V439H344.888ZM397.488 454.6V462.4H368.94V454.6H397.488ZM376.272 458.5L373.724 474.152L369.356 469.264H399.204V478H362.96L365.924 458.5L362.96 439H398.944V447.736H369.356L373.724 442.848L376.272 458.5ZM445.689 439V478H434.925V443.68L439.761 448.568H410.329L415.165 443.68V478H404.401V439H445.689ZM451.908 478V439H462.516V472.332L459.552 471.656L481.652 439H495.744V478H485.084V444.044L488.1 444.72L465.584 478H451.908ZM545.32 461.672C544.939 465.104 543.76 468.12 541.784 470.72C539.808 473.285 537.208 475.279 533.984 476.7C530.795 478.121 527.12 478.832 522.96 478.832C518.419 478.832 514.45 477.983 511.052 476.284C507.655 474.585 505.003 472.211 503.096 469.16C501.224 466.109 500.288 462.556 500.288 458.5C500.288 454.444 501.224 450.891 503.096 447.84C505.003 444.789 507.655 442.415 511.052 440.716C514.45 439.017 518.419 438.168 522.96 438.168C527.12 438.168 530.795 438.879 533.984 440.3C537.208 441.721 539.808 443.732 541.784 446.332C543.76 448.897 544.939 451.896 545.32 455.328H534.504C534.158 453.664 533.482 452.26 532.476 451.116C531.471 449.937 530.154 449.036 528.524 448.412C526.93 447.788 525.075 447.476 522.96 447.476C520.534 447.476 518.436 447.927 516.668 448.828C514.9 449.695 513.548 450.96 512.612 452.624C511.676 454.253 511.208 456.212 511.208 458.5C511.208 460.788 511.676 462.764 512.612 464.428C513.548 466.057 514.9 467.323 516.668 468.224C518.436 469.091 520.534 469.524 522.96 469.524C525.075 469.524 526.93 469.229 528.524 468.64C530.154 468.051 531.471 467.167 532.476 465.988C533.482 464.809 534.158 463.371 534.504 461.672H545.32ZM549.511 478V439H560.223V469.42L557.363 467.184L579.463 439H590.851L559.235 478H549.511ZM568.127 459.384L576.031 452.832L591.371 478H579.151L568.127 459.384ZM601.309 470.512V461.828H628.193V470.512H601.309ZM622.057 439L639.789 478H628.297L613.425 443.576H616.545L601.621 478H590.129L607.861 439H622.057ZM651.641 455.848H680.345V463.804H651.641V455.848ZM679.877 455.848H708.581V463.804H679.877V455.848ZM272.557 501H283.321V540H272.557V501ZM303.237 501H314.053V540H303.237V501ZM278.589 515.404H307.709V524.972H278.589V515.404ZM327.91 532.512V523.828H354.794V532.512H327.91ZM348.658 501L366.39 540H354.898L340.026 505.576H343.146L328.222 540H316.73L334.462 501H348.658ZM385.673 540.832C381.548 540.832 377.925 540.26 374.805 539.116C371.72 537.972 369.311 536.343 367.577 534.228C365.879 532.113 364.96 529.635 364.821 526.792H375.637C375.88 528.664 376.851 530.103 378.549 531.108C380.248 532.079 382.623 532.564 385.673 532.564C388.551 532.564 390.769 532.183 392.329 531.42C393.889 530.623 394.669 529.444 394.669 527.884C394.669 526.532 393.993 525.544 392.641 524.92C391.324 524.296 389.14 523.984 386.089 523.984H378.965V516.86H385.933C387.736 516.86 389.209 516.704 390.353 516.392C391.497 516.045 392.347 515.56 392.901 514.936C393.491 514.312 393.785 513.584 393.785 512.752C393.785 511.816 393.456 511.036 392.797 510.412C392.173 509.753 391.255 509.268 390.041 508.956C388.863 508.609 387.424 508.436 385.725 508.436C382.917 508.436 380.716 508.921 379.121 509.892C377.527 510.828 376.591 512.18 376.313 513.948H365.601C365.809 511.383 366.711 509.06 368.305 506.98C369.935 504.9 372.257 503.253 375.273 502.04C378.289 500.792 381.947 500.168 386.245 500.168C389.955 500.168 393.196 500.636 395.969 501.572C398.743 502.473 400.892 503.756 402.417 505.42C403.977 507.049 404.757 508.956 404.757 511.14C404.757 512.908 404.22 514.52 403.145 515.976C402.105 517.432 400.441 518.593 398.153 519.46C395.9 520.327 392.971 520.76 389.365 520.76V519.668C392.763 519.495 395.675 519.72 398.101 520.344C400.563 520.968 402.452 521.973 403.769 523.36C405.087 524.747 405.745 526.532 405.745 528.716C405.745 531.073 404.965 533.171 403.405 535.008C401.845 536.811 399.575 538.232 396.593 539.272C393.612 540.312 389.972 540.832 385.673 540.832ZM416.119 532.512V523.828H443.003V532.512H416.119ZM436.867 501L454.599 540H443.107L428.235 505.576H431.355L416.431 540H404.939L422.671 501H436.867ZM483.669 520.916L484.553 518.888C487.569 518.957 490.047 519.425 491.989 520.292C493.965 521.124 495.438 522.303 496.409 523.828C497.379 525.319 497.865 527.052 497.865 529.028C497.865 531.143 497.379 533.032 496.409 534.696C495.438 536.325 493.982 537.625 492.041 538.596C490.134 539.532 487.742 540 484.865 540H456.057L459.073 519.98L456.057 501H483.825C487.43 501 490.238 501.849 492.249 503.548C494.259 505.212 495.265 507.535 495.265 510.516C495.265 512.145 494.883 513.705 494.121 515.196C493.358 516.687 492.127 517.952 490.429 518.992C488.765 519.997 486.511 520.639 483.669 520.916ZM466.717 537.504L462.557 532.46H481.953C483.513 532.46 484.726 532.079 485.593 531.316C486.459 530.553 486.893 529.496 486.893 528.144C486.893 526.792 486.425 525.717 485.489 524.92C484.553 524.088 483.166 523.672 481.329 523.672H465.313V516.288H479.873C481.121 516.288 482.161 515.924 482.993 515.196C483.859 514.433 484.293 513.411 484.293 512.128C484.293 511.088 483.929 510.239 483.201 509.58C482.473 508.887 481.433 508.54 480.081 508.54H462.609L466.717 503.496L469.369 519.98L466.717 537.504ZM496.802 540L512.194 514.832L520.046 521.384L509.022 540H496.802ZM557.33 540L546.358 521.384L554.21 514.832L569.55 540H557.33ZM538.506 530.172L535.542 529.132L557.642 501H569.03L537.154 540H529.25L497.374 501H508.71L530.862 529.132L527.846 530.172V501H538.506V530.172ZM569.521 547.852V530.484H577.945L581.377 530.588H608.417L611.121 530.484H622.457V547.852H612.369V540H579.609V547.852H569.521ZM577.633 501H615.749V536.984H604.933V505.524L609.821 510.412H583.353L587.825 506.824C588.102 508.419 588.258 509.961 588.293 511.452C588.362 512.943 588.397 514.364 588.397 515.716C588.397 519.772 588.033 523.187 587.305 525.96C586.612 528.733 585.554 530.831 584.133 532.252C582.746 533.673 580.996 534.384 578.881 534.384L574.357 530.64C575.744 529.011 576.766 526.792 577.425 523.984C578.084 521.141 578.413 517.64 578.413 513.48C578.413 511.573 578.344 509.58 578.205 507.5C578.066 505.42 577.876 503.253 577.633 501ZM626.586 540V501H637.194V534.332L634.23 533.656L656.33 501H670.422V540H659.762V506.044L662.778 506.72L640.262 540H626.586Z" fill="#040000"/>
</svg>
