<svg width="439" height="78" viewBox="0 0 439 78" fill="none" xmlns="http://www.w3.org/2000/svg">
<rect width="406" height="78" transform="translate(32.5)" fill="#E3B7F5"/>
<path d="M57.46 54.352V46.128H58.676C59.252 46.128 59.7533 45.904 60.18 45.456C60.6067 45.008 60.9693 44.2933 61.268 43.312C61.5667 42.3307 61.8013 41.0613 61.972 39.504C62.164 37.9253 62.292 36.016 62.356 33.776L62.548 27.28H77.684V46.128H80.692V54.352H76.82V50H61.332V54.352H57.46ZM63.956 46.128H73.3V31.152H66.548L66.484 34.352C66.42 36.5707 66.292 38.4587 66.1 40.016C65.9293 41.5733 65.6733 42.8533 65.332 43.856C65.012 44.8587 64.5533 45.616 63.956 46.128ZM84.438 50V27.28H88.854V50H84.438ZM101.274 50.224C99.4182 50.224 97.7542 49.8507 96.2822 49.104C94.8102 48.3573 93.6476 47.312 92.7942 45.968L96.0902 43.92C96.6236 44.7307 97.3169 45.3813 98.1702 45.872C99.0236 46.3413 100.026 46.576 101.178 46.576C102.544 46.576 103.557 46.2773 104.218 45.68C104.901 45.0827 105.242 44.2933 105.242 43.312C105.242 42.672 105.093 42.1173 104.794 41.648C104.517 41.1573 104.09 40.784 103.514 40.528C102.938 40.2507 102.213 40.112 101.338 40.112H98.6182V36.752H101.37C102.053 36.752 102.629 36.6347 103.098 36.4C103.589 36.144 103.952 35.8027 104.186 35.376C104.442 34.9493 104.57 34.4587 104.57 33.904C104.57 33.328 104.432 32.8267 104.154 32.4C103.898 31.9733 103.504 31.6427 102.97 31.408C102.458 31.152 101.797 31.024 100.986 31.024C99.8342 31.024 98.8422 31.2587 98.0102 31.728C97.1782 32.176 96.5382 32.7733 96.0902 33.52L92.9222 31.28C93.7756 30.0213 94.8636 29.008 96.1862 28.24C97.5302 27.472 99.1942 27.088 101.178 27.088C102.757 27.088 104.112 27.3333 105.242 27.824C106.373 28.2933 107.248 28.9867 107.866 29.904C108.506 30.8213 108.826 31.9307 108.826 33.232C108.826 34.2773 108.57 35.2587 108.058 36.176C107.568 37.072 106.778 37.7653 105.69 38.256C106.97 38.64 107.952 39.3227 108.634 40.304C109.338 41.2853 109.69 42.4267 109.69 43.728C109.69 45.136 109.317 46.3307 108.57 47.312C107.845 48.272 106.853 48.9973 105.594 49.488C104.336 49.9787 102.896 50.224 101.274 50.224ZM132.713 27.28V50H128.329V40.304H118.025V50H113.609V27.28H118.025V36.464H128.329V27.28H132.713ZM143.949 27.28H148.429L156.781 50H152.237L150.125 44.336H142.189L140.109 50H135.565L143.949 27.28ZM149.325 41.232L146.189 31.856L142.925 41.232H149.325ZM174.491 31.152H167.227V50H162.843V31.152H155.579V27.28H174.491V31.152ZM177.792 50V27.28H182.176V43.792L193.184 27.28H197.28V50H192.896V33.68L182.016 50H177.792ZM201.107 38.48C201.107 37.0933 201.352 35.7387 201.843 34.416C202.355 33.072 203.091 31.856 204.051 30.768C205.011 29.6587 206.184 28.784 207.571 28.144C208.958 27.4827 210.536 27.152 212.307 27.152C214.398 27.152 216.2 27.6107 217.715 28.528C219.251 29.4453 220.392 30.64 221.139 32.112L217.747 34.448C217.363 33.5947 216.862 32.9227 216.243 32.432C215.624 31.92 214.963 31.568 214.259 31.376C213.555 31.1627 212.862 31.056 212.179 31.056C211.07 31.056 210.099 31.28 209.267 31.728C208.456 32.176 207.774 32.7627 207.219 33.488C206.664 34.2133 206.248 35.024 205.971 35.92C205.715 36.816 205.587 37.712 205.587 38.608C205.587 39.6107 205.747 40.5813 206.067 41.52C206.387 42.4373 206.835 43.2587 207.411 43.984C208.008 44.688 208.712 45.2533 209.523 45.68C210.355 46.0853 211.262 46.288 212.243 46.288C212.947 46.288 213.662 46.1707 214.387 45.936C215.112 45.7013 215.784 45.328 216.403 44.816C217.022 44.304 217.502 43.6427 217.843 42.832L221.459 44.912C221.011 46.0427 220.275 47.0027 219.251 47.792C218.248 48.5813 217.118 49.1787 215.859 49.584C214.6 49.9893 213.352 50.192 212.115 50.192C210.494 50.192 209.011 49.8613 207.667 49.2C206.323 48.5173 205.16 47.6213 204.179 46.512C203.219 45.3813 202.462 44.1227 201.907 42.736C201.374 41.328 201.107 39.9093 201.107 38.48ZM224.804 50V27.28H229.188V35.408H233.86C235.546 35.408 236.964 35.7067 238.116 36.304C239.29 36.9013 240.175 37.744 240.772 38.832C241.391 39.8987 241.7 41.168 241.7 42.64C241.7 44.0907 241.402 45.3707 240.804 46.48C240.228 47.5893 239.375 48.4533 238.244 49.072C237.114 49.6907 235.738 50 234.116 50H224.804ZM229.188 46.416H233.508C234.362 46.416 235.066 46.2453 235.62 45.904C236.175 45.5627 236.58 45.1147 236.836 44.56C237.092 43.984 237.22 43.344 237.22 42.64C237.22 42.0213 237.092 41.4347 236.836 40.88C236.602 40.3253 236.207 39.8773 235.652 39.536C235.119 39.1733 234.394 38.992 233.476 38.992H229.188V46.416ZM253.351 50V27.28H269.735V31.088H257.735V36.56H263.911C266.449 36.56 268.359 37.1573 269.639 38.352C270.919 39.5467 271.559 41.1467 271.559 43.152C271.559 44.496 271.281 45.68 270.727 46.704C270.172 47.728 269.351 48.5387 268.263 49.136C267.175 49.712 265.799 50 264.135 50H253.351ZM257.735 46.192H263.527C264.38 46.192 265.063 46.0427 265.575 45.744C266.087 45.424 266.46 45.0293 266.695 44.56C266.929 44.0693 267.047 43.5573 267.047 43.024C267.047 42.4907 266.94 42 266.727 41.552C266.535 41.0827 266.183 40.7093 265.671 40.432C265.159 40.1333 264.423 39.984 263.463 39.984H257.735V46.192ZM274.982 50V27.28H279.398V50H274.982ZM298.922 50V31.152H292.266L292.138 34.992C292.031 38 291.786 40.4853 291.402 42.448C291.018 44.4107 290.463 45.9573 289.738 47.088C289.013 48.1973 288.095 48.9867 286.986 49.456C285.898 49.904 284.586 50.128 283.05 50.128V46.32C283.839 46.32 284.522 46.1493 285.098 45.808C285.674 45.4667 286.154 44.848 286.538 43.952C286.943 43.056 287.263 41.7867 287.498 40.144C287.733 38.5013 287.893 36.3787 287.978 33.776L288.202 27.28H303.306V50H298.922ZM308.467 50V27.28H312.851V35.408H317.523C319.208 35.408 320.627 35.7067 321.779 36.304C322.952 36.9013 323.838 37.744 324.435 38.832C325.054 39.8987 325.363 41.168 325.363 42.64C325.363 44.0907 325.064 45.3707 324.467 46.48C323.891 47.5893 323.038 48.4533 321.907 49.072C320.776 49.6907 319.4 50 317.779 50H308.467ZM312.851 46.416H317.171C318.024 46.416 318.728 46.2453 319.283 45.904C319.838 45.5627 320.243 45.1147 320.499 44.56C320.755 43.984 320.883 43.344 320.883 42.64C320.883 42.0213 320.755 41.4347 320.499 40.88C320.264 40.3253 319.87 39.8773 319.315 39.536C318.782 39.1733 318.056 38.992 317.139 38.992H312.851V46.416ZM328.942 50V27.28H333.358V46.128H340.302V27.28H344.718V46.128H351.662V27.28H356.078V50H328.942ZM376.913 46.128V50H361.137V27.28H376.625V31.152H365.553V36.624H375.121V40.208H365.553V46.128H376.913Z" fill="#030303"/>
<path d="M396.5 48L414.5 30M414.5 30V44M414.5 30H401" stroke="black" stroke-width="3"/>
<path d="M1 77.5L24.5 0.5H52L54.5 77.5H1Z" fill="#E3B7F5" stroke="#E3B7F5"/>
</svg>
