<svg width="894" height="524" viewBox="0 0 894 524" fill="none" xmlns="http://www.w3.org/2000/svg">
<rect width="894" height="524" fill="#6D61FF"/>
<g clip-path="url(#clip0_1164_1352)">
<g clip-path="url(#clip1_1164_1352)">
<path d="M716.099 225.65L742 145.403L716.289 67.3447L715.259 52.2124L701.464 78.0921L687.679 52.2124L673.893 78.0921L647.482 62.2806L673.064 125.766L647.162 186.385L673.064 247.005L647.162 307.624L672.774 370.97L647.012 355.298L633.907 381.178L624.79 363.159L634.117 355.667L604.947 344.271L622.461 318.331L591.231 315.714L601.128 286.019L570.229 291.313L572.938 260.119L543.918 272.005L540.199 240.902L514.018 258.161L504.631 228.266L481.929 249.891L467.544 222.044L448.78 247.154L430.016 222.044L415.631 249.891L392.929 228.266L383.542 258.161L357.361 240.902L353.643 272.005L324.622 260.119L327.332 291.313L296.432 286.019L306.329 315.714L275.099 318.331L292.613 344.261L263.443 355.657L272.6 364.407L264.123 381.158L251.018 355.278L225.256 370.95L250.868 307.604L224.966 246.985L250.868 186.365L224.966 125.746L250.548 62.2606L224.137 78.0721L210.321 52.2124L196.536 78.0921L182.741 52.2124L181.711 67.3447L156 145.403L181.901 225.65L156 305.896L181.901 386.152L156.64 470.433L196.656 455.211L221.888 482.759L250.428 458.657L262.214 471.522L288.115 507.799L262.214 538.893L288.115 569.987L262.214 601.07L288.115 632.154L262.214 663.248L288.115 694.341L262.214 725.435L288.115 756.528L262.214 787.622L285.296 810.655L299.961 831.661L324.762 805.781L344.456 826.337L310.187 912.426H438.763L404.425 826.157L423.939 805.791L448.73 831.671L473.532 805.791L493.395 826.527L459.197 912.436H587.773L553.364 825.997L572.718 805.801L597.519 831.681L612.194 810.675L635.276 787.652L609.375 756.568L635.276 725.485L609.375 694.391L635.276 663.297L609.375 632.204L635.276 601.12L609.375 570.037L635.276 538.943L609.375 507.849L630.948 476.776L647.522 458.677L676.062 482.779L701.294 455.231L741.31 470.453L716.049 386.172L741.95 305.916L716.049 225.669L716.099 225.65Z" fill="#040000"/>
</g>
</g>
<defs>
<clipPath id="clip0_1164_1352">
<rect width="586" height="471" fill="white" transform="translate(155 52)"/>
</clipPath>
<clipPath id="clip1_1164_1352">
<rect width="604" height="474" fill="white" transform="translate(148 52)"/>
</clipPath>
</defs>
</svg>
