<svg width="894" height="524" viewBox="0 0 894 524" fill="none" xmlns="http://www.w3.org/2000/svg">
<rect width="894" height="524" fill="#3FAD78"/>
<g clip-path="url(#clip0_1164_1358)">
<path d="M659.516 685.666L674.456 628.004L635.797 582.777L650.736 525.115L612.078 479.878L627.017 422.216L588.368 376.989L599.786 329.954L678.878 257.45V49.7153L575.359 284.616H572.546L565.816 277.282L563.481 257.173L549.002 284.616H548.845L534.366 257.173L519.886 284.616H519.73L505.25 257.173L490.77 284.616H490.614L476.125 257.173L461.636 284.616H461.489L447 257.173L432.52 284.616H432.364L417.884 257.173L403.405 284.616H403.248L388.769 257.173L374.289 284.616H374.133L359.653 257.173L345.164 284.616H345.008L330.519 257.173L328.184 277.291L321.638 284.616H318.641L215.122 49.7153V257.45L293.23 329.05L305.641 376.971L266.983 422.198L281.922 479.869L243.273 525.097L258.203 582.758L219.554 627.995L234.484 685.666L196 737.775L235.642 720.212L262.055 747.811L288.477 720.212L307.406 739.989L297.643 793.731H386.277L376.311 738.845L394.147 720.212L420.578 747.811L447 720.212L473.413 747.811L499.826 720.212L517.679 738.864L507.723 793.731H596.348L586.594 739.961L605.505 720.212L631.927 747.811L658.349 720.212L698 737.784L659.516 685.666Z" fill="#111111"/>
</g>
<defs>
<clipPath id="clip0_1164_1358">
<rect width="502" height="474.285" fill="white" transform="translate(196 49.7153)"/>
</clipPath>
</defs>
</svg>
