<svg width="1006" height="469" viewBox="0 0 1006 469" fill="none" xmlns="http://www.w3.org/2000/svg">
<path d="M945.571 321.419H912.391V357.639H945.571V321.419Z" fill="url(#paint0_linear_1154_1153)"/>
<path d="M958.54 299.949L945.57 321.419V357.639H971.52V321.419L958.54 299.949Z" fill="url(#paint1_linear_1154_1153)"/>
<path d="M912.391 321.419L925.721 299.949H958.541L945.571 321.419H912.391Z" fill="url(#paint2_linear_1154_1153)"/>
<path d="M927.971 327.499H916.691V333.569H927.971V327.499Z" fill="white"/>
<path d="M941.11 339.529H929.83V345.599H941.11V339.529Z" fill="white"/>
<path d="M794.371 359.95H766.391V395.08H794.371V359.95Z" fill="url(#paint3_linear_1154_1153)"/>
<path d="M755.06 340.32L743.73 359.95V395.08H766.391V359.95L755.06 340.32Z" fill="url(#paint4_linear_1154_1153)"/>
<path d="M755.061 340.32H781.251L794.371 359.95H766.391L755.061 340.32Z" fill="url(#paint5_linear_1154_1153)"/>
<path d="M759.28 363.36H750.84V390.22H759.28V363.36Z" fill="white"/>
<path d="M785.891 368.73H776.781V386.3H785.891V368.73Z" fill="white"/>
<path d="M235.909 417.109H199.479V439.949H235.909V417.109Z" fill="url(#paint6_linear_1154_1153)"/>
<path d="M184.289 393.26L169.109 417.11V439.96H199.479V417.11L184.289 393.26Z" fill="url(#paint7_linear_1154_1153)"/>
<path d="M235.909 417.11L221.019 393.26H184.289L199.479 417.11H235.909Z" fill="url(#paint8_linear_1154_1153)"/>
<path d="M230.269 423.2H205.109V428.4H230.269V423.2Z" fill="white"/>
<path d="M189.789 414.12H178.799V421.93H189.789V414.12Z" fill="white"/>
<path d="M237.169 446.189L221.559 424.929L226.759 418.699L237.169 430.139L235.439 410.619H244.539V437.939L254.949 422.759L262.329 423.199L255.819 439.679L269.699 430.569L278.369 437.509" stroke="#3FA678" stroke-width="2" stroke-miterlimit="10"/>
<path d="M939.679 217.141L963.479 205.781L961.829 197.831L947.249 202.991L957.999 186.611L949.969 182.311L937.069 206.391L935.059 188.091L928.359 184.991L926.309 202.601L918.379 188.011L907.449 190.031" stroke="#3FA678" stroke-width="2" stroke-miterlimit="10"/>
<path d="M860.138 421.16L880.388 421.55L879.128 413.4L869.008 413.21L883.308 397.83L872.458 388.98L864.118 407.16L855.578 391.58L849.578 392.5L852.118 409.01" stroke="#3FA678" stroke-width="2" stroke-miterlimit="10"/>
<path d="M764.68 316.719L781.63 305.649L776.01 299.619L767.54 305.159L770.71 284.399L756.75 283.189L760.1 302.899L744.27 294.829L739.82 298.969L751.21 311.189" stroke="#3FA678" stroke-width="2" stroke-miterlimit="10"/>
<path d="M1005.88 51.0703C987.86 59.7803 969.47 67.3903 950.64 73.1403C937.91 77.0303 924.76 80.0603 911.56 82.1603L911.45 82.1803C897.87 84.4003 883.67 85.6303 868.63 86.9303C824.93 90.7103 775.4 94.9903 735.96 127.5C707.78 150.23 696.29 182.55 686.15 211.06C684.15 216.68 682.27 221.98 680.3 227.12C670.87 251.59 658.4 272.09 643.24 288.05L643.03 288.27C630.52 301.76 622.22 300.99 619.49 300.73C604.37 299.32 583.56 279.74 563.84 248.37L563.62 248.03C560.57 243.35 557.63 238.54 554.52 233.46C546.33 220.07 537.87 206.23 526.58 193.48C510.55 174.86 489 163.26 467.42 161.64C449.01 160.26 431.73 166.04 417.44 178.37L416.81 178.93C389.31 204.34 383.35 244.06 378.1 279.11C374.5 303.17 370.77 328.05 360.79 341.43L360.63 341.64C351.19 354.58 334.26 352.1 327.42 350.43L326.96 350.32C316.39 347.96 305.65 343.15 294.27 338.07C289.63 335.99 284.83 333.85 279.91 331.82C239.57 313.75 192.15 310.5 146.31 322.68C101.95 334.47 61.54 359.87 32.56 394.19C13 417.27 3.17 439.43 0 468.48H50.4C52.94 452.28 58.84 440.52 70.73 426.5C117.5 371.12 198.76 350.1 259.74 377.59L260.49 377.91C264.85 379.71 269.23 381.66 273.86 383.74C286.92 389.58 300.42 395.62 315.8 399.08C323.37 400.91 330.86 401.79 338.15 401.79C363.58 401.79 386.5 390.95 400.94 371.23C418.36 347.8 423.03 316.65 427.54 286.53C431.74 258.52 436.07 229.57 450.41 215.97C454.49 212.56 458.7 211.14 463.66 211.52C471.9 212.14 481.52 217.77 488.76 226.22L489.05 226.55C497.46 236.01 504.45 247.45 511.86 259.57C514.98 264.67 518.2 269.94 521.6 275.17C551.18 322.17 582.55 347.53 614.83 350.54C631.05 352.06 655.42 348.4 679.58 322.4C699.23 301.69 715.17 275.69 726.97 245.07C729.17 239.32 731.25 233.48 733.26 227.83C741.96 203.36 750.18 180.24 767.42 166.38L767.68 166.17C795.13 143.48 832.92 140.22 872.94 136.76C888.24 135.44 904.05 134.07 919.49 131.55C934.95 129.09 950.35 125.54 965.25 120.98C979.17 116.73 992.69 111.68 1005.89 106.05V51.0903L1005.88 51.0703Z" fill="#95D4F8"/>
<path d="M150.309 287.609C150.309 287.609 116.909 287.609 150.309 340.959C183.709 287.609 150.309 287.609 150.309 287.609Z" fill="#6D61FF"/>
<path d="M150.31 312.549C145.17 312.549 140.99 308.369 140.99 303.229C140.99 298.089 145.17 293.909 150.31 293.909C155.45 293.909 159.63 298.089 159.63 303.229C159.63 308.369 155.45 312.549 150.31 312.549ZM150.31 294.909C145.72 294.909 141.99 298.639 141.99 303.229C141.99 307.819 145.72 311.549 150.31 311.549C154.9 311.549 158.63 307.819 158.63 303.229C158.63 298.639 154.9 294.909 150.31 294.909Z" fill="#040000"/>
<path d="M623.001 260.939C623.001 260.939 589.601 260.939 623.001 314.289C656.401 260.939 623.001 260.939 623.001 260.939Z" fill="#6D61FF"/>
<path d="M623 285.869C617.86 285.869 613.68 281.689 613.68 276.549C613.68 271.409 617.86 267.229 623 267.229C628.14 267.229 632.32 271.409 632.32 276.549C632.32 281.689 628.14 285.869 623 285.869ZM623 268.229C618.41 268.229 614.68 271.959 614.68 276.549C614.68 281.139 618.41 284.869 623 284.869C627.59 284.869 631.32 281.139 631.32 276.549C631.32 271.959 627.59 268.229 623 268.229Z" fill="#040000"/>
<path d="M343.669 317.01C343.669 317.01 310.269 317.01 343.669 370.36C377.069 317.01 343.669 317.01 343.669 317.01Z" fill="#6D61FF"/>
<path d="M343.679 341.95C338.539 341.95 334.359 337.77 334.359 332.63C334.359 327.49 338.539 323.31 343.679 323.31C348.819 323.31 352.999 327.49 352.999 332.63C352.999 337.77 348.819 341.95 343.679 341.95ZM343.679 324.31C339.089 324.31 335.359 328.04 335.359 332.63C335.359 337.22 339.089 340.95 343.679 340.95C348.269 340.95 351.999 337.22 351.999 332.63C351.999 328.04 348.269 324.31 343.679 324.31Z" fill="#040000"/>
<path d="M774.719 82.9492C774.719 82.9492 741.319 82.9492 774.719 136.299C808.119 82.9492 774.719 82.9492 774.719 82.9492Z" fill="#6D61FF"/>
<path d="M774.72 107.889C769.58 107.889 765.4 103.709 765.4 98.569C765.4 93.429 769.58 89.249 774.72 89.249C779.86 89.249 784.04 93.429 784.04 98.569C784.04 103.709 779.86 107.889 774.72 107.889ZM774.72 90.249C770.13 90.249 766.4 93.979 766.4 98.569C766.4 103.159 770.13 106.889 774.72 106.889C779.31 106.889 783.04 103.159 783.04 98.569C783.04 93.979 779.31 90.249 774.72 90.249Z" fill="#040000"/>
<path d="M483.07 93.9902L486.24 84.1602L483.09 74.6002L482.96 72.7502L481.27 75.9202L479.58 72.7502L477.89 75.9202L474.66 73.9802L477.79 81.7502L474.62 89.1702L477.79 96.5902L474.62 104.01L477.75 111.77L474.6 109.85L473 113.02L471.88 110.81L473.02 109.89L469.45 108.49L471.59 105.31L467.77 104.99L468.98 101.35L465.2 102L465.53 98.1802L461.98 99.6402L461.53 95.8302L458.33 97.9402L457.18 94.2802L454.4 96.9302L452.64 93.5202L450.34 96.6002L448.04 93.5202L446.28 96.9302L443.5 94.2802L442.35 97.9402L439.15 95.8302L438.7 99.6402L435.15 98.1802L435.48 102L431.7 101.35L432.91 104.99L429.09 105.31L431.23 108.49L427.66 109.89L428.78 110.96L427.74 113.01L426.14 109.84L422.99 111.76L426.12 104L422.95 96.5802L426.12 89.1602L422.95 81.7402L426.08 73.9702L422.85 75.9102L421.16 72.7402L419.47 75.9102L417.78 72.7402L417.65 74.5902L414.5 84.1502L417.67 93.9802L414.5 103.81L417.67 113.64L414.58 123.96L419.48 122.1L422.57 125.47L426.06 122.52L427.5 124.1L430.67 128.54L427.5 132.35L430.67 136.16L427.5 139.97L430.67 143.78L427.5 147.59L430.67 151.4L427.5 155.21L430.67 159.02L427.5 162.83L430.32 165.65L432.11 168.22L435.14 165.05L437.55 167.57L433.36 178.11H449.09L444.89 167.55L447.28 165.06L450.31 168.23L453.34 165.06L455.77 167.6L451.59 178.12H467.32L463.11 167.54L465.48 165.07L468.51 168.24L470.31 165.67L473.13 162.85L469.96 159.04L473.13 155.23L469.96 151.42L473.13 147.61L469.96 143.8L473.13 139.99L469.96 136.18L473.13 132.37L469.96 128.56L472.6 124.76L474.63 122.54L478.12 125.49L481.21 122.12L486.11 123.98L483.02 113.66L486.19 103.83L483.02 94.0002L483.07 93.9902ZM470.16 112.34L470.05 112.31L470.25 112.15L470.15 112.34H470.16Z" fill="#6D61FF"/>
<path opacity="0.5" d="M440.48 121.01C444.29 121.01 447.38 117.92 447.38 114.11C447.38 110.3 444.29 107.21 440.48 107.21C436.67 107.21 433.58 110.3 433.58 114.11C433.58 117.92 436.67 121.01 440.48 121.01Z" fill="#92D1F5"/>
<path fill-rule="evenodd" clip-rule="evenodd" d="M440.48 107.54C436.85 107.54 433.91 110.48 433.91 114.11C433.91 117.74 436.85 120.68 440.48 120.68C444.11 120.68 447.05 117.74 447.05 114.11C447.05 110.48 444.11 107.54 440.48 107.54ZM433.57 114.11C433.57 110.3 436.66 107.21 440.47 107.21C444.28 107.21 447.37 110.3 447.37 114.11C447.37 117.92 444.28 121.01 440.47 121.01C436.66 121.01 433.57 117.92 433.57 114.11Z" fill="#040000"/>
<path opacity="0.5" d="M460.3 121.01C464.11 121.01 467.2 117.92 467.2 114.11C467.2 110.3 464.11 107.21 460.3 107.21C456.49 107.21 453.4 110.3 453.4 114.11C453.4 117.92 456.49 121.01 460.3 121.01Z" fill="#92D1F5"/>
<path fill-rule="evenodd" clip-rule="evenodd" d="M460.3 107.54C456.67 107.54 453.73 110.48 453.73 114.11C453.73 117.74 456.67 120.68 460.3 120.68C463.93 120.68 466.87 117.74 466.87 114.11C466.87 110.48 463.93 107.54 460.3 107.54ZM453.4 114.11C453.4 110.3 456.49 107.21 460.3 107.21C464.11 107.21 467.2 110.3 467.2 114.11C467.2 117.92 464.11 121.01 460.3 121.01C456.49 121.01 453.4 117.92 453.4 114.11Z" fill="#040000"/>
<path fill-rule="evenodd" clip-rule="evenodd" d="M453.401 114.29H447.381V113.94H453.401V114.29Z" fill="#040000"/>
<path d="M440.48 115C440.97 115 441.36 114.6 441.36 114.12C441.36 113.64 440.96 113.24 440.48 113.24C440 113.24 439.6 113.64 439.6 114.12C439.6 114.6 440 115 440.48 115Z" fill="#040000"/>
<path d="M460.3 115C460.79 115 461.19 114.6 461.19 114.12C461.19 113.64 460.79 113.24 460.3 113.24C459.81 113.24 459.42 113.64 459.42 114.12C459.42 114.6 459.82 115 460.3 115Z" fill="#040000"/>
<path d="M733.599 132.991L727.729 126.371L718.949 127.411L713.079 120.791L704.289 121.821L698.419 115.201L689.629 116.241L684.779 110.941L682.409 95.1509L656.789 77.9609L677.159 110.211L676.929 110.561L675.469 110.781L672.789 109.411L674.969 113.471L674.959 113.491L670.369 113.011L672.559 117.071L672.539 117.091L667.959 116.611L670.139 120.681L670.129 120.691L665.539 120.211L667.719 124.281L667.709 124.301L663.119 123.821L665.299 127.881L665.289 127.901L660.699 127.421L662.879 131.481L662.869 131.501L658.289 131.021L660.469 135.091L660.449 135.101L655.869 134.631L658.049 138.691L658.039 138.711L653.449 138.231L655.729 140.181L656.099 141.601L655.849 141.971L618.289 135.341L643.899 152.531L659.209 148.791L666.149 151.221L668.519 159.751L676.869 162.671L679.239 171.201L687.589 174.121L689.959 182.651L698.309 185.571L701.539 194.641L702.669 188.291L708.259 187.301L707.049 181.751L711.059 181.041L716.879 186.701L724.239 175.731L716.639 172.421L715.829 168.681L721.419 167.691L720.219 162.141L725.809 161.151L724.599 155.601L728.379 154.941L734.319 160.711L741.679 149.741L734.239 146.501L733.379 142.531L738.969 141.541L737.759 135.991L743.219 132.541L733.599 132.991Z" fill="#FF9259"/>
<path opacity="0.5" d="M679.641 148L675.771 136.16L667.221 148.9L679.641 147.99V148Z" fill="#94CFF0"/>
<path fill-rule="evenodd" clip-rule="evenodd" d="M666.92 148.96L675.71 135.86L679.81 148.11L666.92 148.96ZM667.4 148.69L679.48 147.9L675.64 136.42L667.4 148.69Z" fill="#060303"/>
<path d="M674.68 144.67C674.88 144.38 674.8 143.98 674.51 143.78C674.22 143.58 673.82 143.66 673.62 143.95C673.42 144.24 673.5 144.64 673.79 144.84C674.08 145.04 674.48 144.96 674.68 144.67Z" fill="#060303"/>
<path opacity="0.5" d="M691.76 129.941L687.89 118.101L679.34 130.841L691.76 129.931V129.941Z" fill="#94CFF0"/>
<path fill-rule="evenodd" clip-rule="evenodd" d="M679.039 130.911L687.829 117.811L691.929 130.061L679.039 130.911ZM679.519 130.631L691.599 129.841L687.759 118.361L679.519 130.631Z" fill="#060303"/>
<path d="M686.799 126.621C686.999 126.331 686.919 125.931 686.629 125.731C686.339 125.531 685.939 125.611 685.739 125.901C685.539 126.191 685.619 126.591 685.909 126.791C686.199 126.991 686.599 126.911 686.799 126.621Z" fill="#060303"/>
<path fill-rule="evenodd" clip-rule="evenodd" d="M679.46 130.671L675.78 136.161L675.6 136.041L679.28 130.551L679.46 130.671Z" fill="#060303"/>
<path d="M30.4911 339.13L29.4211 341.81L32.2811 341.43L31.3911 344.18L34.2211 343.61L33.5211 346.41L36.3011 345.64L35.8011 348.48L37.8911 347.74L21.8411 367.49L50.1011 395.97L37.5411 367.59L47.6311 361.42L43.4111 371.3L71.3411 386.93L55.4811 367.93L68.9311 353.29L87.5211 346.26L99.2511 368.05L95.1411 336.31L84.4011 336.55L93.8811 329.49L115.541 351.7L99.6311 314.87L75.3211 322.42L76.7911 320.76L73.9611 320.17L75.7111 317.87L72.8511 317.48L74.4311 315.06L71.5511 314.87L72.9711 312.35H70.0811L71.3311 309.75L68.4511 309.94L69.5211 307.26L66.6611 307.63L67.5511 304.89L64.7211 305.46L65.4211 302.66L62.6411 303.43L63.1411 300.58L60.4211 301.55L60.7111 298.68L58.0711 299.84L58.1411 296.96L55.6011 298.33L55.4311 295.45L53.0211 297.03L52.6011 294.17L50.3411 295.97L49.6511 293.16L47.5811 295.17L46.6111 292.45L44.7711 294.67L43.4911 292.08L41.9311 294.51L40.3411 292.09L39.1011 294.7L37.2011 292.53L36.3511 295.29L34.1511 293.42L33.7311 296.28L31.2611 294.77L31.2911 297.66L28.6211 296.56L29.1011 299.4L26.2911 298.73L27.2111 301.47L24.3311 301.24L25.6411 303.81L22.7611 303.99L24.4111 306.36L21.5711 306.91L23.5011 309.05L20.7611 309.94L22.9211 311.85L20.2811 313.03L22.6311 314.71L20.1211 316.14L22.6211 317.59L20.2511 319.24L22.8711 320.47L20.6511 322.32L23.3511 323.33L21.2811 325.34L24.0611 326.14L22.1511 328.31L24.9811 328.9L23.2311 331.2L26.0911 331.59L24.5111 334L27.3911 334.2L25.9711 336.71H28.8611L27.6111 339.32L30.4911 339.13Z" fill="#3FA678"/>
<path fill-rule="evenodd" clip-rule="evenodd" d="M43.8503 337.74C44.1303 337.55 44.2103 337.16 44.0203 336.88C43.8303 336.6 43.4403 336.52 43.1603 336.71C42.8803 336.9 42.8003 337.29 42.9903 337.57C43.1803 337.85 43.5703 337.93 43.8503 337.74Z" fill="#040000"/>
<path d="M63.716 324.307C63.9997 324.115 64.0741 323.73 63.8823 323.446C63.6905 323.162 63.305 323.088 63.0214 323.28C62.7377 323.471 62.6633 323.857 62.8551 324.141C63.047 324.424 63.4324 324.499 63.716 324.307Z" fill="#040000"/>
<path fill-rule="evenodd" clip-rule="evenodd" d="M67.8004 315.87L54.5004 324.87C54.1604 325.1 54.0704 325.57 54.3004 325.91L55.8604 328.21L50.5204 331.83L48.9604 329.53C48.7304 329.19 48.2604 329.1 47.9204 329.33L34.6204 338.33C34.2804 338.56 34.1904 339.03 34.4204 339.37L37.2804 343.6C37.9804 344.63 39.3804 344.9 40.4104 344.2L51.2204 336.89C52.2504 336.19 52.5204 334.79 51.8204 333.76L51.1104 332.7L56.4504 329.08L57.1604 330.14C57.8604 331.17 59.2604 331.44 60.2904 330.74L71.1004 323.43C72.1304 322.73 72.4004 321.33 71.7004 320.3L68.8404 316.07C68.6104 315.73 68.1404 315.64 67.8004 315.87ZM50.9504 334.34C51.3204 334.89 51.1804 335.64 50.6304 336.01L39.8204 343.32C39.2704 343.69 38.5204 343.55 38.1504 343L35.4604 339.02L48.2604 330.36L50.9504 334.34ZM70.8304 320.89C71.2004 321.44 71.0604 322.19 70.5104 322.56L59.7004 329.87C59.1504 330.24 58.4004 330.1 58.0304 329.55L55.3404 325.57L68.1404 316.91L70.8304 320.89Z" fill="#040000"/>
<path d="M818.779 184.54H784.949V256.11H818.779V184.54Z" fill="url(#paint9_linear_1154_1153)"/>
<path d="M827.239 174.57L818.779 184.54V256.11H835.699V184.54L827.239 174.57Z" fill="url(#paint10_linear_1154_1153)"/>
<path d="M827.239 174.57H798.249L784.949 184.54H818.779L827.239 174.57Z" fill="url(#paint11_linear_1154_1153)"/>
<path d="M801.869 193.94H790.299V199.72H801.869V193.94Z" fill="white"/>
<path d="M813.439 223.721H801.869V229.501H813.439V223.721Z" fill="white"/>
<path d="M833.029 193.94H821.459V199.72H833.029V193.94Z" fill="white"/>
<path d="M833.029 238.761H821.459V244.541H833.029V238.761Z" fill="white"/>
<path d="M310.159 239.379C304.879 239.379 302.339 235.079 300.099 231.289C297.779 227.359 296.149 224.969 293.129 224.969C290.109 224.969 288.489 227.359 286.169 231.289C283.929 235.079 281.389 239.379 276.109 239.379C270.829 239.379 268.289 235.079 266.049 231.289C263.729 227.359 262.099 224.969 259.089 224.969C256.079 224.969 254.449 227.359 252.129 231.289C249.889 235.079 247.349 239.379 242.069 239.379C236.789 239.379 234.249 235.079 232.009 231.289C229.689 227.359 228.059 224.969 225.049 224.969C222.039 224.969 220.409 227.359 218.089 231.289C215.849 235.079 213.309 239.379 208.029 239.379C202.749 239.379 200.209 235.079 197.969 231.289C195.649 227.359 194.019 224.969 191.009 224.969C187.999 224.969 186.369 227.359 184.049 231.289C181.809 235.079 179.269 239.379 173.989 239.379C168.709 239.379 166.169 235.079 163.929 231.289C161.609 227.359 159.979 224.969 156.969 224.969V221.369C162.249 221.369 164.789 225.669 167.029 229.459C169.349 233.389 170.979 235.779 173.989 235.779C176.999 235.779 178.629 233.389 180.949 229.459C183.189 225.669 185.729 221.369 191.009 221.369C196.289 221.369 198.829 225.669 201.069 229.459C203.389 233.389 205.019 235.779 208.029 235.779C211.039 235.779 212.669 233.389 214.989 229.459C217.229 225.669 219.769 221.369 225.049 221.369C230.329 221.369 232.869 225.669 235.109 229.459C237.429 233.389 239.059 235.779 242.069 235.779C245.079 235.779 246.709 233.389 249.029 229.459C251.269 225.669 253.809 221.369 259.089 221.369C264.369 221.369 266.909 225.669 269.149 229.459C271.469 233.389 273.099 235.779 276.109 235.779C279.119 235.779 280.749 233.389 283.069 229.459C285.309 225.669 287.849 221.369 293.129 221.369C298.409 221.369 300.949 225.669 303.199 229.459C305.519 233.389 307.149 235.779 310.159 235.779C313.169 235.779 314.799 233.389 317.129 229.459C319.369 225.669 321.909 221.369 327.199 221.369V224.969C324.189 224.969 322.559 227.359 320.229 231.289C317.989 235.079 315.449 239.379 310.159 239.379Z" fill="#8CCBEF"/>
<path d="M310.159 263.559C304.879 263.559 302.339 259.259 300.099 255.469C297.779 251.539 296.149 249.149 293.129 249.149C290.109 249.149 288.489 251.539 286.169 255.469C283.929 259.259 281.389 263.559 276.109 263.559C270.829 263.559 268.289 259.259 266.049 255.469C263.729 251.539 262.099 249.149 259.089 249.149C256.079 249.149 254.449 251.539 252.129 255.469C249.889 259.259 247.349 263.559 242.069 263.559C236.789 263.559 234.249 259.259 232.009 255.469C229.689 251.539 228.059 249.149 225.049 249.149C222.039 249.149 220.409 251.539 218.089 255.469C215.849 259.259 213.309 263.559 208.029 263.559C202.749 263.559 200.209 259.259 197.969 255.469C195.649 251.539 194.019 249.149 191.009 249.149C187.999 249.149 186.369 251.539 184.049 255.469C181.809 259.259 179.269 263.559 173.989 263.559C168.709 263.559 166.169 259.259 163.929 255.469C161.609 251.539 159.979 249.149 156.969 249.149V245.549C162.249 245.549 164.789 249.849 167.029 253.639C169.349 257.569 170.979 259.959 173.989 259.959C176.999 259.959 178.629 257.569 180.949 253.639C183.189 249.849 185.729 245.549 191.009 245.549C196.289 245.549 198.829 249.849 201.069 253.639C203.389 257.569 205.019 259.959 208.029 259.959C211.039 259.959 212.669 257.569 214.989 253.639C217.229 249.849 219.769 245.549 225.049 245.549C230.329 245.549 232.869 249.849 235.109 253.639C237.429 257.569 239.059 259.959 242.069 259.959C245.079 259.959 246.709 257.569 249.029 253.639C251.269 249.849 253.809 245.549 259.089 245.549C264.369 245.549 266.909 249.849 269.149 253.639C271.469 257.569 273.099 259.959 276.109 259.959C279.119 259.959 280.749 257.569 283.069 253.639C285.309 249.849 287.849 245.549 293.129 245.549C298.409 245.549 300.949 249.849 303.199 253.639C305.519 257.569 307.149 259.959 310.159 259.959C313.169 259.959 314.799 257.569 317.129 253.639C319.369 249.849 321.909 245.549 327.199 245.549V249.149C324.189 249.149 322.559 251.539 320.229 255.469C317.989 259.259 315.449 263.559 310.159 263.559Z" fill="#8CCBEF"/>
<path d="M243.551 51.2598H240.551V181.96H243.551V51.2598Z" fill="#AEA9FF"/>
<path d="M162.441 176.34L182.991 209.72H304.971L321.671 176.34H162.441Z" fill="url(#paint12_linear_1154_1153)"/>
<path d="M247.223 61.6299V172.06C247.223 172.06 262.633 158.36 295.163 158.36L247.223 61.6299Z" fill="url(#paint13_linear_1154_1153)"/>
<path d="M237.802 72.7598C237.802 72.7598 222.392 134.39 231.812 172.06L186.012 156.65C186.012 156.65 182.162 91.5898 237.802 72.7598Z" fill="url(#paint14_linear_1154_1153)"/>
<path d="M466.762 428.48C466.762 428.48 493.962 330.73 532.682 330.36C571.402 329.99 603.282 428.48 603.282 428.48H466.762Z" fill="url(#paint15_linear_1154_1153)"/>
<path d="M514.561 361.29L520.371 352.23L528.811 367.79L532.451 345.73L535.031 358.04L538.721 352.47L547.551 361.06L551.031 348.29L556.601 356.08L562.521 348.08C553.481 337.5 543.371 330.26 532.681 330.37C520.531 330.48 509.511 340.19 500.111 353.46V366.87L509.221 352.24L514.561 361.3V361.29Z" fill="white"/>
<path d="M545.432 448.341C545.432 448.341 564.462 350.591 591.572 350.221C619.032 349.851 640.982 448.341 640.982 448.341H545.432Z" fill="url(#paint16_linear_1154_1153)"/>
<path d="M566.072 379.091L573.162 395.211L579.082 372.911L585.352 380.921L593.202 366.641L600.332 391.851L601.802 374.301L607.302 384.881L613.722 370.121C607.072 358.361 599.552 350.111 591.572 350.221C581.872 350.351 573.212 362.951 566.082 379.081L566.072 379.091Z" fill="white"/>
<path d="M429.512 444.261C429.512 444.261 448.542 346.511 475.652 346.141C503.112 345.771 525.062 444.261 525.062 444.261H429.512Z" fill="url(#paint17_linear_1154_1153)"/>
<path d="M450.152 375.011L457.242 391.131L463.162 368.831L469.432 376.841L477.282 362.561L484.412 387.771L485.882 370.221L491.382 380.801L497.802 366.041C491.152 354.281 483.632 346.031 475.652 346.141C465.952 346.271 457.292 358.871 450.162 375.001L450.152 375.011Z" fill="white"/>
<path d="M600.171 459.83C600.171 459.83 581.141 362.08 554.031 361.71C526.571 361.34 504.621 459.83 504.621 459.83H600.171Z" fill="url(#paint18_linear_1154_1153)"/>
<path d="M579.521 390.58L572.431 406.7L566.511 384.4L560.241 392.41L552.391 378.13L545.261 403.34L543.791 385.79L538.291 396.37L531.871 381.61C538.521 369.85 546.041 361.6 554.021 361.71C563.721 361.84 572.381 374.44 579.511 390.57L579.521 390.58Z" fill="white"/>
<path d="M869.909 248.439H816.129V268.169H869.909V248.439Z" fill="url(#paint19_linear_1154_1153)"/>
<path d="M882.818 226.609L869.918 248.439V268.179H895.718V248.439L882.818 226.609Z" fill="url(#paint20_linear_1154_1153)"/>
<path d="M816.129 248.439L828.929 226.609H882.819L869.919 248.439H816.129Z" fill="url(#paint21_linear_1154_1153)"/>
<path d="M866.448 253.649H854.738V259.719H866.448V253.649Z" fill="white"/>
<path d="M851.698 253.649H839.988V259.719H851.698V253.649Z" fill="white"/>
<path d="M887.808 246.06H877.828V259.72H887.808V246.06Z" fill="white"/>
<path d="M917.41 43.3897C940.65 21.8297 963.89 64.9497 987.14 43.3897C987.14 30.9997 987.14 18.6097 987.14 6.2297C963.9 27.7897 940.66 -15.3303 917.41 6.2297C917.41 18.6197 917.41 31.0097 917.41 43.3897Z" fill="url(#paint22_linear_1154_1153)"/>
<path d="M917.271 0H912.391V105.56H917.271V0Z" fill="url(#paint23_linear_1154_1153)"/>
<path d="M829.47 55.3608H812.3C810.26 55.3608 808.61 53.7108 808.61 51.6708V34.5008C808.61 30.0308 805.18 26.1908 800.71 25.9808C795.95 25.7608 792.01 29.5508 792.01 34.2708V63.3808C792.01 68.1108 795.85 71.9508 800.58 71.9508H829.69C834.41 71.9508 838.2 68.0208 837.98 63.2508C837.77 58.7908 833.93 55.3508 829.46 55.3508L829.47 55.3608Z" fill="url(#paint24_linear_1154_1153)"/>
<path d="M864.959 41.861C859.539 41.761 855.099 46.361 855.099 51.791V67.831C855.099 69.801 853.499 71.391 851.539 71.391H842.629C837.209 71.391 832.599 75.831 832.699 81.251C832.799 86.671 837.089 90.741 842.369 90.741H867.319C871.259 90.741 874.449 87.551 874.449 83.611V51.531C874.449 46.251 870.219 41.951 864.959 41.861Z" fill="url(#paint25_linear_1154_1153)"/>
<path d="M832.69 14.6406C825.41 14.6406 819.51 20.5406 819.51 27.8206V116.051H845.86V27.8206C845.86 20.5406 839.96 14.6406 832.68 14.6406H832.69Z" fill="url(#paint26_linear_1154_1153)"/>
<path d="M876.091 63.171L871.898 71.3262L872.939 71.8612L877.132 63.706L876.091 63.171Z" fill="#6D61FF"/>
<path d="M877.188 69.243L870.875 75.8936L871.724 76.6991L878.037 70.0485L877.188 69.243Z" fill="#6D61FF"/>
<path d="M866.353 52.0459L865.33 52.6133L869.777 60.6328L870.8 60.0654L866.353 52.0459Z" fill="#6D61FF"/>
<path d="M864.569 38.633L859.855 46.499L860.859 47.1004L865.572 39.2344L864.569 38.633Z" fill="#6D61FF"/>
<path d="M799.299 39.4709L794.645 47.3721L795.653 47.9659L800.307 40.0648L799.299 39.4709Z" fill="#6D61FF"/>
<path d="M797.992 20.8132L796.867 21.1338L799.379 29.953L800.505 29.6324L797.992 20.8132Z" fill="#6D61FF"/>
<path d="M804.933 46.5646L803.848 47.001L807.268 55.5092L808.354 55.0728L804.933 46.5646Z" fill="#6D61FF"/>
<path d="M802.573 20.7436L801.406 20.8291L802.076 29.9746L803.243 29.8891L802.573 20.7436Z" fill="#6D61FF"/>
<path d="M788.697 57.4396L787.988 58.3701L795.282 63.9283L795.991 62.9977L788.697 57.4396Z" fill="#6D61FF"/>
<path d="M839.223 49.8823L832.637 56.2627L833.451 57.103L840.037 50.7226L839.223 49.8823Z" fill="#6D61FF"/>
<path d="M847.915 63.057L844.381 71.5186L845.46 71.9695L848.995 63.5079L847.915 63.057Z" fill="#6D61FF"/>
<path d="M824.67 70.7005L823.936 71.6113L831.074 77.3673L831.808 76.4565L824.67 70.7005Z" fill="#6D61FF"/>
<path d="M849.927 87.0209L841.387 90.3594L841.813 91.4491L850.353 88.1106L849.927 87.0209Z" fill="#6D61FF"/>
<path d="M817.114 82.9987L816.158 83.6738L821.449 91.1634L822.405 90.4882L817.114 82.9987Z" fill="#6D61FF"/>
<path d="M830.175 21.7946L829.184 22.416L834.054 30.1858L835.045 29.5644L830.175 21.7946Z" fill="#6D61FF"/>
<path d="M844.807 16.5003L841.17 24.918L842.244 25.3821L845.881 16.9644L844.807 16.5003Z" fill="#6D61FF"/>
<path d="M815.892 33.947L815.285 34.9473L823.125 39.7044L823.732 38.7042L815.892 33.947Z" fill="#6D61FF"/>
<path d="M815.169 39.1292L814.939 40.2764L823.931 42.0779L824.161 40.9307L815.169 39.1292Z" fill="#6D61FF"/>
<path d="M813.773 91.445L813.299 92.5146L821.683 96.2298L822.157 95.1601L813.773 91.445Z" fill="#6D61FF"/>
<path d="M847.668 21.3014L841.895 28.4258L842.804 29.1624L848.577 22.038L847.668 21.3014Z" fill="#6D61FF"/>
<path d="M546.252 39.1795C548.555 39.1795 550.422 36.1037 550.422 32.3095C550.422 28.5153 548.555 25.4395 546.252 25.4395C543.949 25.4395 542.082 28.5153 542.082 32.3095C542.082 36.1037 543.949 39.1795 546.252 39.1795Z" fill="url(#paint27_linear_1154_1153)"/>
<path d="M546.253 36.8096C547.744 36.8096 548.953 34.7949 548.953 32.3096C548.953 29.8243 547.744 27.8096 546.253 27.8096C544.762 27.8096 543.553 29.8243 543.553 32.3096C543.553 34.7949 544.762 36.8096 546.253 36.8096Z" fill="#8CCBEF" stroke="#6D61FF" stroke-width="2" stroke-miterlimit="10" stroke-linecap="round"/>
<path d="M585.242 77.5199C585.242 77.5199 593.262 74.7399 597.512 71.7899C601.762 68.8399 591.372 66.8799 591.372 66.8799L586.222 69.9499C586.222 69.9499 586.872 75.7199 585.242 77.5099V77.5199Z" fill="url(#paint28_linear_1154_1153)"/>
<path d="M584.691 77.5203C586.994 77.5203 588.861 74.4445 588.861 70.6503C588.861 66.8561 586.994 63.7803 584.691 63.7803C582.388 63.7803 580.521 66.8561 580.521 70.6503C580.521 74.4445 582.388 77.5203 584.691 77.5203Z" fill="url(#paint29_linear_1154_1153)"/>
<path d="M584.692 75.1504C586.183 75.1504 587.392 73.1357 587.392 70.6504C587.392 68.1651 586.183 66.1504 584.692 66.1504C583.201 66.1504 581.992 68.1651 581.992 70.6504C581.992 73.1357 583.201 75.1504 584.692 75.1504Z" fill="#8CCBEF" stroke="#6D61FF" stroke-width="2" stroke-miterlimit="10" stroke-linecap="round"/>
<path d="M602.831 22.1C602.831 22.1 600.701 19.41 603.651 15.81C606.601 12.21 611.941 18.96 611.941 18.96L608.561 24.65L602.831 22.11V22.1Z" fill="url(#paint30_linear_1154_1153)"/>
<path d="M548.243 35.3299C548.243 35.3299 542.043 27.3599 540.723 15.8999C540.553 14.3999 541.403 12.9599 542.803 12.3899C544.533 11.6999 547.563 11.0599 552.853 11.0899C553.713 11.0899 554.553 11.4099 555.203 11.9699C558.743 15.0399 570.823 25.2899 575.403 26.4399C580.803 27.7899 548.243 35.3199 548.243 35.3199V35.3299Z" fill="url(#paint31_linear_1154_1153)"/>
<path d="M617.742 23.2302C606.372 21.2602 576.752 18.6502 544.212 36.2502C543.672 36.5402 543.202 36.9602 542.842 37.4602C541.892 38.7802 540.002 41.5302 539.092 43.7802C538.792 44.5202 538.292 45.1702 537.652 45.6502C535.322 47.4302 529.972 51.8802 529.712 55.3402C529.712 55.3402 527.262 62.3802 542.472 63.0302C557.052 63.6602 599.262 60.0802 620.042 28.5902C621.422 26.4902 620.212 23.6602 617.732 23.2402L617.742 23.2302Z" fill="url(#paint32_linear_1154_1153)"/>
<path d="M566.323 53.9897C568.983 50.7097 576.103 45.0997 594.763 41.7597C595.783 41.5797 596.833 41.8497 597.633 42.4997C603.213 47.0897 625.633 65.7196 626.493 70.0196C627.353 74.3196 612.893 75.4696 609.183 75.6996C608.623 75.7296 608.063 75.6697 607.523 75.5097C602.743 74.0597 604.013 77.5697 567.093 57.8397C565.683 57.0897 565.313 55.2397 566.313 53.9997L566.323 53.9897Z" fill="url(#paint33_linear_1154_1153)"/>
<path d="M610.091 31.8904C610.091 31.8904 613.691 35.8204 620.561 37.4504C623.571 38.1704 625.951 38.0404 627.681 37.6604C629.411 37.2804 630.191 35.1304 629.011 33.7404C627.071 31.4604 623.931 28.2504 620.561 26.6504C620.561 26.6504 609.761 29.1004 610.091 31.8904Z" fill="url(#paint34_linear_1154_1153)"/>
<path d="M606.992 27.2199C605.962 27.1999 605.312 26.0999 605.792 25.1799C608.022 20.9199 613.922 10.7699 621.242 6.88992C628.562 3.00992 624.022 17.5999 622.002 23.0899C621.532 24.3599 620.462 25.3099 619.152 25.6299C616.462 26.2899 611.592 27.2799 607.002 27.2099L606.992 27.2199Z" fill="#6D61FF"/>
<path d="M579.421 43.8704L578.401 44.3404C577.241 44.8804 575.891 44.1304 575.741 42.8604L575.491 40.8004C575.381 39.9204 575.901 39.0904 576.731 38.7904L577.851 38.3904C579.021 37.9704 580.271 38.7904 580.361 40.0304L580.511 42.0104C580.571 42.7904 580.131 43.5304 579.421 43.8604V43.8704Z" fill="#8CCBEF" stroke="#6D61FF" stroke-width="2" stroke-miterlimit="10"/>
<path d="M572.671 46.4104L571.651 46.8804C570.491 47.4204 569.141 46.6704 568.991 45.4004L568.741 43.3404C568.631 42.4604 569.151 41.6304 569.981 41.3304L571.101 40.9304C572.271 40.5104 573.521 41.3304 573.611 42.5704L573.761 44.5504C573.821 45.3304 573.381 46.0704 572.671 46.4004V46.4104Z" fill="#8CCBEF" stroke="#6D61FF" stroke-width="2" stroke-miterlimit="10"/>
<path d="M586.212 41.8098L585.192 42.2798C584.032 42.8198 582.682 42.0698 582.532 40.7998L582.282 38.7398C582.172 37.8598 582.692 37.0298 583.522 36.7298L584.642 36.3298C585.812 35.9098 587.062 36.7298 587.152 37.9698L587.302 39.9498C587.362 40.7298 586.922 41.4698 586.212 41.7998V41.8098Z" fill="#8CCBEF" stroke="#6D61FF" stroke-width="2" stroke-miterlimit="10"/>
<path d="M539.032 43.6298C539.032 43.6298 539.022 43.6498 539.012 43.6698C540.552 49.5698 549.602 51.2198 551.052 50.2498C551.972 49.6298 552.322 47.6998 552.452 46.3398C552.522 45.5698 552.012 44.8698 551.262 44.7098C544.802 43.2998 542.392 38.9098 542.092 38.2998" fill="#8CCBEF"/>
<path d="M539.032 43.6298C539.032 43.6298 539.022 43.6498 539.012 43.6698C540.552 49.5698 549.602 51.2198 551.052 50.2498C551.972 49.6298 552.322 47.6998 552.452 46.3398C552.522 45.5698 552.012 44.8698 551.262 44.7098C544.802 43.2998 542.392 38.9098 542.092 38.2998" stroke="#6D61FF" stroke-width="2" stroke-miterlimit="10"/>
<defs>
<linearGradient id="paint0_linear_1154_1153" x1="912.391" y1="339.529" x2="945.571" y2="339.529" gradientUnits="userSpaceOnUse">
<stop stop-color="#EDC96F"/>
<stop offset="1" stop-color="#6D61FF"/>
</linearGradient>
<linearGradient id="paint1_linear_1154_1153" x1="945.57" y1="328.799" x2="971.52" y2="328.799" gradientUnits="userSpaceOnUse">
<stop stop-color="#EDC96F"/>
<stop offset="1" stop-color="#6D61FF"/>
</linearGradient>
<linearGradient id="paint2_linear_1154_1153" x1="4.00132" y1="310.689" x2="958.541" y2="310.689" gradientUnits="userSpaceOnUse">
<stop stop-color="#EDC96F"/>
<stop offset="1" stop-color="#6D61FF"/>
</linearGradient>
<linearGradient id="paint3_linear_1154_1153" x1="766.391" y1="377.51" x2="794.371" y2="377.51" gradientUnits="userSpaceOnUse">
<stop stop-color="#FF9259"/>
<stop offset="1" stop-color="#AEA9FF"/>
</linearGradient>
<linearGradient id="paint4_linear_1154_1153" x1="743.73" y1="367.7" x2="766.391" y2="367.7" gradientUnits="userSpaceOnUse">
<stop stop-color="#FF9259"/>
<stop offset="1" stop-color="#AEA9FF"/>
</linearGradient>
<linearGradient id="paint5_linear_1154_1153" x1="755.061" y1="350.13" x2="5.00062" y2="350.13" gradientUnits="userSpaceOnUse">
<stop stop-color="#FF9259"/>
<stop offset="1" stop-color="#AEA9FF"/>
</linearGradient>
<linearGradient id="paint6_linear_1154_1153" x1="199.479" y1="428.529" x2="235.909" y2="428.529" gradientUnits="userSpaceOnUse">
<stop stop-color="#F3C3F0"/>
<stop offset="1" stop-color="#C5EA96"/>
</linearGradient>
<linearGradient id="paint7_linear_1154_1153" x1="169.109" y1="416.61" x2="199.479" y2="416.61" gradientUnits="userSpaceOnUse">
<stop stop-color="#F3C3F0"/>
<stop offset="1" stop-color="#C5EA96"/>
</linearGradient>
<linearGradient id="paint8_linear_1154_1153" x1="184.289" y1="405.19" x2="4.99903" y2="405.19" gradientUnits="userSpaceOnUse">
<stop stop-color="#F3C3F0"/>
<stop offset="1" stop-color="#C5EA96"/>
</linearGradient>
<linearGradient id="paint9_linear_1154_1153" x1="801.869" y1="238.54" x2="801.869" y2="204.71" gradientUnits="userSpaceOnUse">
<stop stop-color="#C5EA96"/>
<stop offset="1" stop-color="#3FA678"/>
</linearGradient>
<linearGradient id="paint10_linear_1154_1153" x1="827.239" y1="194.58" x2="827.239" y2="233.13" gradientUnits="userSpaceOnUse">
<stop stop-color="#C5EA96"/>
<stop offset="1" stop-color="#3FA678"/>
</linearGradient>
<linearGradient id="paint11_linear_1154_1153" x1="806.099" y1="177.01" x2="806.099" y2="181.73" gradientUnits="userSpaceOnUse">
<stop stop-color="#C5EA96"/>
<stop offset="1" stop-color="#3FA678"/>
</linearGradient>
<linearGradient id="paint12_linear_1154_1153" x1="162.441" y1="193.03" x2="321.671" y2="193.03" gradientUnits="userSpaceOnUse">
<stop stop-color="#EDC96F"/>
<stop offset="1" stop-color="#6D61FF"/>
</linearGradient>
<linearGradient id="paint13_linear_1154_1153" x1="247.223" y1="116.84" x2="295.163" y2="116.84" gradientUnits="userSpaceOnUse">
<stop stop-color="#FF9259"/>
<stop offset="1" stop-color="#AEA9FF"/>
</linearGradient>
<linearGradient id="paint14_linear_1154_1153" x1="185.952" y1="122.41" x2="237.802" y2="122.41" gradientUnits="userSpaceOnUse">
<stop stop-color="#FF9259"/>
<stop offset="1" stop-color="#AEA9FF"/>
</linearGradient>
<linearGradient id="paint15_linear_1154_1153" x1="466.762" y1="379.42" x2="603.282" y2="379.42" gradientUnits="userSpaceOnUse">
<stop stop-color="#EDC96F"/>
<stop offset="1" stop-color="#6D61FF"/>
</linearGradient>
<linearGradient id="paint16_linear_1154_1153" x1="545.432" y1="399.281" x2="640.982" y2="399.281" gradientUnits="userSpaceOnUse">
<stop stop-color="#EDC96F"/>
<stop offset="1" stop-color="#6D61FF"/>
</linearGradient>
<linearGradient id="paint17_linear_1154_1153" x1="429.512" y1="395.201" x2="525.062" y2="395.201" gradientUnits="userSpaceOnUse">
<stop stop-color="#EDC96F"/>
<stop offset="1" stop-color="#6D61FF"/>
</linearGradient>
<linearGradient id="paint18_linear_1154_1153" x1="600.161" y1="410.78" x2="504.611" y2="410.78" gradientUnits="userSpaceOnUse">
<stop stop-color="#EDC96F"/>
<stop offset="1" stop-color="#6D61FF"/>
</linearGradient>
<linearGradient id="paint19_linear_1154_1153" x1="816.129" y1="258.309" x2="869.919" y2="258.309" gradientUnits="userSpaceOnUse">
<stop stop-color="#F36F17"/>
<stop offset="1" stop-color="#F3C3F0"/>
</linearGradient>
<linearGradient id="paint20_linear_1154_1153" x1="869.918" y1="247.399" x2="895.718" y2="247.399" gradientUnits="userSpaceOnUse">
<stop stop-color="#F36F17"/>
<stop offset="1" stop-color="#F3C3F0"/>
</linearGradient>
<linearGradient id="paint21_linear_1154_1153" x1="3.99887" y1="237.529" x2="882.819" y2="237.529" gradientUnits="userSpaceOnUse">
<stop stop-color="#F36F17"/>
<stop offset="1" stop-color="#F3C3F0"/>
</linearGradient>
<linearGradient id="paint22_linear_1154_1153" x1="987.14" y1="24.7997" x2="917.42" y2="24.7997" gradientUnits="userSpaceOnUse">
<stop stop-color="#AEA9FF"/>
<stop offset="1" stop-color="#6D61FF"/>
</linearGradient>
<linearGradient id="paint23_linear_1154_1153" x1="912.391" y1="52.78" x2="917.271" y2="52.78" gradientUnits="userSpaceOnUse">
<stop stop-color="#C5EA96"/>
<stop offset="1" stop-color="#3FA678"/>
</linearGradient>
<linearGradient id="paint24_linear_1154_1153" x1="792.02" y1="48.9608" x2="838" y2="48.9608" gradientUnits="userSpaceOnUse">
<stop stop-color="#C5EA96"/>
<stop offset="1" stop-color="#F36F17"/>
</linearGradient>
<linearGradient id="paint25_linear_1154_1153" x1="832.689" y1="66.301" x2="874.449" y2="66.301" gradientUnits="userSpaceOnUse">
<stop stop-color="#C5EA96"/>
<stop offset="1" stop-color="#F36F17"/>
</linearGradient>
<linearGradient id="paint26_linear_1154_1153" x1="819.52" y1="65.3506" x2="845.87" y2="65.3506" gradientUnits="userSpaceOnUse">
<stop stop-color="#C5EA96"/>
<stop offset="1" stop-color="#F36F17"/>
</linearGradient>
<linearGradient id="paint27_linear_1154_1153" x1="542.082" y1="32.3095" x2="550.422" y2="32.3095" gradientUnits="userSpaceOnUse">
<stop stop-color="#F36F17"/>
<stop offset="1" stop-color="#F3C3F0"/>
</linearGradient>
<linearGradient id="paint28_linear_1154_1153" x1="585.242" y1="72.1999" x2="598.542" y2="72.1999" gradientUnits="userSpaceOnUse">
<stop stop-color="#F36F17"/>
<stop offset="1" stop-color="#F3C3F0"/>
</linearGradient>
<linearGradient id="paint29_linear_1154_1153" x1="580.521" y1="70.6503" x2="588.861" y2="70.6503" gradientUnits="userSpaceOnUse">
<stop stop-color="#F36F17"/>
<stop offset="1" stop-color="#F3C3F0"/>
</linearGradient>
<linearGradient id="paint30_linear_1154_1153" x1="602.091" y1="19.69" x2="611.941" y2="19.69" gradientUnits="userSpaceOnUse">
<stop stop-color="#EDC96F"/>
<stop offset="1" stop-color="#6D61FF"/>
</linearGradient>
<linearGradient id="paint31_linear_1154_1153" x1="540.693" y1="23.2099" x2="576.013" y2="23.2099" gradientUnits="userSpaceOnUse">
<stop stop-color="#EDC96F"/>
<stop offset="1" stop-color="#6D61FF"/>
</linearGradient>
<linearGradient id="paint32_linear_1154_1153" x1="529.572" y1="42.4602" x2="620.632" y2="42.4602" gradientUnits="userSpaceOnUse">
<stop stop-color="#F36F17"/>
<stop offset="1" stop-color="#F3C3F0"/>
</linearGradient>
<linearGradient id="paint33_linear_1154_1153" x1="565.753" y1="58.6996" x2="626.533" y2="58.6996" gradientUnits="userSpaceOnUse">
<stop stop-color="#EDC96F"/>
<stop offset="1" stop-color="#6D61FF"/>
</linearGradient>
<linearGradient id="paint34_linear_1154_1153" x1="610.091" y1="32.3104" x2="629.591" y2="32.3104" gradientUnits="userSpaceOnUse">
<stop stop-color="#EDC96F"/>
<stop offset="1" stop-color="#6D61FF"/>
</linearGradient>
</defs>
</svg>
