<svg width="136" height="38" viewBox="0 0 136 38" fill="none" xmlns="http://www.w3.org/2000/svg">
<path d="M2.636 30C2.72133 28.1013 2.81733 26.1813 2.924 24.24C3.03067 22.2773 3.148 20.3467 3.276 18.448C3.42533 16.528 3.57467 14.672 3.724 12.88C3.89467 11.088 4.076 9.40267 4.268 7.824H7.34C7.87333 8.74133 8.44933 9.82933 9.068 11.088C9.708 12.3253 10.348 13.648 10.988 15.056C11.6493 16.4427 12.2893 17.8293 12.908 19.216C13.5267 20.5813 14.0813 21.8293 14.572 22.96C15.084 21.8293 15.6387 20.5813 16.236 19.216C16.8547 17.8293 17.484 16.4427 18.124 15.056C18.7853 13.648 19.436 12.3253 20.076 11.088C20.716 9.82933 21.3027 8.74133 21.836 7.824H24.716C24.9293 9.40267 25.1107 11.088 25.26 12.88C25.4307 14.672 25.58 16.528 25.708 18.448C25.836 20.3467 25.9533 22.2773 26.06 24.24C26.188 26.1813 26.2947 28.1013 26.38 30H23.116C23.052 28.0587 22.9773 26.1173 22.892 24.176C22.8067 22.2347 22.7 20.3253 22.572 18.448C22.4653 16.5493 22.3267 14.736 22.156 13.008C21.9213 13.52 21.5907 14.224 21.164 15.12C20.7373 16.016 20.268 17.0187 19.756 18.128C19.244 19.216 18.732 20.3253 18.22 21.456C17.708 22.5867 17.228 23.6427 16.78 24.624C16.3533 25.584 16.0227 26.3627 15.788 26.96H13.196C12.94 26.3627 12.5987 25.584 12.172 24.624C11.7453 23.6427 11.276 22.5867 10.764 21.456C10.252 20.3253 9.74 19.216 9.228 18.128C8.716 17.0187 8.24667 16.016 7.82 15.12C7.39333 14.224 7.06267 13.52 6.828 13.008C6.65733 14.736 6.508 16.5493 6.38 18.448C6.27333 20.3253 6.17733 22.2347 6.092 24.176C6.00667 26.1173 5.932 28.0587 5.868 30H2.636ZM30.9857 30V7.824H44.6817V10.64H34.2817V17.008H43.5297V19.76H34.2817V27.184H45.4498V30H30.9857ZM49.1032 30V7.824H52.3993V17.008H62.9913V7.824H66.2873V30H62.9913V19.824H52.3993V30H49.1032ZM89.9028 30.48C88.1108 30.48 86.4574 30.0853 84.9428 29.296C83.4494 28.4853 82.2228 27.2907 81.2628 25.712C80.3028 24.112 79.7588 22.1493 79.6308 19.824H74.7668V30H71.4708V7.824H74.7668V17.008H79.6948C79.9508 14.8747 80.5588 13.0933 81.5188 11.664C82.5001 10.2347 83.7161 9.15733 85.1667 8.432C86.6174 7.68533 88.1961 7.312 89.9028 7.312C91.7588 7.312 93.4548 7.74933 94.9908 8.624C96.5481 9.49867 97.7961 10.8 98.7348 12.528C99.6734 14.2347 100.143 16.3573 100.143 18.896C100.143 21.4347 99.6734 23.568 98.7348 25.296C97.7961 27.0027 96.5481 28.2933 94.9908 29.168C93.4548 30.0427 91.7588 30.48 89.9028 30.48ZM89.9028 27.536C91.3108 27.536 92.5268 27.1947 93.5508 26.512C94.5748 25.808 95.3534 24.8053 95.8868 23.504C96.4414 22.2027 96.7188 20.6667 96.7188 18.896C96.7188 17.104 96.4414 15.568 95.8868 14.288C95.3534 12.9867 94.5748 11.984 93.5508 11.28C92.5268 10.576 91.3108 10.224 89.9028 10.224C88.4734 10.224 87.2468 10.576 86.2228 11.28C85.1988 11.984 84.4094 12.9867 83.8548 14.288C83.3001 15.568 83.0228 17.104 83.0228 18.896C83.0228 20.6667 83.3001 22.2027 83.8548 23.504C84.4094 24.8053 85.1988 25.808 86.2228 26.512C87.2468 27.1947 88.4734 27.536 89.9028 27.536Z" fill="white"/>
<rect x="114" y="8" width="8" height="8" fill="white"/>
<rect x="128" y="8" width="8" height="8" fill="white"/>
<rect x="114" y="22" width="8" height="8" fill="white"/>
<rect x="128" y="22" width="8" height="8" fill="white"/>
</svg>
