<svg width="480" height="402" viewBox="0 0 480 402" fill="none" xmlns="http://www.w3.org/2000/svg">
<path d="M32.652 338.522L33.23 337.196C35.202 337.241 36.8227 337.547 38.092 338.114C39.384 338.658 40.3473 339.429 40.982 340.426C41.6167 341.401 41.934 342.534 41.934 343.826C41.934 345.209 41.6167 346.444 40.982 347.532C40.3473 348.597 39.3953 349.447 38.126 350.082C36.8793 350.694 35.3153 351 33.434 351H14.598L16.57 337.91L14.598 325.5H32.754C35.1113 325.5 36.9473 326.055 38.262 327.166C39.5767 328.254 40.234 329.773 40.234 331.722C40.234 332.787 39.9847 333.807 39.486 334.782C38.9873 335.757 38.1827 336.584 37.072 337.264C35.984 337.921 34.5107 338.341 32.652 338.522ZM21.568 349.368L18.848 346.07H31.53C32.55 346.07 33.3433 345.821 33.91 345.322C34.4767 344.823 34.76 344.132 34.76 343.248C34.76 342.364 34.454 341.661 33.842 341.14C33.23 340.596 32.3233 340.324 31.122 340.324H20.65V335.496H30.17C30.986 335.496 31.666 335.258 32.21 334.782C32.7767 334.283 33.06 333.615 33.06 332.776C33.06 332.096 32.822 331.541 32.346 331.11C31.87 330.657 31.19 330.43 30.306 330.43H18.882L21.568 327.132L23.302 337.91L21.568 349.368ZM45.3956 351V325.5H52.3316V347.294L50.3936 346.852L64.8436 325.5H74.0576V351H67.0876V328.798L69.0596 329.24L54.3376 351H45.3956ZM105.827 325.5V351H98.7892V328.56L101.951 331.756H82.7072L85.8692 328.56V351H78.8312V325.5H105.827ZM116.591 351L121.181 343.01H121.283L131.245 325.5H138.895L124.241 351H116.591ZM121.079 347.566L108.329 325.5H116.115L126.077 342.84L121.079 347.566ZM167.45 340.324C167.201 342.568 166.43 344.54 165.138 346.24C163.846 347.917 162.146 349.221 160.038 350.15C157.953 351.079 155.55 351.544 152.83 351.544C149.861 351.544 147.265 350.989 145.044 349.878C142.823 348.767 141.089 347.215 139.842 345.22C138.618 343.225 138.006 340.902 138.006 338.25C138.006 335.598 138.618 333.275 139.842 331.28C141.089 329.285 142.823 327.733 145.044 326.622C147.265 325.511 149.861 324.956 152.83 324.956C155.55 324.956 157.953 325.421 160.038 326.35C162.146 327.279 163.846 328.594 165.138 330.294C166.43 331.971 167.201 333.932 167.45 336.176H160.378C160.151 335.088 159.709 334.17 159.052 333.422C158.395 332.651 157.533 332.062 156.468 331.654C155.425 331.246 154.213 331.042 152.83 331.042C151.243 331.042 149.872 331.337 148.716 331.926C147.56 332.493 146.676 333.32 146.064 334.408C145.452 335.473 145.146 336.754 145.146 338.25C145.146 339.746 145.452 341.038 146.064 342.126C146.676 343.191 147.56 344.019 148.716 344.608C149.872 345.175 151.243 345.458 152.83 345.458C154.213 345.458 155.425 345.265 156.468 344.88C157.533 344.495 158.395 343.917 159.052 343.146C159.709 342.375 160.151 341.435 160.378 340.324H167.45ZM170.87 351V325.5H177.874V345.39L176.004 343.928L190.454 325.5H197.9L177.228 351H170.87ZM183.042 338.828L188.21 334.544L198.24 351H190.25L183.042 338.828ZM200.454 325.5H207.492V351H200.454V325.5ZM220.514 325.5H227.586V351H220.514V325.5ZM204.398 334.918H223.438V341.174H204.398V334.918ZM232.362 351V325.5H239.298V347.294L237.36 346.852L251.81 325.5H261.024V351H254.054V328.798L256.026 329.24L241.304 351H232.362ZM265.798 351V325.5H272.802V345.39L270.932 343.928L285.382 325.5H292.828L272.156 351H265.798ZM277.97 338.828L283.138 334.544L293.168 351H285.178L277.97 338.828ZM300.346 346.104V340.426H317.924V346.104H300.346ZM313.912 325.5L325.506 351H317.992L308.268 328.492H310.308L300.55 351H293.036L304.63 325.5H313.912ZM365.185 325.5V351H358.487V328.016L359.983 328.186L350.123 351H342.983L333.089 328.254L334.619 328.084V351H327.921V325.5H338.801L347.947 347.396H345.227L354.305 325.5H365.185ZM15.38 366.5H22.418V392H15.38V366.5ZM63.9227 381.324C63.6734 383.568 62.9027 385.54 61.6107 387.24C60.3187 388.917 58.6187 390.221 56.5107 391.15C54.4254 392.079 52.0227 392.544 49.3027 392.544C46.3334 392.544 43.738 391.989 41.5167 390.878C39.2954 389.767 37.5614 388.215 36.3147 386.22C35.0907 384.225 34.4787 381.902 34.4787 379.25C34.4787 376.598 35.0907 374.275 36.3147 372.28C37.5614 370.285 39.2954 368.733 41.5167 367.622C43.738 366.511 46.3334 365.956 49.3027 365.956C52.0227 365.956 54.4254 366.421 56.5107 367.35C58.6187 368.279 60.3187 369.594 61.6107 371.294C62.9027 372.971 63.6734 374.932 63.9227 377.176H56.8507C56.624 376.088 56.182 375.17 55.5247 374.422C54.8674 373.651 54.006 373.062 52.9407 372.654C51.898 372.246 50.6854 372.042 49.3027 372.042C47.716 372.042 46.3447 372.337 45.1887 372.926C44.0327 373.493 43.1487 374.32 42.5367 375.408C41.9247 376.473 41.6187 377.754 41.6187 379.25C41.6187 380.746 41.9247 382.038 42.5367 383.126C43.1487 384.191 44.0327 385.019 45.1887 385.608C46.3447 386.175 47.716 386.458 49.3027 386.458C50.6854 386.458 51.898 386.265 52.9407 385.88C54.006 385.495 54.8674 384.917 55.5247 384.146C56.182 383.375 56.624 382.435 56.8507 381.324H63.9227ZM74.37 369.594H81.442V392H74.37V369.594ZM64.646 366.5H91.166V372.756H64.646V366.5ZM100.222 392L104.812 384.01H104.914L114.876 366.5H122.526L107.872 392H100.222ZM104.71 388.566L91.9602 366.5H99.7462L109.708 383.84L104.71 388.566ZM120.029 397.134V385.778H125.537L127.781 385.846H145.461L147.229 385.778H154.641V397.134H148.045V392H126.625V397.134H120.029ZM125.333 366.5H150.255V390.028H143.183V369.458L146.379 372.654H129.073L131.997 370.308C132.178 371.351 132.28 372.359 132.303 373.334C132.348 374.309 132.371 375.238 132.371 376.122C132.371 378.774 132.133 381.007 131.657 382.82C131.203 384.633 130.512 386.005 129.583 386.934C128.676 387.863 127.531 388.328 126.149 388.328L123.191 385.88C124.097 384.815 124.766 383.364 125.197 381.528C125.627 379.669 125.843 377.38 125.843 374.66C125.843 373.413 125.797 372.11 125.707 370.75C125.616 369.39 125.491 367.973 125.333 366.5ZM179.815 376.7V381.8H161.149V376.7H179.815ZM165.943 379.25L164.277 389.484L161.421 386.288H180.937V392H157.239L159.177 379.25L157.239 366.5H180.767V372.212H161.421L164.277 369.016L165.943 379.25ZM185.015 366.5H192.053V392H185.015V366.5ZM205.075 366.5H212.147V392H205.075V366.5ZM188.959 375.918H207.999V382.174H188.959V375.918ZM224.913 369.594H231.985V392H224.913V369.594ZM215.189 366.5H241.709V372.756H215.189V366.5ZM245.627 387.104V381.426H263.205V387.104H245.627ZM259.193 366.5L270.787 392H263.273L253.549 369.492H255.589L245.831 392H238.317L249.911 366.5H259.193ZM310.466 366.5V392H303.768V369.016L305.264 369.186L295.404 392H288.264L278.37 369.254L279.9 369.084V392H273.202V366.5H284.082L293.228 388.396H290.508L299.586 366.5H310.466Z" fill="#E3B7F5"/>
<path d="M398.809 0H480V265.502H420.025L480 402H454.5H344L349.264 361.909H381L392 315H0V0H109.883L131.787 49.3067L167.772 0H277.293L349.264 49.3067L398.809 0Z" fill="#E3B7F5"/>
</svg>
