<svg width="480" height="402" viewBox="0 0 480 402" fill="none" xmlns="http://www.w3.org/2000/svg">
<path d="M278.032 0H0V113.317H109.658L0 184.635V222.275V401.818H271.5L287 363.835H230.5L209 314.857H480L480 208.804L394.598 228.219V80.4312L480 99.0532V0L278.032 32.8857V0Z" fill="#B5B0FF"/>
<path d="M278.819 344.599L275.657 347.795V325.355H282.695V350.855H241.249V325.355H248.287V347.795L245.125 344.599H261.309L258.453 347.795V325.355H265.491V347.795L262.533 344.599H278.819ZM293.486 350.855L298.076 342.865H298.178L308.14 325.355H315.79L301.136 350.855H293.486ZM297.974 347.421L285.224 325.355H293.01L302.972 342.695L297.974 347.421ZM318.18 350.855V325.355H325.184V345.245L323.314 343.783L337.764 325.355H345.21L324.538 350.855H318.18ZM330.352 338.683L335.52 334.399L345.55 350.855H337.56L330.352 338.683ZM352.728 345.959V340.281H370.306V345.959H352.728ZM366.294 325.355L377.888 350.855H370.374L360.65 328.347H362.69L352.932 350.855H345.418L357.012 325.355H366.294ZM387.25 343.171C383.624 343.171 380.847 342.231 378.92 340.349C377.016 338.445 376.064 335.703 376.064 332.121V325.355H383.102V331.543C383.102 333.334 383.59 334.683 384.564 335.589C385.539 336.496 387.001 336.949 388.95 336.949C390.084 336.949 391.274 336.825 392.52 336.575C393.767 336.303 395.014 335.918 396.26 335.419L396.668 341.063C395.308 341.743 393.824 342.265 392.214 342.627C390.605 342.99 388.95 343.171 387.25 343.171ZM395.342 350.855V325.355H402.414V350.855H395.342ZM412.096 345.959V340.281H429.674V345.959H412.096ZM425.662 325.355L437.256 350.855H429.742L420.018 328.347H422.058L412.3 350.855H404.786L416.38 325.355H425.662ZM476.935 325.355V350.855H470.237V327.871L471.733 328.041L461.873 350.855H454.733L444.839 328.109L446.369 327.939V350.855H439.671V325.355H450.551L459.697 347.251H456.977L466.055 325.355H476.935ZM314.166 366.355C316.297 366.355 318.133 366.718 319.674 367.443C321.238 368.169 322.428 369.2 323.244 370.537C324.06 371.852 324.468 373.393 324.468 375.161C324.468 376.907 324.06 378.448 323.244 379.785C322.428 381.1 321.238 382.12 319.674 382.845C318.133 383.571 316.297 383.933 314.166 383.933H303.116V378.289H313.724C314.858 378.289 315.742 378.017 316.376 377.473C317.011 376.907 317.328 376.136 317.328 375.161C317.328 374.164 317.011 373.393 316.376 372.849C315.742 372.283 314.858 371.999 313.724 371.999H303.728L306.89 368.735V391.855H299.852V366.355H314.166ZM341.552 392.399C338.537 392.399 335.885 391.844 333.596 390.733C331.329 389.623 329.561 388.07 328.292 386.075C327.045 384.081 326.422 381.757 326.422 379.105C326.422 376.453 327.045 374.13 328.292 372.135C329.561 370.141 331.329 368.588 333.596 367.477C335.885 366.367 338.537 365.811 341.552 365.811C344.589 365.811 347.241 366.367 349.508 367.477C351.774 368.588 353.542 370.141 354.812 372.135C356.081 374.13 356.716 376.453 356.716 379.105C356.716 381.757 356.081 384.081 354.812 386.075C353.542 388.07 351.774 389.623 349.508 390.733C347.241 391.844 344.589 392.399 341.552 392.399ZM341.552 386.109C343.206 386.109 344.634 385.826 345.836 385.259C347.037 384.693 347.955 383.888 348.59 382.845C349.247 381.803 349.576 380.556 349.576 379.105C349.576 377.655 349.247 376.408 348.59 375.365C347.955 374.323 347.037 373.518 345.836 372.951C344.634 372.385 343.206 372.101 341.552 372.101C339.92 372.101 338.503 372.385 337.302 372.951C336.1 373.518 335.171 374.323 334.514 375.365C333.856 376.408 333.528 377.655 333.528 379.105C333.528 380.556 333.856 381.803 334.514 382.845C335.171 383.888 336.1 384.693 337.302 385.259C338.503 385.826 339.92 386.109 341.552 386.109ZM364.606 376.045H375.86C378.013 376.045 379.781 376.374 381.164 377.031C382.546 377.689 383.578 378.618 384.258 379.819C384.938 380.998 385.278 382.381 385.278 383.967C385.278 385.554 384.904 386.948 384.156 388.149C383.408 389.328 382.331 390.246 380.926 390.903C379.52 391.538 377.832 391.855 375.86 391.855H359.268L361.24 378.629L359.268 366.355H383.306V371.693H363.654L366.34 368.463L367.938 378.493L366.204 389.951L363.518 386.721H374.942C375.962 386.721 376.766 386.461 377.356 385.939C377.968 385.418 378.274 384.704 378.274 383.797C378.274 382.868 377.968 382.154 377.356 381.655C376.766 381.134 375.962 380.873 374.942 380.873H364.606V376.045ZM402.679 392.399C399.664 392.399 397.012 391.844 394.723 390.733C392.456 389.623 390.688 388.07 389.419 386.075C388.172 384.081 387.549 381.757 387.549 379.105C387.549 376.453 388.172 374.13 389.419 372.135C390.688 370.141 392.456 368.588 394.723 367.477C397.012 366.367 399.664 365.811 402.679 365.811C405.716 365.811 408.368 366.367 410.635 367.477C412.901 368.588 414.669 370.141 415.939 372.135C417.208 374.13 417.843 376.453 417.843 379.105C417.843 381.757 417.208 384.081 415.939 386.075C414.669 388.07 412.901 389.623 410.635 390.733C408.368 391.844 405.716 392.399 402.679 392.399ZM402.679 386.109C404.333 386.109 405.761 385.826 406.963 385.259C408.164 384.693 409.082 383.888 409.717 382.845C410.374 381.803 410.703 380.556 410.703 379.105C410.703 377.655 410.374 376.408 409.717 375.365C409.082 374.323 408.164 373.518 406.963 372.951C405.761 372.385 404.333 372.101 402.679 372.101C401.047 372.101 399.63 372.385 398.429 372.951C397.227 373.518 396.298 374.323 395.641 375.365C394.983 376.408 394.655 377.655 394.655 379.105C394.655 380.556 394.983 381.803 395.641 382.845C396.298 383.888 397.227 384.693 398.429 385.259C399.63 385.826 401.047 386.109 402.679 386.109ZM428.436 369.449H435.508V391.855H428.436V369.449ZM418.712 366.355H445.232V372.611H418.712V366.355ZM448.27 391.855V366.355H455.206V388.149L453.268 387.707L467.718 366.355H476.932V391.855H469.962V369.653L471.934 370.095L457.212 391.855H448.27Z" fill="#B5B0FF"/>
</svg>
