<svg width="55" height="55" viewBox="0 0 55 55" fill="none" xmlns="http://www.w3.org/2000/svg">
<g clip-path="url(#clip0_7702_333)">
<rect width="55" height="55" fill="black"/>
<path d="M12.5126 36.2814C13.0133 36.9074 13.3149 37.5959 13.4173 38.347C13.514 39.0924 13.4145 39.8463 13.1186 40.6088C12.8284 41.3656 12.3419 42.0854 11.659 42.7683C10.9136 43.5137 10.1227 44.0258 9.28622 44.3046C8.44977 44.5834 7.62469 44.6289 6.81099 44.4412C6.00299 44.2477 5.26611 43.8181 4.60036 43.1523C3.93461 42.4866 3.505 41.7497 3.31153 40.9417C3.12375 40.128 3.16928 39.3029 3.4481 38.4665C3.72691 37.63 4.23903 36.8391 4.98444 36.0937C5.66727 35.4108 6.38708 34.9243 7.14387 34.6341C7.90636 34.3382 8.66315 34.2415 9.41425 34.3439C10.1597 34.4407 10.8453 34.7394 11.4713 35.2401L9.69592 37.0155C9.36589 36.7992 9.02448 36.6798 8.67168 36.657C8.3132 36.6285 7.94903 36.6968 7.57917 36.8618C7.215 37.0212 6.85936 37.2744 6.51226 37.6215C6.11395 38.0198 5.84366 38.438 5.70141 38.8762C5.55346 39.3086 5.53924 39.7382 5.65873 40.165C5.77254 40.5861 6.01721 40.9844 6.39277 41.3599C6.76832 41.7355 7.16948 41.983 7.59624 42.1025C8.01731 42.2163 8.44692 42.2021 8.88507 42.0598C9.31752 41.9119 9.7329 41.6388 10.1312 41.2404C10.4783 40.8933 10.7344 40.5405 10.8994 40.1821C11.0701 39.8179 11.1412 39.4566 11.1128 39.0981C11.0843 38.7396 10.9591 38.3925 10.7372 38.0568L12.5126 36.2814ZM16.0512 38.1029L9.64977 31.7015L11.408 29.9432L16.4012 34.9363L15.5647 35.0388L14.5661 26.7851L16.4353 24.9159L17.6473 36.5068L16.0512 38.1029ZM16.0512 31.9917L16.2731 29.6189L22.9221 31.232L20.9163 33.2378L16.0512 31.9917ZM25.1082 21.3642L26.3885 22.6445L21.7026 27.3304L20.4223 26.0501L25.1082 21.3642ZM22.2659 25.4868L24.4168 28.4741L22.8975 28.3888L27.7968 23.4895L29.2307 24.9235L23.2816 30.8725L20.5674 27.1853L16.8802 24.4711L22.7866 18.5647L24.2205 19.9986L19.3639 24.8552L19.2786 23.3359L22.2659 25.4868ZM24.8949 16.4563L31.1769 10.1744L37.5783 16.5758L35.803 18.3512L30.1697 12.7179L31.7743 12.7179L27.4555 17.0367L27.6091 15.7052C28.0302 16.0353 28.4228 16.3653 28.787 16.6953C29.1455 17.0197 29.4784 17.3355 29.7856 17.6427C30.605 18.4621 31.1996 19.2047 31.5695 19.8704C31.9337 20.5305 32.0759 21.1393 31.9963 21.697C31.9166 22.2546 31.6236 22.7867 31.1171 23.2931C30.8952 23.515 30.6534 23.7113 30.3916 23.882C30.1356 24.047 29.8738 24.1722 29.6064 24.2576L28.1383 22.7895C28.4854 22.6359 28.7642 22.4538 28.9748 22.2432C29.3446 21.8734 29.4414 21.4409 29.265 20.9459C29.0943 20.4451 28.6277 19.8135 27.8652 19.0511C27.4953 18.6812 27.0629 18.2829 26.5678 17.8561C26.0785 17.4237 25.5208 16.9571 24.8949 16.4563ZM40.1218 6.91389L41.3765 8.16857L38.705 10.8401L38.6623 10.8145C38.173 11.3039 37.6608 11.651 37.126 11.8558C36.5968 12.055 36.079 12.1062 35.5725 12.0094C35.0718 11.907 34.6194 11.6538 34.2154 11.2498C33.8001 10.8344 33.5411 10.3764 33.4387 9.87563C33.3363 9.36351 33.3818 8.84001 33.5753 8.30514C33.7688 7.75888 34.1102 7.24107 34.5995 6.75172L38.5087 2.84256L44.9101 9.24402L43.1348 11.0194L37.2028 5.08734H38.7903L36.1188 7.75888C35.8286 8.04908 35.6721 8.34781 35.6494 8.65508C35.6266 8.95097 35.7404 9.2241 35.9908 9.47447C36.2355 9.71915 36.5086 9.83295 36.8102 9.81588C37.1117 9.78743 37.4076 9.6281 37.6978 9.33791L40.1218 6.91389ZM39.6268 8.53559L40.4377 13.7165L38.3892 15.765L37.6466 10.5158L39.6268 8.53559Z" fill="white"/>
<path d="M54.9999 0V55H0L54.9999 0Z" fill="white"/>
</g>
<defs>
<clipPath id="clip0_7702_333">
<rect width="55" height="55" fill="white"/>
</clipPath>
</defs>
</svg>
