<svg width="122" height="55" viewBox="0 0 122 55" fill="none" xmlns="http://www.w3.org/2000/svg">
<path d="M25.006 27.32C24.8006 29.1307 24.1753 30.7267 23.13 32.108C22.0846 33.4707 20.7033 34.5347 18.986 35.3C17.2686 36.0653 15.3086 36.448 13.106 36.448C10.698 36.448 8.5793 35.9907 6.74997 35.076C4.9393 34.1613 3.52997 32.8827 2.52197 31.24C1.51397 29.5973 1.00997 27.684 1.00997 25.5C1.00997 23.316 1.51397 21.4027 2.52197 19.76C3.52997 18.1173 4.9393 16.8387 6.74997 15.924C8.5793 15.0093 10.698 14.552 13.106 14.552C15.3086 14.552 17.2686 14.9347 18.986 15.7C20.7033 16.4653 22.0846 17.5293 23.13 18.892C24.1753 20.2547 24.8006 21.8507 25.006 23.68H19.686C19.4993 22.728 19.1166 21.916 18.538 21.244C17.978 20.572 17.2313 20.0587 16.298 19.704C15.3833 19.3307 14.3193 19.144 13.106 19.144C11.706 19.144 10.502 19.4053 9.49397 19.928C8.48597 20.432 7.7113 21.16 7.16997 22.112C6.62864 23.064 6.35797 24.1933 6.35797 25.5C6.35797 26.8067 6.62864 27.936 7.16997 28.888C7.7113 29.84 8.48597 30.5773 9.49397 31.1C10.502 31.604 11.706 31.856 13.106 31.856C14.3193 31.856 15.3833 31.6787 16.298 31.324C17.2313 30.9693 17.978 30.456 18.538 29.784C19.1166 29.112 19.4993 28.2907 19.686 27.32H25.006ZM27.9659 36V15H33.2299V31.772L31.8019 30.68L44.2339 15H49.8339L32.7259 36H27.9659ZM38.0179 25.836L41.8259 22.56L50.1139 36H44.1219L38.0179 25.836ZM69.7237 23.54V27.46H54.5197V23.54H69.7237ZM58.1037 25.5L56.7037 34.18L54.4917 31.688H70.6197V36H51.4117L53.0357 25.5L51.4117 15H70.4797V19.312H54.4917L56.7037 16.82L58.1037 25.5ZM77.5134 15H97.7014V36H92.4094V17.296L94.7894 19.676H80.4534L82.6934 17.912C82.8241 19.2187 82.9174 20.4693 82.9734 21.664C83.0481 22.84 83.0854 23.96 83.0854 25.024C83.0854 27.6933 82.8427 29.868 82.3574 31.548C81.8907 33.2093 81.1441 34.4413 80.1174 35.244C79.1094 36.028 77.7934 36.42 76.1694 36.42C75.4787 36.42 74.7974 36.3453 74.1254 36.196C73.4534 36.0467 72.8467 35.832 72.3054 35.552V31.156C73.1267 31.4733 73.8827 31.632 74.5734 31.632C75.8241 31.632 76.7201 31.0627 77.2614 29.924C77.8214 28.7667 78.1014 26.8813 78.1014 24.268C78.1014 23.036 78.0547 21.6547 77.9614 20.124C77.8681 18.5747 77.7187 16.8667 77.5134 15ZM117.866 24.464V28.216H108.962L108.934 28.132C107.366 28.132 105.994 27.8613 104.818 27.32C103.642 26.7787 102.718 26.0227 102.046 25.052C101.393 24.0813 101.066 22.9427 101.066 21.636C101.066 20.3107 101.393 19.1533 102.046 18.164C102.718 17.1747 103.642 16.4 104.818 15.84C105.994 15.28 107.366 15 108.934 15H121.506V36H116.214V16.428L118.594 18.808H109.662C108.635 18.808 107.833 19.06 107.254 19.564C106.675 20.0493 106.386 20.74 106.386 21.636C106.386 22.5133 106.675 23.204 107.254 23.708C107.833 24.212 108.635 24.464 109.662 24.464H117.866ZM114.086 26.172L106.666 36H100.534L108.15 26.172H114.086Z" fill="white"/>
</svg>
