<svg width="52" height="42" viewBox="0 0 52 42" fill="none" xmlns="http://www.w3.org/2000/svg">
<path d="M52 0L48.6087 16.9565L47.1014 23.3623H40.3188L35.7971 41.4493H0V0H52Z" fill="white"/>
<path d="M16.6251 12.529C16.5146 13.5237 16.1729 14.3979 15.6002 15.1516C15.0274 15.8951 14.2738 16.4729 13.3393 16.8849C12.4148 17.2969 11.3497 17.5029 10.1439 17.5029C8.8276 17.5029 7.67706 17.2567 6.69233 16.7643C5.7076 16.272 4.9389 15.5837 4.38624 14.6994C3.84363 13.8151 3.57233 12.7852 3.57233 11.6095C3.57233 10.4339 3.84363 9.40394 4.38624 8.51969C4.9389 7.63544 5.7076 6.94713 6.69233 6.45476C7.67706 5.96239 8.8276 5.71621 10.1439 5.71621C11.3497 5.71621 12.4148 5.9222 13.3393 6.33418C14.2738 6.74616 15.0274 7.32896 15.6002 8.08259C16.1729 8.82616 16.5146 9.69534 16.6251 10.6901H13.49C13.3895 10.2078 13.1936 9.80085 12.9022 9.46925C12.6108 9.12761 12.2289 8.86636 11.7567 8.68549C11.2945 8.50462 10.7569 8.41418 10.1439 8.41418C9.44054 8.41418 8.83262 8.54481 8.32016 8.80607C7.80769 9.05727 7.41581 9.42404 7.1445 9.90636C6.8732 10.3786 6.73755 10.9464 6.73755 11.6095C6.73755 12.2727 6.8732 12.8455 7.1445 13.3278C7.41581 13.8001 7.80769 14.1668 8.32016 14.4281C8.83262 14.6793 9.44054 14.8049 10.1439 14.8049C10.7569 14.8049 11.2945 14.7195 11.7567 14.5487C12.2289 14.3779 12.6108 14.1216 12.9022 13.78C13.1936 13.4383 13.3895 13.0213 13.49 12.529H16.6251ZM18.1413 17.2617L18.1413 5.95737H21.2462V14.7748L20.4172 14.1266L26.823 5.95737H30.1239L20.9598 17.2617H18.1413ZM23.5372 11.8658L25.8282 9.96665L30.2746 17.2617H26.7326L23.5372 11.8658ZM40.9175 10.4791V12.74H32.6428V10.4791H40.9175ZM34.768 11.6095L34.0294 16.1464L32.7633 14.7295H41.4149V17.2617H30.9094L31.7686 11.6095L30.9094 5.95737L41.3396 5.95737V8.48954H32.7633L34.0294 7.07273L34.768 11.6095ZM5.95378 23.9574H17.0471V35.2617H13.912V25.3139L15.3289 26.7307H7.70218L9.01349 25.6907C9.09388 26.3539 9.14914 26.992 9.17929 27.6049C9.20943 28.2078 9.2245 28.7806 9.2245 29.3232C9.2245 30.7701 9.09388 31.9508 8.83262 32.8652C8.57136 33.7695 8.15938 34.4327 7.59668 34.8548C7.03397 35.2768 6.30547 35.4878 5.41117 35.4878C5.01929 35.4878 4.63243 35.4476 4.25059 35.3672C3.8788 35.2868 3.53716 35.1663 3.22566 35.0055V32.413C3.66779 32.5838 4.07475 32.6693 4.44653 32.6693C5.09967 32.6693 5.56692 32.3728 5.84827 31.78C6.13967 31.1871 6.28537 30.2175 6.28537 28.871C6.28537 28.2179 6.25523 27.4843 6.19494 26.6704C6.1447 25.8565 6.06431 24.9522 5.95378 23.9574ZM27.8239 28.9765V31.1922H23.1062L23.0912 31.1319C22.227 31.1319 21.4684 30.9862 20.8152 30.6948C20.1721 30.4034 19.6697 29.9914 19.308 29.4588C18.9563 28.9263 18.7804 28.3033 18.7804 27.5898C18.7804 26.8563 18.9563 26.2233 19.308 25.6907C19.6697 25.1481 20.1721 24.7261 20.8152 24.4246C21.4684 24.1131 22.227 23.9574 23.0912 23.9574H29.9944L29.9944 35.2617H26.8593L26.8593 24.7864L28.261 26.1881H23.5433C23.0309 26.1881 22.6289 26.3137 22.3375 26.5649C22.0562 26.8061 21.9155 27.1477 21.9155 27.5898C21.9155 28.0219 22.0562 28.3636 22.3375 28.6148C22.6289 28.8559 23.0309 28.9765 23.5433 28.9765H27.8239ZM25.9549 29.9713L22.0964 35.2617H18.479L22.4581 29.9713H25.9549Z" fill="#040000"/>
</svg>
