<svg width="56" height="56" viewBox="0 0 56 56" fill="none" xmlns="http://www.w3.org/2000/svg">
<path d="M13.5126 36.7033C14.0133 37.3292 14.3149 38.0177 14.4173 38.7689C14.514 39.5143 14.4145 40.2682 14.1186 41.0307C13.8284 41.7875 13.3419 42.5073 12.659 43.1901C11.9136 43.9355 11.1227 44.4477 10.2862 44.7265C9.44977 45.0053 8.62469 45.0508 7.81099 44.863C7.00299 44.6696 6.26611 44.24 5.60036 43.5742C4.93461 42.9085 4.505 42.1716 4.31153 41.3636C4.12375 40.5499 4.16928 39.7248 4.4481 38.8883C4.72691 38.0519 5.23903 37.261 5.98444 36.5155C6.66727 35.8327 7.38708 35.3462 8.14387 35.056C8.90636 34.7601 9.66315 34.6634 10.4143 34.7658C11.1597 34.8625 11.8453 35.1613 12.4713 35.662L10.6959 37.4374C10.3659 37.2211 10.0245 37.1016 9.67168 37.0789C9.3132 37.0504 8.94903 37.1187 8.57917 37.2837C8.215 37.443 7.85936 37.6963 7.51226 38.0434C7.11395 38.4417 6.84366 38.8599 6.70141 39.298C6.55346 39.7305 6.53924 40.1601 6.65873 40.5869C6.77254 41.0079 7.01721 41.4063 7.39277 41.7818C7.76832 42.1574 8.16948 42.4049 8.59624 42.5244C9.01731 42.6382 9.44692 42.624 9.88507 42.4817C10.3175 42.3338 10.7329 42.0606 11.1312 41.6623C11.4783 41.3152 11.7344 40.9624 11.8994 40.6039C12.0701 40.2398 12.1412 39.8784 12.1128 39.52C12.0843 39.1615 11.9591 38.8144 11.7372 38.4787L13.5126 36.7033ZM17.0512 38.5248L10.6498 32.1233L12.408 30.3651L17.4012 35.3582L16.5647 35.4606L15.5661 27.207L17.4353 25.3378L18.6473 36.9287L17.0512 38.5248ZM17.0512 32.4135L17.2731 30.0407L23.9221 31.6539L21.9163 33.6597L17.0512 32.4135ZM26.1082 21.7861L27.3885 23.0664L22.7026 27.7523L21.4223 26.472L26.1082 21.7861ZM23.2659 25.9087L25.4168 28.896L23.8975 28.8107L28.7968 23.9114L30.2307 25.3453L24.2816 31.2944L21.5674 27.6072L17.8802 24.893L23.7866 18.9865L25.2205 20.4205L20.3639 25.277L20.2786 23.7578L23.2659 25.9087ZM25.8949 16.8782L32.1769 10.5962L38.5783 16.9977L36.803 18.773L31.1697 13.1397L32.7743 13.1397L28.4555 17.4586L28.6091 16.1271C29.0302 16.4571 29.4228 16.7872 29.787 17.1172C30.1455 17.4415 30.4784 17.7573 30.7856 18.0646C31.605 18.884 32.1996 19.6266 32.5695 20.2923C32.9337 20.9524 33.0759 21.5612 32.9963 22.1189C32.9166 22.6765 32.6236 23.2085 32.1171 23.715C31.8952 23.9369 31.6534 24.1332 31.3916 24.3039C31.1356 24.4689 30.8738 24.5941 30.6064 24.6794L29.1383 23.2114C29.4854 23.0577 29.7642 22.8757 29.9748 22.6651C30.3446 22.2953 30.4414 21.8628 30.265 21.3678C30.0943 20.867 29.6277 20.2354 28.8652 19.4729C28.4953 19.1031 28.0629 18.7048 27.5678 18.278C27.0785 17.8455 26.5208 17.3789 25.8949 16.8782ZM41.1218 7.33576L42.3765 8.59045L39.705 11.262L39.6623 11.2364C39.173 11.7257 38.6608 12.0728 38.126 12.2777C37.5968 12.4768 37.079 12.5281 36.5725 12.4313C36.0718 12.3289 35.6194 12.0757 35.2154 11.6717C34.8001 11.2563 34.5411 10.7982 34.4387 10.2975C34.3363 9.78539 34.3818 9.26189 34.5753 8.72701C34.7688 8.18075 35.1102 7.66295 35.5995 7.17359L39.5087 3.26443L45.9101 9.66589L44.1348 11.4412L38.2028 5.50921H39.7903L37.1188 8.18075C36.8286 8.47095 36.6721 8.76969 36.6494 9.07696C36.6266 9.37285 36.7404 9.64598 36.9908 9.89635C37.2355 10.141 37.5086 10.2548 37.8102 10.2378C38.1117 10.2093 38.4076 10.05 38.6978 9.75978L41.1218 7.33576ZM40.6268 8.95746L41.4377 14.1384L39.3892 16.1868L38.6466 10.9376L40.6268 8.95746Z" fill="white"/>
<path d="M56.0001 2.11914V55.9008H2.35254L56.0001 2.11914Z" fill="white"/>
</svg>
