<svg width="3000" height="3000" viewBox="0 0 3000 3000" fill="none" xmlns="http://www.w3.org/2000/svg">
<g clip-path="url(#clip0_329_174)">
<rect width="3000" height="3000" fill="#040000"/>
<path d="M3000 0L0 3000L3001 2991L3000 0Z" fill="#7970FF"/>
<path d="M943.966 1783.61C962.209 1806.52 973.24 1831.76 977.059 1859.34C980.665 1886.71 977.059 1914.5 966.24 1942.71C955.421 1970.92 937.602 1997.44 912.783 2022.26C885.206 2049.84 855.825 2068.82 824.642 2079.22C793.671 2089.4 763.124 2090.88 733.001 2083.67C702.878 2076.46 675.407 2060.44 650.587 2035.62C625.768 2010.8 609.752 1983.33 602.54 1953.21C595.327 1923.09 596.812 1892.54 606.994 1861.57C617.389 1830.39 636.375 1801.01 663.952 1773.43C688.771 1748.61 715.288 1730.79 743.501 1719.97C771.715 1709.15 799.504 1705.55 826.869 1709.15C854.234 1712.76 879.478 1723.79 902.6 1742.24L842.143 1802.7C829.203 1794 815.626 1789.13 801.413 1788.07C787.413 1786.79 773.094 1789.44 758.457 1796.02C743.82 1802.17 729.607 1812.14 715.818 1825.93C699.908 1841.84 689.196 1858.49 683.68 1875.89C677.953 1893.07 677.422 1910.15 682.089 1927.12C686.756 1944.09 696.514 1960 711.363 1974.85C726.213 1989.7 742.122 1999.45 759.093 2004.12C776.064 2008.79 793.246 2008.36 810.641 2002.85C827.824 1997.12 844.37 1986.3 860.28 1970.39C874.069 1956.6 884.145 1942.5 890.509 1928.07C897.085 1913.44 899.737 1899.12 898.464 1885.12C897.403 1870.9 892.418 1857.22 883.508 1844.07L943.966 1783.61ZM1076.24 1848.61L837.596 1609.97L897.417 1550.14L1087.7 1740.43L1059.38 1744.56L1022.47 1425.09L1086.11 1361.45L1130.34 1794.52L1076.24 1848.61ZM1074.97 1618.88L1081.02 1538.37L1327.94 1596.92L1259.84 1665.01L1074.97 1618.88ZM1409.19 1232.47L1453.74 1277.02L1280.96 1449.8L1236.41 1405.25L1409.19 1232.47ZM1299.41 1386.8L1382.14 1501.35L1328.37 1497.85L1511.65 1314.57L1560.97 1363.89L1342.69 1582.17L1241.82 1444.39L1104.04 1343.52L1320.73 1126.83L1370.05 1176.15L1188.36 1357.84L1184.86 1304.07L1299.41 1386.8ZM1400.66 1046.9L1630.09 817.477L1868.73 1056.13L1808.59 1116.26L1596.04 903.708H1650.13L1487.21 1066.63L1492.62 1021.12C1508.96 1034.49 1524.23 1047.64 1538.44 1060.58C1552.66 1073.1 1565.81 1085.4 1577.9 1097.49C1608.24 1127.83 1630.19 1155.3 1643.77 1179.9C1657.34 1204.09 1662.86 1226.57 1660.31 1247.36C1657.77 1267.73 1647.27 1287.14 1628.81 1305.59C1620.96 1313.44 1612.37 1320.34 1603.04 1326.28C1593.7 1332.21 1584.37 1336.67 1575.04 1339.64L1525.08 1289.68C1538.02 1283.95 1548.41 1277.17 1556.26 1269.32C1570.48 1255.1 1574.08 1238.35 1567.08 1219.04C1560.29 1199.53 1542.16 1175.03 1512.67 1145.54C1498.67 1131.54 1482.44 1116.37 1463.99 1100.04C1445.32 1083.49 1424.21 1065.78 1400.66 1046.9ZM1966.79 695.873L2009.75 738.829L1908.56 840.016L1906.97 839.062C1889.15 856.881 1870.48 869.397 1850.97 876.609C1831.45 883.822 1812.36 885.731 1793.69 882.337C1775.24 878.731 1758.58 869.503 1743.73 854.654C1728.67 839.592 1719.23 822.728 1715.41 804.06C1711.81 785.18 1713.51 765.876 1720.51 746.148C1727.51 726.42 1739.92 707.646 1757.74 689.827L1900.61 546.956L2139.25 785.605L2079.12 845.744L1856.69 623.324L1910.79 623.324L1809.28 724.829C1797.62 736.496 1791.36 748.481 1790.51 760.785C1789.66 773.089 1794.22 784.226 1804.19 794.196C1814.16 804.166 1825.3 808.727 1837.6 807.878C1849.91 807.03 1861.89 800.772 1873.56 789.105L1966.79 695.873ZM1943.24 758.24L1970.61 954.25L1900.92 1023.93L1875.79 825.698L1943.24 758.24Z" fill="white"/>
</g>
<defs>
<clipPath id="clip0_329_174">
<rect width="3000" height="3000" fill="white"/>
</clipPath>
</defs>
</svg>
