<svg width="100" height="101" viewBox="0 0 100 101" fill="none" xmlns="http://www.w3.org/2000/svg">
<rect width="100" height="100" rx="50" fill="#040000"/>
<path d="M30.4666 63.6254C31.1769 64.5262 31.6063 65.5186 31.755 66.6031C31.8954 67.6793 31.755 68.772 31.3338 69.8812C30.9126 70.9904 30.2189 72.0332 29.2527 73.0091C28.1791 74.0936 27.0352 74.8399 25.8213 75.2488C24.6155 75.6491 23.4263 75.7073 22.2536 75.4238C21.0809 75.1403 20.0114 74.5104 19.0452 73.5344C18.0789 72.5585 17.4554 71.4784 17.1747 70.2941C16.8938 69.1097 16.9517 67.9085 17.3481 66.6908C17.7527 65.4648 18.4919 64.3095 19.5655 63.2251C20.5317 62.2492 21.564 61.5485 22.6624 61.123C23.7608 60.6976 24.8426 60.556 25.908 60.6976C26.9733 60.8395 27.9561 61.2732 28.8562 61.9987L26.5026 64.376C25.9988 64.0339 25.4703 63.8424 24.9169 63.8007C24.3719 63.7504 23.8145 63.8546 23.2446 64.1133C22.6748 64.3552 22.1215 64.7472 21.5847 65.2894C20.9653 65.915 20.5482 66.5697 20.3335 67.2538C20.1105 67.9294 20.0899 68.6009 20.2716 69.2682C20.4532 69.9355 20.8331 70.5611 21.4112 71.145C21.9893 71.7289 22.6087 72.1122 23.2694 72.2959C23.9301 72.4795 24.599 72.4626 25.2762 72.2459C25.9451 72.0206 26.5893 71.5952 27.2087 70.9696C27.7455 70.4274 28.1378 69.8729 28.3855 69.3056C28.6415 68.7303 28.7448 68.1672 28.6952 67.6168C28.6539 67.0576 28.4598 66.5197 28.113 66.0027L30.4666 63.6254ZM35.6162 66.1812L26.3256 56.7978L28.6544 54.4453L36.0623 61.9275L34.9598 62.0899L33.5229 49.5283L36.0004 47.026L37.7223 64.0544L35.6162 66.1812ZM35.5667 57.1482L35.8023 53.9825L45.4151 56.2847L42.7639 58.962L35.5667 57.1482ZM48.5782 41.9545L50.3125 43.7062L43.5861 50.4999L41.8517 48.7482L48.5782 41.9545ZM44.3044 48.0228L47.5251 52.5269L45.4318 52.3893L52.567 45.1827L54.4871 47.1219L45.9893 55.7047L42.0623 50.2872L36.6985 46.321L45.1344 37.8007L47.0544 39.74L39.9811 46.884L39.8448 44.7698L44.3044 48.0228ZM48.2461 34.6579L57.178 25.6369L66.4684 35.0208L64.1271 37.3851L55.8524 29.0275H57.9582L51.6156 35.4336L51.8262 33.6442C52.4623 34.1699 53.0568 34.687 53.61 35.1958C54.1636 35.688 54.6755 36.1717 55.1462 36.6471C56.3274 37.84 57.1819 38.9202 57.7106 39.8874C58.2389 40.8386 58.4538 41.7225 58.3545 42.54C58.2556 43.3409 57.8468 44.1041 57.1282 44.8296C56.8226 45.1382 56.4881 45.4095 56.1249 45.6431C55.7613 45.8763 55.3981 46.0516 55.0349 46.1684L53.0899 44.204C53.5936 43.9787 53.9981 43.7121 54.3037 43.4034C54.8573 42.8443 54.9975 42.1857 54.725 41.4264C54.4606 40.6593 53.7548 39.6959 52.6067 38.5364C52.0617 37.9859 51.4299 37.3894 50.7116 36.7473C49.9848 36.0966 49.1629 35.4002 48.2461 34.6579ZM70.286 20.8554L71.9585 22.5445L68.0191 26.5232L67.9572 26.4856C67.2634 27.1863 66.5366 27.6784 65.777 27.962C65.0171 28.2456 64.2739 28.3207 63.5471 28.1872C62.8288 28.0454 62.1802 27.6826 61.6021 27.0987C61.0158 26.5065 60.6483 25.8434 60.4996 25.1094C60.3594 24.367 60.4256 23.608 60.6981 22.8323C60.9706 22.0565 61.4538 21.3184 62.1475 20.6177L67.7096 15L77 24.3837L74.6591 26.7484L65.9997 18.0028H68.1059L64.154 21.994C63.7001 22.4527 63.4564 22.924 63.4233 23.4078C63.3902 23.8916 63.5677 24.3295 63.9558 24.7215C64.344 25.1135 64.7777 25.2929 65.2565 25.2595C65.7358 25.2261 66.2022 24.9801 66.6565 24.5213L70.286 20.8554ZM69.3692 23.3077L70.4347 31.0148L67.7216 33.7547L66.7433 25.9602L69.3692 23.3077Z" fill="white"/>
<mask id="mask0_8204_487" style="mask-type:alpha" maskUnits="userSpaceOnUse" x="0" y="0" width="100" height="100">
<path d="M0 50C0 22.3858 22.3858 0 50 0C77.6142 0 100 22.3858 100 50C100 77.6142 77.6142 100 50 100C22.3858 100 0 77.6142 0 50Z" fill="black"/>
</mask>
<g mask="url(#mask0_8204_487)">
<path d="M99.9683 5L5 102.016L100 101.725L99.9683 5Z" fill="#7970FF"/>
</g>
</svg>
